SplineFontDB: 3.2
FontName: FontAwesome6Brands-Regular
FullName: Font Awesome 6 Brands Regular
FamilyName: Font Awesome 6 Brands
Weight: Regular
Copyright: Copyright (c) Font Awesome
Version: Version 770.00390625 (Font Awesome version: 6.2.0)
ItalicAngle: 0
UnderlinePosition: 0
UnderlineWidth: 0
Ascent: 448
Descent: 64
InvalidEm: 0
sfntRevision: 0x03020100
LayerCount: 2
Layer: 0 0 "Atr+AOEA-s" 1
Layer: 1 0 "Fore" 0
XUID: [1021 511 -378101552 4384]
StyleMap: 0x0040
FSType: 0
OS2Version: 4
OS2_WeightWidthSlopeOnly: 0
OS2_UseTypoMetrics: 1
CreationTime: 1661874422
ModificationTime: 1677997701
PfmFamily: 17
TTFWeight: 400
TTFWidth: 5
LineGap: 0
VLineGap: 0
Panose: 2 0 5 3 0 0 0 0 0 0
OS2TypoAscent: 448
OS2TypoAOffset: 0
OS2TypoDescent: -64
OS2TypoDOffset: 0
OS2TypoLinegap: 0
OS2WinAscent: 448
OS2WinAOffset: 0
OS2WinDescent: 64
OS2WinDOffset: 0
HheadAscent: 448
HheadAOffset: 0
HheadDescent: -64
HheadDOffset: 0
OS2SubXSize: 332
OS2SubYSize: 358
OS2SubXOff: 0
OS2SubYOff: 71
OS2SupXSize: 332
OS2SupYSize: 358
OS2SupXOff: 0
OS2SupYOff: 245
OS2StrikeYSize: 25
OS2StrikeYPos: 132
OS2CapHeight: 421
OS2XHeight: 313
OS2Vendor: 'AWSM'
OS2CodePages: 00000001.00000000
OS2UnicodeRanges: 80000001.10000000.00000000.00000000
Lookup: 4 0 1 "'liga' Ligaduras est+AOEA-ndar en Latin b+APoA-squeda 0" { "'liga' Ligaduras est+AOEA-ndar en Latin b+APoA-squeda 0 subtabla"  } ['liga' ('latn' <'dflt' > ) ]
DEI: 91125
LangName: 1033 "" "Font Awesome 6 Brands Regular" "" "Font Awesome 6 Brands Regular-6.2.0" "" "Version 770.00390625 (Font Awesome version: 6.2.0)" "" "" "" "" "The web's most popular icon set and toolkit." "https://fontawesome.com" "" "" "" "" "Font Awesome 6 Brands" "Regular"
Encoding: UnicodeFull
UnicodeInterp: none
NameList: AGL For New Fonts
DisplaySize: -48
AntiAlias: 1
FitToEm: 0
WinInfo: 61776 27 9
BeginPrivate: 6
BlueValues 17 [-32 -32 416 416]
BlueShift 2 20
StdHW 4 [16]
StdVW 4 [16]
StemSnapH 31 [15 16 19 21 22 23 32 41 42 72]
StemSnapV 26 [15 16 22 23 24 32 99 124]

StartChar: .notdef
Encoding: 1114112 -1 0
Width: 384
GlyphClass: 1
Flags: W
LayerCount: 2
Fore
SplineSet
64 57.7001953125 m 1
 64 326.299804688 l 1
 153.5 192 l 1
 64 57.7001953125 l 1
102.5 0 m 1
 192 134.299804688 l 1
 281.5 0 l 1
 102.5 0 l 1
230.5 192 m 1
 320 326.299804688 l 1
 320 57.7001953125 l 1
 230.5 192 l 1
281.5 384 m 1
 192 249.700195312 l 1
 102.5 384 l 1
 281.5 384 l 1
0 400 m 2
 0 -16 l 2
 0 -42.5 21.5 -64 48 -64 c 2
 336 -64 l 2
 362.5 -64 384 -42.5 384 -16 c 2
 384 400 l 2
 384 426.5 362.5 448 336 448 c 2
 48 448 l 2
 21.5 448 0 426.5 0 400 c 2
EndSplineSet
Validated: 524297
EndChar

StartChar: exclamation
Encoding: 33 33 2
AltUni2: 00f12a.ffffffff.0 002757.ffffffff.0 002755.ffffffff.0 00f12a.ffffffff.0 002757.ffffffff.0 002755.ffffffff.0
Width: 128
GlyphClass: 1
Flags: W
LayerCount: 2
Fore
SplineSet
96 384 m 2
 96 128 l 2
 96 110.299804688 81.7001953125 96 64 96 c 0
 46.2998046875 96 32 110.299804688 32 128 c 2
 32 384 l 2
 32 401.700195312 46.2998046875 416 64 416 c 0
 81.7001953125 416 96 401.700195312 96 384 c 2
64 -32 m 0
 41.900390625 -32 24 -14.099609375 24 8 c 0
 24 30.099609375 41.900390625 48 64 48 c 0
 86.099609375 48 104 30.099609375 104 8 c 0
 104 -14.099609375 86.099609375 -32 64 -32 c 0
EndSplineSet
Validated: 524289
Ligature2: "'liga' Ligaduras est+AOEA-ndar en Latin b+APoA-squeda 0 subtabla" e x c l a m a t i o n
EndChar

StartChar: hashtag
Encoding: 35 35 4
AltUni2: 00f292.ffffffff.0 00f292.ffffffff.0
Width: 448
GlyphClass: 1
Flags: W
LayerCount: 2
Fore
SplineSet
181.299804688 415.599609375 m 2
 181.19921875 415.600585938 l 2
 163.798828125 418.500976562 147.298828125 406.701171875 144.3984375 389.30078125 c 2
 132.8984375 320.000976562 l 1
 63.998046875 320.000976562 l 2
 46.2978515625 320.000976562 31.998046875 305.701171875 31.998046875 288.000976562 c 0
 31.998046875 270.30078125 46.2978515625 256.000976562 63.998046875 256.000976562 c 2
 122.198242188 256.000976562 l 1
 100.8984375 128.000976562 l 1
 31.998046875 128.000976562 l 2
 14.2978515625 128.000976562 -0.001953125 113.701171875 -0.001953125 96.0009765625 c 0
 -0.001953125 78.30078125 14.2978515625 64.0009765625 31.998046875 64.0009765625 c 2
 90.1982421875 64.0009765625 l 1
 80.498046875 5.1005859375 l 2
 77.59765625 -12.2998046875 89.3974609375 -28.7998046875 106.797851562 -31.7001953125 c 0
 124.198242188 -34.6005859375 140.698242188 -22.80078125 143.598632812 -5.400390625 c 2
 155.098632812 63.8994140625 l 1
 250.298828125 63.8994140625 l 1
 240.499023438 5.19921875 l 2
 237.598632812 -12.201171875 249.3984375 -28.701171875 266.798828125 -31.6015625 c 0
 284.19921875 -34.501953125 300.69921875 -22.7021484375 303.599609375 -5.3017578125 c 2
 315.099609375 63.998046875 l 1
 384 63.998046875 l 2
 401.700195312 63.998046875 416 78.2978515625 416 95.998046875 c 0
 416 113.698242188 401.700195312 127.998046875 384 127.998046875 c 2
 325.799804688 127.998046875 l 1
 347.099609375 255.998046875 l 1
 416 255.998046875 l 2
 433.700195312 255.998046875 448 270.297851562 448 287.998046875 c 0
 448 305.698242188 433.700195312 319.998046875 416 319.998046875 c 2
 357.799804688 319.998046875 l 1
 367.5 378.797851562 l 2
 370.400390625 396.198242188 358.600585938 412.698242188 341.200195312 415.598632812 c 0
 323.799804688 418.499023438 307.299804688 406.69921875 304.399414062 389.298828125 c 2
 292.899414062 319.999023438 l 1
 197.799804688 319.999023438 l 1
 207.599609375 378.798828125 l 2
 210.5 396.19921875 198.700195312 412.69921875 181.299804688 415.599609375 c 2
187.098632812 256.000976562 m 1
 282.198242188 256.000976562 l 1
 260.8984375 128.000976562 l 1
 165.798828125 128.000976562 l 1
 165.798828125 128.000976562 181.298828125 415.600585938 187.098632812 256.000976562 c 1
EndSplineSet
Validated: 524329
Ligature2: "'liga' Ligaduras est+AOEA-ndar en Latin b+APoA-squeda 0 subtabla" h a s h t a g
EndChar

StartChar: dollar-sign
Encoding: 36 36 5
AltUni2: 01f4b2.ffffffff.0 00f155.ffffffff.0 01f4b2.ffffffff.0 00f155.ffffffff.0
Width: 320
GlyphClass: 1
Flags: MW
HStem: 11.3994 25.8047<217.14 231.27 217.14 236.8 217.14 236.823 217.14 238.586> 344.673 25.127<301.152 308.349>
VStem: -6.40234 25.8066<234.94 256.396> -6.40039 205.005<20.667 216.404 62.8047 216.404 62.8047 254.6> 249.805 102.195<55.7402 357 126.6 231.406>
LayerCount: 2
Fore
SplineSet
108.799804688 369.799804688 m 2xd8
 105.2734375 369.799804688 102.053710938 368.372070312 99.7373046875 366.061523438 c 1
 99.7392578125 366.060546875 -2.662109375 263.662109375 -2.662109375 263.662109375 c 2
 -4.97265625 261.349609375 -6.40234375 258.158203125 -6.40234375 254.634765625 c 0xe8
 -6.40234375 254.623046875 -6.400390625 254.611328125 -6.400390625 254.599609375 c 1
 -6.40234375 254.600585938 -6.400390625 24.19921875 -6.400390625 24.19921875 c 2
 -6.400390625 17.134765625 -0.6650390625 11.3994140625 6.3994140625 11.3994140625 c 2
 236.799804688 11.3994140625 l 1
 236.823242188 11.3994140625 l 2
 240.349609375 11.3994140625 243.545898438 12.8271484375 245.862304688 15.1376953125 c 1
 245.860351562 15.138671875 348.26171875 117.537109375 348.26171875 117.537109375 c 2
 350.572265625 119.853515625 352.001953125 123.048828125 352.001953125 126.575195312 c 2
 352 126.599609375 l 1
 352.001953125 126.598632812 352 357 352 357 c 2
 352 364.064453125 360.606445312 369.799804688 339.200195312 369.799804688 c 2
 108.799804688 369.799804688 l 2xd8
300.4921875 344.66015625 m 2
 300.754882812 344.66796875 301.01953125 344.672851562 301.284179688 344.672851562 c 0
 315.413085938 344.672851562 326.883789062 333.201171875 326.883789062 319.072265625 c 0
 326.883789062 311.87109375 323.896484375 305.358398438 319.103515625 300.705078125 c 1
 319.111328125 300.70703125 249.8046875 231.40625 249.8046875 231.40625 c 1
 249.8046875 62.8046875 l 2
 249.8046875 48.67578125 238.333984375 37.2041015625 224.205078125 37.2041015625 c 0
 210.075195312 37.2041015625 198.604492188 48.67578125 198.604492188 62.8046875 c 2
 198.604492188 216.404296875 l 1xd8
 45.0048828125 216.404296875 l 2
 30.8759765625 216.404296875 19.404296875 227.875 19.404296875 242.004882812 c 0
 19.404296875 256.133789062 30.8759765625 267.604492188 45.0048828125 267.604492188 c 2
 213.606445312 267.604492188 l 1
 282.879882812 336.903320312 l 2
 287.361328125 341.520507812 293.581054688 344.450195312 300.466796875 344.66015625 c 1
 300.452148438 344.666015625 300.4921875 344.66015625 300.4921875 344.66015625 c 2
EndSplineSet
Validated: 524841
Ligature2: "'liga' Ligaduras est+AOEA-ndar en Latin b+APoA-squeda 0 subtabla" u s d
Ligature2: "'liga' Ligaduras est+AOEA-ndar en Latin b+APoA-squeda 0 subtabla" d o l l a r
Ligature2: "'liga' Ligaduras est+AOEA-ndar en Latin b+APoA-squeda 0 subtabla" d o l l a r hyphen s i g n
EndChar

StartChar: percent
Encoding: 37 37 6
AltUni2: 00f541.ffffffff.0 00f295.ffffffff.0 00f541.ffffffff.0 00f295.ffffffff.0
Width: 384
GlyphClass: 1
Flags: W
LayerCount: 2
Fore
SplineSet
374.599609375 329.400390625 m 2
 54.599609375 9.400390625 l 2
 42.099609375 -3.099609375 21.7998046875 -3.099609375 9.2998046875 9.400390625 c 0
 -3.2001953125 21.900390625 -3.2001953125 42.2001953125 9.2998046875 54.7001953125 c 2
 329.299804688 374.700195312 l 2
 341.799804688 387.200195312 362.099609375 387.200195312 374.599609375 374.700195312 c 0
 387.099609375 362.200195312 387.099609375 341.900390625 374.599609375 329.400390625 c 2
128 320 m 0
 128 284.700195312 99.2998046875 256 64 256 c 0
 28.7001953125 256 0 284.700195312 0 320 c 0
 0 355.299804688 28.7001953125 384 64 384 c 0
 99.2998046875 384 128 355.299804688 128 320 c 0
384 64 m 0
 384 28.7001953125 355.299804688 0 320 0 c 0
 284.700195312 0 256 28.7001953125 256 64 c 0
 256 99.2998046875 284.700195312 128 320 128 c 0
 355.299804688 128 384 99.2998046875 384 64 c 0
EndSplineSet
Validated: 524321
Ligature2: "'liga' Ligaduras est+AOEA-ndar en Latin b+APoA-squeda 0 subtabla" p e r c e n t
Ligature2: "'liga' Ligaduras est+AOEA-ndar en Latin b+APoA-squeda 0 subtabla" p e r c e n t a g e
EndChar

StartChar: asterisk
Encoding: 42 42 7
AltUni2: 00f069.ffffffff.0 002731.ffffffff.0 00f069.ffffffff.0 002731.ffffffff.0
Width: 384
GlyphClass: 1
Flags: MW
HStem: 25.3896 19.2109<192.337 197.889> 121.4 25.5996<47.1514 145.251 47.1514 148.271 47.1514 148.271 174 341.552> 249.4 25.5996<47.1514 145.251 145.251 145.251 174 341.552> 351.8 19.3574<194.396 198.021 194.396 236.848>
VStem: 15.1514 25.6006<155.704 240.696 155.704 247.608> 143.151 25.5781<188.767 197.07 188.349 198.2> 347.951 25.6006<155.704 240.696>
LayerCount: 2
Fore
SplineSet
194.3515625 377.400390625 m 0
 95.53515625 377.400390625 15.1513671875 297.016601562 15.1513671875 198.200195312 c 0
 15.1513671875 99.3837890625 95.53515625 19 194.3515625 19 c 0
 293.16796875 19 373.551757812 99.3837890625 373.551757812 198.200195312 c 0
 373.551757812 297.016601562 293.16796875 377.400390625 194.3515625 377.400390625 c 0
194.3515625 351.799804688 m 0
 279.34375 351.799804688 347.951171875 283.192382812 347.951171875 198.200195312 c 0
 347.951171875 113.208007812 279.34375 44.6005859375 194.3515625 44.6005859375 c 0
 109.359375 44.6005859375 40.751953125 113.208007812 40.751953125 198.200195312 c 0
 40.751953125 283.192382812 109.359375 351.799804688 194.3515625 351.799804688 c 0
193.942382812 371.153320312 m 0
 190.038085938 370.991210938 186.581054688 369.086914062 184.341796875 366.1875 c 0
 166.268554688 343.583007812 154.416015625 315.08984375 148.24609375 275 c 1
 47.1513671875 275 l 2
 29.845703125 275.255859375 29.845703125 249.14453125 47.1513671875 249.400390625 c 2
 145.250976562 249.400390625 l 1
 143.84765625 232.762695312 143.131835938 215.930664062 143.131835938 198.932617188 c 0
 143.131835938 198.489257812 143.150390625 198.643554688 143.151367188 198.200195312 c 0
 143.151367188 179.333007812 143.919921875 162.513671875 145.250976562 147 c 1
 47.1513671875 147 l 2
 29.845703125 147.255859375 29.845703125 121.14453125 47.1513671875 121.400390625 c 2
 148.271484375 121.400390625 l 1
 154.416015625 81.310546875 166.268554688 52.7919921875 184.3671875 30.1875 c 0
 186.71484375 27.2626953125 190.318359375 25.3896484375 194.356445312 25.3896484375 c 0
 201.421875 25.3896484375 207.158203125 31.1259765625 207.158203125 38.19140625 c 0
 207.158203125 41.21875 206.095703125 44.0205078125 204.3359375 46.212890625 c 0
 189.87109375 64.2861328125 179.682617188 87.0703125 174 121.400390625 c 1
 341.551757812 121.400390625 l 2
 358.857421875 121.14453125 358.857421875 147.255859375 341.551757812 147 c 2
 170.850585938 147 l 1
 169.446289062 163.389648438 168.729492188 179.973632812 168.729492188 196.724609375 c 0
 168.729492188 197.416015625 168.749023438 197.509765625 168.751953125 198.200195312 c 0
 168.751953125 217.4765625 169.51953125 234.295898438 170.850585938 249.400390625 c 1
 341.551757812 249.400390625 l 2
 358.857421875 249.14453125 358.857421875 275.255859375 341.551757812 275 c 2
 174 275 l 1
 179.682617188 309.330078125 189.87109375 332.087890625 204.361328125 350.212890625 c 0
 206.190429688 352.426757812 207.2890625 355.264648438 207.2890625 358.357421875 c 0
 207.2890625 365.421875 201.553710938 371.157226562 194.489257812 371.157226562 c 0
 194.301757812 371.157226562 194.127929688 371.162109375 193.942382812 371.153320312 c 0
EndSplineSet
Validated: 524325
Ligature2: "'liga' Ligaduras est+AOEA-ndar en Latin b+APoA-squeda 0 subtabla" a s t e r i s k
EndChar

StartChar: plus
Encoding: 43 43 8
AltUni2: 00f067.ffffffff.0 002795.ffffffff.0 00f067.ffffffff.0 002795.ffffffff.0
Width: 448
GlyphClass: 1
Flags: MW
HStem: 19.2832 25.7021<78.8809 91.5723 78.8809 92.187> 176.804 51.2002<178.839 383.639 178.839 383.639>
VStem: 53.2812 25.5996<28.8242 303.879 44.9854 303.879 44.9854 313.939> 258.029 25.6514<83.479 93.0879>
LayerCount: 2
Fore
SplineSet
409.59765625 202.762695312 m 0
 409.403320312 216.724609375 398.0078125 228 384 228 c 0
 383.876953125 228 383.76171875 228.005859375 383.638671875 228.00390625 c 0
 383.6328125 227.998046875 178.838867188 228.00390625 178.838867188 228.00390625 c 2
 144.227539062 228.516601562 144.227539062 176.291992188 178.838867188 176.803710938 c 2
 383.638671875 176.803710938 l 2
 383.76171875 176.802734375 383.883789062 176.801757812 384.006835938 176.801757812 c 0
 398.135742188 176.801757812 409.606445312 188.272460938 409.606445312 202.401367188 c 0
 409.606445312 202.524414062 409.599609375 202.640625 409.59765625 202.762695312 c 0
283.680664062 365.139648438 m 2
 283.834960938 380.37109375 261.971679688 383.059570312 258.439453125 368.237304688 c 1
 260.282226562 375.481445312 l 1
 62.9833984375 326.330078125 l 2
 57.42578125 324.943359375 53.294921875 319.920898438 53.28125 313.939453125 c 0
 53.287109375 313.938476562 53.28125 32.3388671875 53.28125 32.3388671875 c 2
 53.28125 25.3095703125 58.9619140625 19.595703125 65.978515625 19.5390625 c 1
 65.9765625 19.5400390625 91.52734375 19.283203125 91.52734375 19.283203125 c 1
 91.572265625 19.283203125 l 2
 92.8017578125 19.283203125 93.98828125 19.4638671875 95.111328125 19.794921875 c 2
 274.387695312 71.123046875 l 2
 279.749023438 72.650390625 283.678710938 77.587890625 283.678710938 83.435546875 c 0
 283.678710938 83.4541015625 283.680664062 83.4697265625 283.680664062 83.48828125 c 0
 283.678710938 83.4912109375 284.0390625 147.385742188 284.0390625 147.385742188 c 1
 258.439453125 147.333984375 l 1
 258.029296875 93.087890625 l 1
 89.888671875 44.9599609375 l 1
 78.880859375 44.9853515625 l 1
 78.880859375 303.87890625 l 1
 258.081054688 348.55078125 l 1
 258.439453125 249.734375 l 1
 284.0390625 249.734375 l 1
 283.680664062 365.139648438 l 2
EndSplineSet
Validated: 524325
Ligature2: "'liga' Ligaduras est+AOEA-ndar en Latin b+APoA-squeda 0 subtabla" p l u s
Ligature2: "'liga' Ligaduras est+AOEA-ndar en Latin b+APoA-squeda 0 subtabla" a d d
EndChar

StartChar: hyphen
Encoding: 45 45 9
Width: 320
GlyphClass: 1
Flags: W
LayerCount: 2
Fore
SplineSet
0 192 m 0
 0 174.299804688 14.2998046875 160 32 160 c 2
 288 160 l 2
 305.700195312 160 320 174.299804688 320 192 c 0
 320 209.700195312 305.700195312 224 288 224 c 2
 32 224 l 2
 14.2998046875 224 0 209.700195312 0 192 c 0
EndSplineSet
Validated: 524297
EndChar

StartChar: 0
Encoding: 48 48 10
Width: 320
GlyphClass: 1
Flags: W
LayerCount: 2
Fore
SplineSet
0 256 m 2
 0 128 l 2
 0 39.599609375 71.599609375 -32 160 -32 c 0
 248.400390625 -32 320 39.599609375 320 128 c 2
 320 256 l 2
 320 344.400390625 248.400390625 416 160 416 c 0
 71.599609375 416 0 344.400390625 0 256 c 2
160 352 m 0
 213 352 256 309 256 256 c 2
 256 128 l 2
 256 75 213 32 160 32 c 0
 107 32 64 75 64 128 c 2
 64 256 l 2
 64 309 107 352 160 352 c 0
EndSplineSet
Validated: 524297
EndChar

StartChar: 1
Encoding: 49 49 11
Width: 256
GlyphClass: 1
Flags: W
LayerCount: 2
Fore
SplineSet
160 384 m 2
 159.999023438 32 l 1
 223.999023438 32 l 2
 241.69921875 32 255.999023438 17.7001953125 255.999023438 0 c 0
 255.999023438 -17.7001953125 241.69921875 -32 223.999023438 -32 c 2
 127.999023438 -32 l 1
 31.9990234375 -32 l 2
 14.298828125 -32 -0.0009765625 -17.7001953125 -0.0009765625 0 c 0
 -0.0009765625 17.7001953125 14.298828125 32 31.9990234375 32 c 2
 95.9990234375 32 l 1
 95.9990234375 324.200195312 l 1
 49.798828125 293.299804688 l 2
 35.0986328125 283.5 15.1982421875 287.400390625 5.3984375 302.200195312 c 0
 -4.4013671875 317 -0.5009765625 336.799804688 14.19921875 346.599609375 c 2
 110.19921875 410.599609375 l 2
 120.099609375 417.19921875 132.69921875 417.798828125 143.099609375 412.19921875 c 0
 153.5 406.599609375 160 395.799804688 160 384 c 2
EndSplineSet
Validated: 524321
EndChar

StartChar: 2
Encoding: 50 50 12
Width: 320
GlyphClass: 1
Flags: W
LayerCount: 2
Fore
SplineSet
142.900390625 352 m 0
 187.700195312 352 223.999023438 315.700195312 223.999023438 270.900390625 c 0
 223.999023438 249.400390625 215.399414062 228.700195312 200.19921875 213.5 c 2
 9.298828125 22.7001953125 l 2
 0.19921875 13.5 -2.6005859375 -0.2001953125 2.3994140625 -12.2001953125 c 0
 7.3994140625 -24.2001953125 19.099609375 -32 32 -32 c 2
 288 -32 l 2
 305.700195312 -32 320 -17.7001953125 320 0 c 0
 320 17.7001953125 305.700195312 32 288 32 c 2
 109.299804688 32 l 1
 245.5 168.299804688 l 2
 272.700195312 195.5 288 232.400390625 288 270.900390625 c 0
 288 351 223 416 142.900390625 416 c 0
 104.400390625 416 67.5 400.700195312 40.2001953125 373.5 c 2
 9.2998046875 342.700195312 l 2
 -3.2001953125 330.200195312 -3.2001953125 309.900390625 9.2998046875 297.400390625 c 0
 21.7998046875 284.900390625 42.099609375 284.900390625 54.599609375 297.400390625 c 2
 85.5 328.200195312 l 2
 100.700195312 343.5 121.400390625 352 142.900390625 352 c 0
142.899414062 352 m 1024
EndSplineSet
Validated: 524329
EndChar

StartChar: 3
Encoding: 51 51 13
Width: 448
GlyphClass: 1
Flags: W
LayerCount: 2
Fore
SplineSet
64 384 m 0
 64 366.299804688 78.2998046875 352.000976562 96 352.000976562 c 2
 253.700195312 352.000976562 l 1
 122.400390625 231.600585938 l 2
 112.700195312 222.700195312 109.400390625 208.700195312 114.200195312 196.400390625 c 0
 119 184.100585938 130.799804688 176.000976562 144 176.000976562 c 2
 248 176.000976562 l 2
 287.799804688 176.000976562 320 143.80078125 320 104.000976562 c 0
 320 64.201171875 287.799804688 32.0009765625 248 32.0009765625 c 2
 169.299804688 32.0009765625 l 2
 151.200195312 32.0009765625 134.5 42.201171875 126.400390625 58.5009765625 c 2
 124.5 62.30078125 l 2
 116.599609375 78.1005859375 97.3994140625 84.5009765625 81.599609375 76.6005859375 c 0
 65.7998046875 68.7001953125 59.3994140625 49.5 67.2998046875 33.7001953125 c 2
 69.2001953125 29.900390625 l 2
 88.2001953125 -8 127 -32 169.400390625 -32 c 2
 248 -32 l 2
 323.099609375 -32 384 28.900390625 384 104 c 0
 384 179.099609375 323.099609375 240 248 240 c 2
 226.299804688 240 l 1
 357.599609375 360.400390625 l 2
 367.299804688 369.30078125 370.599609375 383.30078125 365.799804688 395.600585938 c 0
 361 407.900390625 349.200195312 416 336 416 c 2
 96 416 l 2
 78.2998046875 416 64 401.700195312 64 384 c 0
EndSplineSet
Validated: 524329
EndChar

StartChar: 4
Encoding: 52 52 14
Width: 384
GlyphClass: 1
Flags: W
LayerCount: 2
Fore
SplineSet
189 370.400390625 m 2
 82.400390625 144.000976562 l 1
 256 144.000976562 l 1
 256 288.000976562 l 2
 256 305.701171875 270.299804688 320.000976562 288 320.000976562 c 0
 305.700195312 320.000976562 320 305.701171875 320 288.000976562 c 2
 320 144.000976562 l 1
 352 144.000976562 l 2
 369.700195312 144.000976562 384 129.701171875 384 112.000976562 c 0
 384 94.30078125 369.700195312 80.0009765625 352 80.0009765625 c 2
 320 80.0009765625 l 1
 320 0.0009765625 l 2
 320 -17.69921875 305.700195312 -31.9990234375 288 -31.9990234375 c 0
 270.299804688 -31.9990234375 256 -17.69921875 256 0.0009765625 c 2
 256 80.0009765625 l 1
 32 80.0009765625 l 2
 21 80.0009765625 10.7001953125 85.5009765625 4.900390625 94.80078125 c 0
 -0.8994140625 104.100585938 -1.69921875 115.700195312 3.0009765625 125.600585938 c 2
 131.100585938 397.700195312 l 2
 138.600585938 413.700195312 157.700195312 420.5 173.700195312 413 c 0
 189.700195312 405.5 196.5 386.400390625 189 370.400390625 c 2
EndSplineSet
Validated: 524321
EndChar

StartChar: 5
Encoding: 53 53 15
Width: 320
GlyphClass: 1
Flags: W
LayerCount: 2
Fore
SplineSet
32.5 389.700195312 m 2
 0.5009765625 213.700195312 l 2
 -1.19921875 204.400390625 1.30078125 194.80078125 7.400390625 187.500976562 c 0
 13.5 180.201171875 22.5 176.000976562 32 176.000976562 c 2
 184 176.000976562 l 2
 223.799804688 176.000976562 256 143.80078125 256 104.000976562 c 0
 256 64.201171875 223.799804688 32.0009765625 184 32.0009765625 c 2
 100.5 32.0009765625 l 2
 85.2998046875 32.0009765625 71.5 40.5009765625 64.7001953125 54.1005859375 c 2
 60.6005859375 62.30078125 l 2
 52.7001953125 78.1005859375 33.5 84.5009765625 17.7001953125 76.6005859375 c 0
 1.900390625 68.7001953125 -4.5 49.5 3.400390625 33.7001953125 c 2
 7.5 25.5 l 2
 25.099609375 -9.7001953125 61.099609375 -32 100.5 -32 c 2
 184 -32 l 2
 259.099609375 -32 320 28.900390625 320 104 c 0
 320 179.099609375 259.099609375 240 184 240 c 2
 70.2998046875 240 l 1
 90.7001953125 352 l 1
 256 352 l 2
 273.700195312 352 288 366.299804688 288 384 c 0
 288 401.700195312 273.700195312 416 256 416 c 2
 64 416 l 2
 48.5 416 35.2998046875 404.900390625 32.5 389.700195312 c 2
32.5009765625 389.700195312 m 1024
EndSplineSet
Validated: 524329
EndChar

StartChar: 6
Encoding: 54 54 16
Width: 320
GlyphClass: 1
Flags: W
LayerCount: 2
Fore
SplineSet
232.400390625 363.299804688 m 1
 232.400390625 363.400390625 l 1
 168.5 287.80078125 l 1
 252.900390625 283.400390625 320 213.5 320 128 c 0
 320 39.599609375 248.400390625 -32 160 -32 c 0
 71.599609375 -32 0 39.599609375 0 128 c 2
 0 128.5 l 2
 0 129.900390625 0.099609375 131.400390625 0.099609375 132.80078125 c 0
 1.099609375 169.600585938 14.69921875 205.100585938 38.599609375 233.30078125 c 2
 183.5 404.600585938 l 2
 194.900390625 418.100585938 215.100585938 419.80078125 228.600585938 408.400390625 c 0
 242.100585938 397 243.80078125 376.799804688 232.400390625 363.299804688 c 1
64 128.000976562 m 0
 64 75.0009765625 107 32.0009765625 160 32.0009765625 c 0
 213 32.0009765625 256 75.0009765625 256 128.000976562 c 0
 256 181.000976562 213 224.000976562 160 224.000976562 c 0
 107 224.000976562 64 181.000976562 64 128.000976562 c 0
EndSplineSet
Validated: 524321
EndChar

StartChar: 7
Encoding: 55 55 17
Width: 320
GlyphClass: 1
Flags: W
LayerCount: 2
Fore
SplineSet
0 384 m 0
 0 366.299804688 14.3017578125 352.000976562 32.001953125 352.000976562 c 2
 232.301757812 352.000976562 l 1
 36.3017578125 16.1005859375 l 2
 27.4013671875 0.80078125 32.5009765625 -18.798828125 47.80078125 -27.69921875 c 0
 63.1005859375 -36.599609375 82.7001953125 -31.5 91.6005859375 -16.2001953125 c 2
 315.600585938 367.799804688 l 2
 321.400390625 377.700195312 321.400390625 389.900390625 315.700195312 399.900390625 c 0
 310 409.900390625 299.5 416 288 416 c 2
 32 416 l 2
 14.2998046875 416 0 401.700195312 0 384 c 0
EndSplineSet
Validated: 524329
EndChar

StartChar: 8
Encoding: 56 56 18
Width: 320
GlyphClass: 1
Flags: W
LayerCount: 2
Fore
SplineSet
304 288 m 0
 304 253.400390625 290.299804688 222 268 199 c 1
 299.5 175.700195312 320 138.200195312 320 96 c 0
 320 25.2998046875 262.700195312 -32 192 -32 c 2
 128 -32 l 2
 57.2998046875 -32 0 25.2998046875 0 96 c 0
 0 138.200195312 20.5 175.700195312 52 199 c 1
 29.7001953125 222 16 253.400390625 16 288 c 0
 16 358.700195312 73.2998046875 416 144 416 c 2
 176 416 l 2
 246.700195312 416 304 358.700195312 304 288 c 0
176.099609375 160 m 1
 176 160 l 1
 144 160 l 1
 143.900390625 160 l 1
 128 160 l 2
 92.7001953125 160 64 131.299804688 64 96 c 0
 64 60.7001953125 92.7001953125 32 128 32 c 2
 192 32 l 2
 227.299804688 32 256 60.7001953125 256 96 c 0
 256 131.299804688 227.299804688 160 192 160 c 2
 176.099609375 160 l 1
176.099609375 224 m 1
 176 224 l 1
 211.400390625 224 240 252.700195312 240 288 c 0
 240 323.299804688 211.299804688 352 176 352 c 2
 144 352 l 2
 108.700195312 352 80 323.299804688 80 288 c 0
 80 252.700195312 108.700195312 224 144 224 c 1
 144 224 l 1
 176.099609375 224 l 1
 176.099609375 224 l 1
176.099609375 224 m 1024
EndSplineSet
Validated: 524293
EndChar

StartChar: 9
Encoding: 57 57 19
Width: 320
GlyphClass: 1
Flags: W
LayerCount: 2
Fore
SplineSet
64 256 m 0
 64 309 107 352 160 352 c 0
 213 352 256 309 256 256 c 0
 256 203 213 160 160 160 c 0
 107 160 64 203 64 256 c 0
151.5 96.2001953125 m 1
 151.400390625 96.201171875 l 1
 87.5 20.6015625 l 2
 76.099609375 7.1015625 77.7998046875 -13.0986328125 91.2998046875 -24.4990234375 c 0
 104.799804688 -35.8994140625 125 -34.19921875 136.400390625 -20.69921875 c 2
 281.400390625 150.701171875 l 2
 304.600585938 178.1015625 318.100585938 212.401367188 319.80078125 248.1015625 c 0
 319.900390625 250.701171875 320 253.401367188 320 256.000976562 c 0
 320 344.401367188 248.400390625 416.000976562 160 416.000976562 c 0
 71.599609375 416.000976562 0 344.401367188 0 256.000976562 c 0
 0 170.500976562 67.099609375 100.600585938 151.5 96.2001953125 c 1
151.5 96.201171875 m 1024
EndSplineSet
Validated: 524325
EndChar

StartChar: less-than
Encoding: 60 60 20
AltUni2: 00f536.ffffffff.0 00f536.ffffffff.0
Width: 384
GlyphClass: 1
Flags: W
LayerCount: 2
Fore
SplineSet
380.599609375 366.299804688 m 0
 372.69921875 382.099609375 353.499023438 388.498046875 337.69921875 380.59765625 c 2
 17.69921875 220.59765625 l 2
 6.798828125 215.197265625 -0.0009765625 204.09765625 -0.0009765625 191.998046875 c 0
 -0.0009765625 179.8984375 6.798828125 168.798828125 17.69921875 163.3984375 c 2
 337.69921875 3.3984375 l 2
 353.499023438 -4.501953125 372.69921875 1.8984375 380.599609375 17.6982421875 c 0
 388.5 33.498046875 382.099609375 52.6982421875 366.299804688 60.5986328125 c 2
 103.599609375 191.999023438 l 1
 366.299804688 323.399414062 l 2
 382.099609375 331.299804688 388.5 350.5 380.599609375 366.299804688 c 0
EndSplineSet
Validated: 524841
Ligature2: "'liga' Ligaduras est+AOEA-ndar en Latin b+APoA-squeda 0 subtabla" l e s s hyphen t h a n
EndChar

StartChar: equals
Encoding: 61 61 21
AltUni2: 00f52c.ffffffff.0 00f52c.ffffffff.0
Width: 448
GlyphClass: 1
Flags: W
LayerCount: 2
Fore
SplineSet
48 320 m 2
 400 320 l 2
 417.700195312 320 432 305.700195312 432 288 c 0
 432 270.299804688 417.700195312 256 400 256 c 2
 48 256 l 2
 30.2998046875 256 16 270.299804688 16 288 c 0
 16 305.700195312 30.2998046875 320 48 320 c 2
48 128 m 2
 400 128 l 2
 417.700195312 128 432 113.700195312 432 96 c 0
 432 78.2998046875 417.700195312 64 400 64 c 2
 48 64 l 2
 30.2998046875 64 16 78.2998046875 16 96 c 0
 16 113.700195312 30.2998046875 128 48 128 c 2
EndSplineSet
Validated: 524289
Ligature2: "'liga' Ligaduras est+AOEA-ndar en Latin b+APoA-squeda 0 subtabla" e q u a l s
EndChar

StartChar: greater-than
Encoding: 62 62 22
AltUni2: 00f531.ffffffff.0 00f531.ffffffff.0
Width: 384
GlyphClass: 1
Flags: W
LayerCount: 2
Fore
SplineSet
3.400390625 366.299804688 m 0
 11.30078125 382.099609375 30.5009765625 388.498046875 46.30078125 380.59765625 c 2
 366.30078125 220.59765625 l 2
 377.201171875 215.197265625 384.000976562 204.09765625 384.000976562 191.998046875 c 0
 384.000976562 179.8984375 377.100585938 168.798828125 366.30078125 163.3984375 c 2
 46.30078125 3.3984375 l 2
 30.5009765625 -4.501953125 11.30078125 1.8984375 3.400390625 17.6982421875 c 0
 -4.5 33.498046875 1.900390625 52.6982421875 17.7001953125 60.5986328125 c 2
 280.5 191.999023438 l 1
 17.7001953125 323.399414062 l 2
 1.900390625 331.299804688 -4.5 350.5 3.400390625 366.299804688 c 0
3.400390625 366.297851562 m 1024
EndSplineSet
Validated: 524833
Ligature2: "'liga' Ligaduras est+AOEA-ndar en Latin b+APoA-squeda 0 subtabla" g r e a t e r hyphen t h a n
EndChar

StartChar: question
Encoding: 63 63 23
AltUni2: 00f128.ffffffff.0 002754.ffffffff.0 002753.ffffffff.0 00f128.ffffffff.0 002754.ffffffff.0 002753.ffffffff.0
Width: 320
GlyphClass: 1
Flags: W
LayerCount: 2
Fore
SplineSet
96 352 m 2
 193 352 l 2
 227.799804688 352 256 323.799804688 256 289 c 0
 256 263 240 239.700195312 215.799804688 230.200195312 c 2
 152.799804688 205.700195312 l 2
 128.200195312 196.200195312 112 172.5 112 146.099609375 c 2
 112 128 l 2
 112 110.299804688 126.299804688 96 144 96 c 0
 161.700195312 96 176 110.299804688 176 128 c 2
 176 146.099609375 l 1
 239 170.599609375 l 2
 287.799804688 189.599609375 320 236.599609375 320 289 c 0
 320 359.099609375 263.099609375 416 193 416 c 2
 96 416 l 2
 43 416 0 373 0 320 c 0
 0 302.299804688 14.2998046875 288 32 288 c 0
 49.7001953125 288 64 302.299804688 64 320 c 0
 64 337.700195312 78.2998046875 352 96 352 c 2
144 -32 m 0
 166.099609375 -32 184 -14.099609375 184 8 c 0
 184 30.099609375 166.099609375 48 144 48 c 0
 121.900390625 48 104 30.099609375 104 8 c 0
 104 -14.099609375 121.900390625 -32 144 -32 c 0
EndSplineSet
Validated: 524297
Ligature2: "'liga' Ligaduras est+AOEA-ndar en Latin b+APoA-squeda 0 subtabla" q u e s t i o n
EndChar

StartChar: at
Encoding: 64 64 24
AltUni2: 00f1fa.ffffffff.0 00f1fa.ffffffff.0
Width: 512
GlyphClass: 1
Flags: W
LayerCount: 2
Fore
SplineSet
256 384 m 0
 362 384 448.001953125 297.999023438 448.001953125 191.999023438 c 2
 448.001953125 159.999023438 l 2
 448.001953125 142.298828125 433.702148438 127.999023438 416.001953125 127.999023438 c 0
 398.301757812 127.999023438 384.001953125 142.298828125 384.001953125 159.999023438 c 2
 384.001953125 191.999023438 l 1
 384.001953125 271.999023438 l 2
 384.001953125 289.69921875 369.702148438 303.999023438 352.001953125 303.999023438 c 0
 343.801757812 303.999023438 336.401367188 300.899414062 330.701171875 295.899414062 c 1
 309.701171875 311.099609375 283.901367188 320 256.000976562 320 c 0
 185.30078125 320 128.000976562 262.700195312 128.000976562 192 c 0
 128.000976562 121.299804688 185.30078125 64 256.000976562 64 c 0
 289.500976562 64 320.000976562 76.900390625 342.80078125 97.900390625 c 1
 360.400390625 77.2001953125 386.700195312 64 416 64 c 0
 469 64 512 107 512 160 c 2
 512 192 l 2
 512 333.400390625 397.400390625 448 256 448 c 0
 114.599609375 448 0 333.400390625 0 192 c 0
 0 50.599609375 114.599609375 -64 256 -64 c 0
 273.700195312 -64 288 -49.7001953125 288 -32 c 0
 288 -14.2998046875 273.700195312 0 256 0 c 0
 150 0 64 86 64 192 c 0
 64 298 150 384 256 384 c 0
320.001953125 191.999023438 m 0
 320.001953125 156.69921875 291.301757812 127.999023438 256.001953125 127.999023438 c 0
 220.702148438 127.999023438 192.001953125 156.69921875 192.001953125 191.999023438 c 0
 192.001953125 227.298828125 220.702148438 255.999023438 256.001953125 255.999023438 c 0
 291.301757812 255.999023438 320.001953125 227.298828125 320.001953125 191.999023438 c 0
EndSplineSet
Validated: 524297
Ligature2: "'liga' Ligaduras est+AOEA-ndar en Latin b+APoA-squeda 0 subtabla" a t
EndChar

StartChar: a
Encoding: 65 65 25
AltUni2: 000061.ffffffff.0 000061.ffffffff.0
Width: 448
GlyphClass: 1
Flags: MW
HStem: 345.523 25.625
LayerCount: 2
Fore
SplineSet
320.1796875 25.7021484375 m 2
 320.1796875 256.102539062 l 2
 320.1796875 263.166992188 314.443359375 268.90234375 307.37890625 268.90234375 c 2
 256.1796875 268.90234375 l 2
 249.114257812 268.90234375 243.37890625 263.166992188 243.37890625 256.102539062 c 2
 243.37890625 25.7021484375 l 2
 243.37890625 18.6376953125 249.114257812 12.90234375 256.1796875 12.90234375 c 2
 307.37890625 12.90234375 l 2
 314.443359375 12.90234375 320.1796875 18.6376953125 320.1796875 25.7021484375 c 2
422.400390625 127.922851562 m 2
 422.400390625 358.348632812 l 2
 422.400390625 365.413085938 416.6640625 371.1484375 409.599609375 371.1484375 c 2
 409.599609375 371.1484375 179.198242188 371.150390625 179.200195312 371.1484375 c 1
 175.661132812 371.1484375 172.455078125 369.709960938 170.137695312 367.385742188 c 2
 93.337890625 290.5859375 l 2
 91.0283203125 288.270507812 89.6005859375 285.07421875 89.599609375 281.548828125 c 2
 89.599609375 281.548828125 89.5986328125 51.1484375 89.599609375 51.1484375 c 1
 89.599609375 44.083984375 95.3349609375 38.3486328125 102.399414062 38.3486328125 c 2
 102.451171875 38.3486328125 l 1
 217.830078125 38.5283203125 l 1
 217.779296875 64.1279296875 l 1
 115.200195312 63.94921875 l 1
 115.200195312 276.198242188 l 1
 184.499023438 345.5234375 l 1
 396.799804688 345.5234375 l 1
 396.799804688 133.22265625 l 1
 349.541992188 85.96484375 l 2
 336.97265625 73.9072265625 355.583984375 55.2958984375 367.641601562 67.865234375 c 2
 418.63671875 118.860351562 l 2
 420.961914062 121.178710938 422.399414062 124.384765625 422.400390625 127.922851562 c 2
EndSplineSet
Validated: 524329
EndChar

StartChar: b
Encoding: 66 66 26
AltUni2: 000062.ffffffff.0 000062.ffffffff.0
Width: 320
GlyphClass: 1
Flags: W
LayerCount: 2
Fore
SplineSet
32 416 m 2
 160 416 l 2
 230.700195312 416 288 358.700195312 288 288 c 0
 288 256.700195312 276.700195312 228 258 205.700195312 c 1
 295.200195312 183.299804688 320 142.5 320 96 c 0
 320 25.2998046875 262.700195312 -32 192 -32 c 2
 32 -32 l 2
 14.2998046875 -32 0 -17.7001953125 0 0 c 2
 0 192 l 1
 0 384 l 2
 0 401.700195312 14.2998046875 416 32 416 c 2
160 224 m 2
 195.299804688 224 224 252.700195312 224 288 c 0
 224 323.299804688 195.299804688 352 160 352 c 2
 64 352 l 1
 64 224 l 1
 160 224 l 2
64 160 m 1
 64 32 l 1
 192 32 l 2
 227.299804688 32 256 60.7001953125 256 96 c 0
 256 131.299804688 227.299804688 160 192 160 c 2
 160 160 l 1
 64 160 l 1
EndSplineSet
Validated: 524289
EndChar

StartChar: c
Encoding: 67 67 27
AltUni2: 000063.ffffffff.0 000063.ffffffff.0
Width: 384
GlyphClass: 1
Flags: W
LayerCount: 2
Fore
SplineSet
329.099609375 305.099609375 m 1
 329.099609375 305 l 1
 341.599609375 292.5 361.899414062 292.5 374.399414062 305 c 0
 386.899414062 317.5 386.899414062 337.799804688 374.399414062 350.299804688 c 0
 286.899414062 437.799804688 153.099609375 437.799804688 65.599609375 350.299804688 c 0
 -21.900390625 262.799804688 -21.900390625 121 65.599609375 33.5 c 0
 153.099609375 -54 286.899414062 -54 374.399414062 33.5 c 0
 386.899414062 46 386.899414062 66.2998046875 374.399414062 78.7998046875 c 0
 361.899414062 91.2998046875 341.599609375 91.2998046875 329.099609375 78.7998046875 c 0
 266.599609375 16.2998046875 173.299804688 16.2998046875 110.799804688 78.7998046875 c 0
 48.2998046875 141.299804688 48.2998046875 242.599609375 110.799804688 305.099609375 c 0
 173.299804688 367.599609375 266.599609375 367.599609375 329.099609375 305.099609375 c 1
329.099609375 305.099609375 m 1024
EndSplineSet
Validated: 524329
EndChar

StartChar: d
Encoding: 68 68 28
AltUni2: 000064.ffffffff.0 000064.ffffffff.0
Width: 384
GlyphClass: 1
Flags: W
LayerCount: 2
Fore
SplineSet
0 384 m 2
 0 0 l 2
 0 -17.7001953125 14.2998046875 -32 32 -32 c 2
 160 -32 l 2
 283.700195312 -32 384 68.2998046875 384 192 c 0
 384 315.700195312 283.700195312 416 160 416 c 2
 32 416 l 2
 14.2998046875 416 0 401.700195312 0 384 c 2
64 352 m 1
 160 352 l 2
 248.400390625 352 320 280.400390625 320 192 c 0
 320 103.599609375 248.400390625 32 160 32 c 2
 64 32 l 1
 64 352 l 1
EndSplineSet
Validated: 524297
EndChar

StartChar: e
Encoding: 69 69 29
AltUni2: 000065.ffffffff.0 000065.ffffffff.0
Width: 320
GlyphClass: 1
Flags: W
LayerCount: 2
Fore
SplineSet
32 416 m 2
 288 416 l 2
 305.700195312 416 320 401.700195312 320 384 c 0
 320 366.299804688 305.700195312 352 288 352 c 2
 64 352 l 1
 64 224 l 1
 224 224 l 2
 241.700195312 224 256 209.700195312 256 192 c 0
 256 174.299804688 241.700195312 160 224 160 c 2
 64 160 l 1
 64 32 l 1
 288 32 l 2
 305.700195312 32 320 17.7001953125 320 0 c 0
 320 -17.7001953125 305.700195312 -32 288 -32 c 2
 32 -32 l 2
 14.2998046875 -32 0 -17.7001953125 0 0 c 2
 0 192 l 1
 0 384 l 2
 0 401.700195312 14.2998046875 416 32 416 c 2
EndSplineSet
Validated: 524289
EndChar

StartChar: f
Encoding: 70 70 30
AltUni2: 000066.ffffffff.0 000066.ffffffff.0
Width: 320
GlyphClass: 1
Flags: W
LayerCount: 2
Fore
SplineSet
32 416 m 2
 288 416 l 2
 305.700195312 416 320 401.700195312 320 384 c 0
 320 366.299804688 305.700195312 352 288 352 c 2
 64 352 l 1
 64 224 l 1
 224 224 l 2
 241.700195312 224 256 209.700195312 256 192 c 0
 256 174.299804688 241.700195312 160 224 160 c 2
 64 160 l 1
 64 0 l 2
 64 -17.7001953125 49.7001953125 -32 32 -32 c 0
 14.2998046875 -32 0 -17.7001953125 0 0 c 2
 0 192 l 1
 0 384 l 2
 0 401.700195312 14.2998046875 416 32 416 c 2
EndSplineSet
Validated: 524289
EndChar

StartChar: g
Encoding: 71 71 31
AltUni2: 000067.ffffffff.0 000067.ffffffff.0
Width: 448
GlyphClass: 1
Flags: W
LayerCount: 2
Fore
SplineSet
224 352 m 0
 265 352 302.299804688 336.599609375 330.599609375 311.299804688 c 0
 343.799804688 299.5 364 300.599609375 375.799804688 313.799804688 c 0
 387.599609375 327 386.5 347.200195312 373.299804688 359 c 0
 333.700195312 394.400390625 281.400390625 416 224 416 c 0
 100.299804688 416 0 315.700195312 0 192 c 0
 0 68.2998046875 100.299804688 -32 224 -32 c 0
 347.700195312 -32 448 68.2998046875 448 192 c 0
 448 209.700195312 433.700195312 224 416 224 c 2
 256 224 l 2
 238.299804688 224 224 209.700195312 224 192 c 0
 224 174.299804688 238.299804688 160 256 160 c 2
 380.799804688 160 l 1
 366 87 301.400390625 32 224 32 c 0
 135.599609375 32 64 103.599609375 64 192 c 0
 64 280.400390625 135.599609375 352 224 352 c 0
EndSplineSet
Validated: 524329
EndChar

StartChar: h
Encoding: 72 72 32
AltUni2: 000068.ffffffff.0 000068.ffffffff.0
Width: 384
GlyphClass: 1
Flags: W
LayerCount: 2
Fore
SplineSet
320 192 m 1
 64 192 l 1
 64 0 l 2
 64 -17.7001953125 49.7001953125 -32 32 -32 c 0
 14.2998046875 -32 0 -17.7001953125 0 0 c 2
 0 384 l 2
 0 401.700195312 14.2998046875 416 32 416 c 0
 49.7001953125 416 64 401.700195312 64 384 c 2
 64 256 l 1
 320 256 l 1
 320 384 l 2
 320 401.700195312 334.299804688 416 352 416 c 0
 369.700195312 416 384 401.700195312 384 384 c 2
 384 224 l 1
 384 0 l 2
 384 -17.7001953125 369.700195312 -32 352 -32 c 0
 334.299804688 -32 320 -17.7001953125 320 0 c 2
 320 192 l 1
EndSplineSet
Validated: 524289
EndChar

StartChar: i
Encoding: 73 73 33
AltUni2: 000069.ffffffff.0 000069.ffffffff.0
Width: 320
GlyphClass: 1
Flags: W
LayerCount: 2
Fore
SplineSet
32 416 m 2
 160 416 l 1
 288 416 l 2
 305.700195312 416 320 401.700195312 320 384 c 0
 320 366.299804688 305.700195312 352 288 352 c 2
 192 352 l 1
 192 32 l 1
 288 32 l 2
 305.700195312 32 320 17.7001953125 320 0 c 0
 320 -17.7001953125 305.700195312 -32 288 -32 c 2
 32 -32 l 2
 14.2998046875 -32 0 -17.7001953125 0 0 c 0
 0 17.7001953125 14.2998046875 32 32 32 c 2
 128 32 l 1
 128 352 l 1
 32 352 l 2
 14.2998046875 352 0 366.299804688 0 384 c 0
 0 401.700195312 14.2998046875 416 32 416 c 2
EndSplineSet
Validated: 524289
EndChar

StartChar: j
Encoding: 74 74 34
AltUni2: 00006a.ffffffff.0 00006a.ffffffff.0
Width: 320
GlyphClass: 1
Flags: W
LayerCount: 2
Fore
SplineSet
288 416 m 0
 270.299804688 416 256 401.700195312 256 384 c 2
 256 128 l 2
 256 75 213 32 160 32 c 0
 107 32 64 75 64 128 c 2
 64 160 l 2
 64 177.700195312 49.7001953125 192 32 192 c 0
 14.2998046875 192 0 177.700195312 0 160 c 2
 0 128 l 2
 0 39.599609375 71.599609375 -32 160 -32 c 0
 248.400390625 -32 320 39.599609375 320 128 c 2
 320 384 l 2
 320 401.700195312 305.700195312 416 288 416 c 0
EndSplineSet
Validated: 524297
EndChar

StartChar: k
Encoding: 75 75 35
AltUni2: 00006b.ffffffff.0 00006b.ffffffff.0
Width: 320
GlyphClass: 1
Flags: W
LayerCount: 2
Fore
SplineSet
311 361.700195312 m 2
 174.098632812 220.600585938 l 1
 314.298828125 18.1005859375 l 2
 324.298828125 3.6005859375 320.69921875 -16.3994140625 306.19921875 -26.3994140625 c 0
 291.69921875 -36.3994140625 271.798828125 -32.7998046875 261.69921875 -18.2998046875 c 2
 128.69921875 173.700195312 l 1
 63.9990234375 107 l 1
 63.9990234375 0 l 2
 63.9990234375 -17.7001953125 49.69921875 -32 31.9990234375 -32 c 0
 14.298828125 -32 -0.0009765625 -17.7001953125 -0.0009765625 0 c 2
 -0.0009765625 120 l 1
 -0.0009765625 384 l 2
 -0.0009765625 401.700195312 14.298828125 416 31.9990234375 416 c 0
 49.69921875 416 63.9990234375 401.700195312 63.9990234375 384 c 2
 63.9990234375 199 l 1
 109.899414062 246.200195312 l 1
 265.099609375 406.200195312 l 2
 277.399414062 418.900390625 297.599609375 419.200195312 310.299804688 406.900390625 c 0
 323 394.600585938 323.299804688 374.400390625 311 361.700195312 c 2
EndSplineSet
Validated: 524321
EndChar

StartChar: l
Encoding: 76 76 36
AltUni2: 00006c.ffffffff.0 00006c.ffffffff.0
Width: 320
GlyphClass: 1
Flags: W
LayerCount: 2
Fore
SplineSet
64 416 m 0
 46.2998046875 416 32 401.700195312 32 384 c 2
 32 0 l 2
 32 -17.7001953125 46.2998046875 -32 64 -32 c 2
 288 -32 l 2
 305.700195312 -32 320 -17.7001953125 320 0 c 0
 320 17.7001953125 305.700195312 32 288 32 c 2
 96 32 l 1
 96 384 l 2
 96 401.700195312 81.7001953125 416 64 416 c 0
EndSplineSet
Validated: 524297
EndChar

StartChar: m
Encoding: 77 77 37
AltUni2: 00006d.ffffffff.0 00006d.ffffffff.0
Width: 448
GlyphClass: 1
Flags: W
LayerCount: 2
Fore
SplineSet
0 0 m 1
 64 0 l 1
 64 -17.7001953125 49.7001953125 -32 32 -32 c 0
 14.2998046875 -32 0 -17.7001953125 0 0 c 1
32 384 m 1
 0 384.000976562 l 1
 0 398.100585938 9.2001953125 410.600585938 22.7001953125 414.700195312 c 0
 36.2001953125 418.799804688 50.7998046875 413.5 58.599609375 401.799804688 c 1
 32 384 l 1
197.400390625 78.201171875 m 1
 224 96.0009765625 l 1
 250.6015625 78.201171875 l 1
 244.701171875 69.30078125 234.701171875 64.0009765625 224.000976562 64.0009765625 c 0
 213.30078125 64.0009765625 203.30078125 69.30078125 197.400390625 78.201171875 c 1
416.001953125 384.000976562 m 1
 389.40234375 401.700195312 l 1
 397.202148438 413.5 411.801757812 418.700195312 425.301757812 414.600585938 c 0
 438.801757812 410.500976562 448.001953125 398.100585938 448.001953125 384.000976562 c 1
 416.001953125 384.000976562 l 1
384.001953125 0 m 1
 448.001953125 0 l 1
 448.001953125 -17.7001953125 433.702148438 -32 416.001953125 -32 c 0
 398.301757812 -32 384.001953125 -17.7001953125 384.001953125 0 c 1
64.001953125 0 m 1
 0.001953125 0 l 1
 0.001953125 384 l 1
 64.001953125 384 l 1
 64.001953125 0 l 1
5.40234375 366.200195312 m 1
 58.7021484375 401.700195312 l 1
 250.702148438 113.700195312 l 1
 197.40234375 78.2001953125 l 1
 5.40234375 366.200195312 l 1
250.702148438 78.2001953125 m 1
 250.702148438 78.2998046875 l 1
 197.40234375 113.799804688 l 1
 389.40234375 401.799804688 l 1
 442.702148438 366.200195312 l 1
 250.702148438 78.2001953125 l 1
384.001953125 384 m 1
 448.001953125 384 l 1
 448.001953125 0 l 1
 384.001953125 0 l 1
 384.001953125 0 250.702148438 78.2001953125 384.001953125 384 c 1
EndSplineSet
Validated: 524325
EndChar

StartChar: n
Encoding: 78 78 38
AltUni2: 00006e.ffffffff.0 00006e.ffffffff.0
Width: 384
GlyphClass: 1
Flags: W
LayerCount: 2
Fore
SplineSet
0 0 m 1
 64 0 l 1
 64 -17.7001953125 49.7001953125 -32 32 -32 c 0
 14.2998046875 -32 0 -17.7001953125 0 0 c 1
32 384 m 1
 -0.0009765625 384.000976562 l 1
 -0.0009765625 397.500976562 8.3994140625 409.500976562 21.099609375 414.100585938 c 0
 33.7998046875 418.700195312 48 414.799804688 56.599609375 404.5 c 1
 32 384 l 1
351.999023438 0.0009765625 m 1
 384 0 l 1
 384 -13.5 375.599609375 -25.5 362.899414062 -30.099609375 c 0
 350.19921875 -34.69921875 335.999023438 -30.798828125 327.399414062 -20.4990234375 c 1
 351.999023438 0.0009765625 l 1
384 384 m 1
 320 384 l 1
 320 401.700195312 334.299804688 416 352 416 c 0
 369.700195312 416 384 401.700195312 384 384 c 1
64 0 m 1
 0 0 l 1
 0 384 l 1
 64 384 l 1
 64 0 l 1
7.400390625 363.5 m 1
 56.6005859375 404.5 l 1
 376.600585938 20.5 l 1
 327.400390625 -20.5 l 1
 7.400390625 363.5 l 1
384 0 m 1
 320 0 l 1
 320 384 l 1
 384 384 l 1
 384 0 l 1
EndSplineSet
Validated: 524325
EndChar

StartChar: o
Encoding: 79 79 39
AltUni2: 00006f.ffffffff.0 00006f.ffffffff.0
Width: 448
GlyphClass: 1
Flags: W
LayerCount: 2
Fore
SplineSet
224 352 m 0
 312.400390625 352 384 280.400390625 384 192 c 0
 384 103.599609375 312.400390625 32 224 32 c 0
 135.599609375 32 64 103.599609375 64 192 c 0
 64 280.400390625 135.599609375 352 224 352 c 0
0 192 m 0
 0 68.2998046875 100.299804688 -32 224 -32 c 0
 347.700195312 -32 448 68.2998046875 448 192 c 0
 448 315.700195312 347.700195312 416 224 416 c 0
 100.299804688 416 0 315.700195312 0 192 c 0
EndSplineSet
Validated: 524297
EndChar

StartChar: p
Encoding: 80 80 40
AltUni2: 000070.ffffffff.0 000070.ffffffff.0
Width: 320
GlyphClass: 1
Flags: W
LayerCount: 2
Fore
SplineSet
32 416 m 2
 14.2998046875 416 0 401.700195312 0 384 c 2
 0 160 l 1
 0 128 l 1
 0 96 l 1
 0 0 l 2
 0 -17.7001953125 14.2998046875 -32 32 -32 c 0
 49.7001953125 -32 64 -17.7001953125 64 0 c 2
 64 96 l 1
 160 96 l 2
 248.400390625 96 320 167.599609375 320 256 c 0
 320 344.400390625 248.400390625 416 160 416 c 2
 64 416 l 1
 32 416 l 2
64 160 m 1
 64 352 l 1
 160 352 l 2
 213 352 256 309 256 256 c 0
 256 203 213 160 160 160 c 2
 64 160 l 1
EndSplineSet
Validated: 524297
EndChar

StartChar: q
Encoding: 81 81 41
AltUni2: 000071.ffffffff.0 000071.ffffffff.0
Width: 512
GlyphClass: 1
Flags: W
LayerCount: 2
Fore
SplineSet
96 192 m 0
 96 280.400390625 167.599609375 352.000976562 256 352.000976562 c 0
 344.400390625 352.000976562 416 280.401367188 416 192.000976562 c 0
 416 155.701171875 403.900390625 122.201171875 383.5 95.4013671875 c 1
 312.599609375 180.500976562 l 2
 301.299804688 194.100585938 281.099609375 195.900390625 267.5 184.600585938 c 0
 253.900390625 173.30078125 252.100585938 153.100585938 263.400390625 139.500976562 c 2
 335.400390625 53.1005859375 l 1
 312 39.7001953125 284.900390625 32 256 32 c 0
 167.599609375 32 96 103.599609375 96 192 c 0
376.900390625 3.4013671875 m 1
 376.801757812 3.40234375 l 1
 423.401367188 -52.498046875 l 2
 434.701171875 -66.09765625 454.901367188 -67.8974609375 468.500976562 -56.59765625 c 0
 482.100585938 -45.2978515625 483.900390625 -25.09765625 472.600585938 -11.498046875 c 2
 425.30078125 45.3017578125 l 1
 459.400390625 84.6015625 480 135.901367188 480 192.000976562 c 0
 480 315.701171875 379.700195312 416.000976562 256 416.000976562 c 0
 132.299804688 416.000976562 32 315.701171875 32 192.000976562 c 0
 32 68.30078125 132.299804688 -31.9990234375 256 -31.9990234375 c 0
 300.5 -31.9990234375 342 -18.9990234375 376.900390625 3.4013671875 c 1
376.901367188 3.40234375 m 1024
EndSplineSet
Validated: 524325
EndChar

StartChar: r
Encoding: 82 82 42
AltUni2: 000072.ffffffff.0 000072.ffffffff.0
Width: 320
GlyphClass: 1
Flags: W
LayerCount: 2
Fore
SplineSet
32 416 m 2
 176 416 l 2
 255.5 416 320 351.5 320 272 c 0
 320 211.599609375 282.799804688 159.899414062 230.099609375 138.499023438 c 1
 314.299804688 18.298828125 l 2
 324.399414062 3.798828125 320.899414062 -16.201171875 306.399414062 -26.30078125 c 0
 291.899414062 -36.400390625 271.899414062 -32.900390625 261.799804688 -18.400390625 c 2
 159.299804688 128 l 1
 64 128 l 1
 64 0 l 2
 64 -17.7001953125 49.7001953125 -32 32 -32 c 0
 14.2998046875 -32 0 -17.7001953125 0 0 c 2
 0 160 l 1
 0 384 l 2
 0 401.700195312 14.2998046875 416 32 416 c 2
176 192 m 2
 220.200195312 192 256 227.799804688 256 272 c 0
 256 316.200195312 220.200195312 352 176 352 c 2
 64 352 l 1
 64 192 l 1
 176 192 l 2
EndSplineSet
Validated: 524321
EndChar

StartChar: s
Encoding: 83 83 43
AltUni2: 000073.ffffffff.0 000073.ffffffff.0
Width: 384
GlyphClass: 1
Flags: W
LayerCount: 2
Fore
SplineSet
131.099609375 342.599609375 m 1
 131 342.502929688 l 1
 152.099609375 351.502929688 182.69921875 354.802734375 219.599609375 349.002929688 c 1
 224.5 380.502929688 l 1
 219.599609375 349.002929688 l 1
 231.5 347.203125 268.5 340.002929688 279.700195312 337.002929688 c 0
 296.700195312 332.502929688 314.299804688 342.602539062 318.799804688 359.702148438 c 0
 323.299804688 376.801757812 313.200195312 394.401367188 296.100585938 398.901367188 c 0
 281.900390625 402.701171875 242.5 410.30078125 229.5 412.30078125 c 0
 184.900390625 419.30078125 141.200195312 416.600585938 105.799804688 401.400390625 c 0
 69.2998046875 385.80078125 41.2998046875 356.600585938 34 314.100585938 c 1
 65.5 308.600585938 l 1
 34 314.100585938 l 1
 29.7998046875 289.80078125 31.7998046875 267.600585938 40.599609375 247.80078125 c 0
 49.2998046875 228.201171875 63.5 213.6015625 79.2001953125 202.701171875 c 0
 108.100585938 182.6015625 147.400390625 171.301757812 180.100585938 162.001953125 c 0
 181.100585938 161.801757812 182.000976562 161.501953125 183.000976562 161.202148438 c 0
 219.600585938 150.801757812 248.700195312 142.1015625 267.900390625 128.701171875 c 0
 276.700195312 122.500976562 281.799804688 116.401367188 284.599609375 110.1015625 c 0
 287.299804688 103.901367188 289 94.8017578125 286.599609375 80.7021484375 c 0
 283.5 63.1025390625 272.799804688 49.90234375 252.700195312 41.302734375 c 0
 231.700195312 32.302734375 201 29.1025390625 164.200195312 34.802734375 c 0
 146.200195312 37.703125 115.200195312 48.302734375 89.7998046875 56.90234375 c 0
 84.099609375 58.90234375 78.7998046875 60.7021484375 73.8994140625 62.3017578125 c 0
 57.099609375 67.8017578125 38.8994140625 58.8017578125 33.3994140625 42.001953125 c 0
 27.8994140625 25.2021484375 36.8994140625 7.1025390625 53.69921875 1.5029296875 c 0
 57.298828125 0.302734375 61.69921875 -1.09765625 66.4990234375 -2.7978515625 c 0
 91.3994140625 -11.2978515625 130.099609375 -24.498046875 154.099609375 -28.3984375 c 1
 154.099609375 -28.3984375 l 1
 154.299804688 -28.3984375 l 1
 198.899414062 -35.3984375 242.599609375 -32.6982421875 278 -17.498046875 c 0
 314.5 -1.8984375 342.5 27.3017578125 349.799804688 69.8017578125 c 0
 354 94.1015625 352 116.301757812 343.200195312 136.1015625 c 0
 334.5 155.701171875 320.299804688 170.30078125 304.599609375 181.201171875 c 0
 275.69921875 201.30078125 236.399414062 212.600585938 203.69921875 221.900390625 c 0
 202.69921875 222.100585938 201.798828125 222.400390625 200.798828125 222.700195312 c 0
 164.19921875 233.100585938 135.099609375 241.80078125 115.899414062 255.201171875 c 0
 107.099609375 261.401367188 102 267.500976562 99.2001953125 273.80078125 c 0
 96.5 280.000976562 94.7998046875 289.100585938 97.2001953125 303.200195312 c 0
 100.299804688 320.799804688 111 334 131.099609375 342.599609375 c 1
131.099609375 342.602539062 m 1024
EndSplineSet
Validated: 524325
EndChar

StartChar: t
Encoding: 84 84 44
AltUni2: 000074.ffffffff.0 000074.ffffffff.0
Width: 384
GlyphClass: 1
Flags: W
LayerCount: 2
Fore
SplineSet
32 416 m 2
 192 416 l 1
 352 416 l 2
 369.700195312 416 384 401.700195312 384 384 c 0
 384 366.299804688 369.700195312 352 352 352 c 2
 224 352 l 1
 224 0 l 2
 224 -17.7001953125 209.700195312 -32 192 -32 c 0
 174.299804688 -32 160 -17.7001953125 160 0 c 2
 160 352 l 1
 32 352 l 2
 14.2998046875 352 0 366.299804688 0 384 c 0
 0 401.700195312 14.2998046875 416 32 416 c 2
EndSplineSet
Validated: 524289
EndChar

StartChar: u
Encoding: 85 85 45
AltUni2: 000075.ffffffff.0 000075.ffffffff.0
Width: 384
GlyphClass: 1
Flags: W
LayerCount: 2
Fore
SplineSet
32 416 m 0
 14.2998046875 416 0 401.700195312 0 384 c 2
 0 160 l 2
 0 54 86 -32 192 -32 c 0
 298 -32 384 54 384 160 c 2
 384 384 l 2
 384 401.700195312 369.700195312 416 352 416 c 0
 334.299804688 416 320 401.700195312 320 384 c 2
 320 160 l 2
 320 89.2998046875 262.700195312 32 192 32 c 0
 121.299804688 32 64 89.2998046875 64 160 c 2
 64 384 l 2
 64 401.700195312 49.7001953125 416 32 416 c 0
EndSplineSet
Validated: 524297
EndChar

StartChar: v
Encoding: 86 86 46
AltUni2: 000076.ffffffff.0 000076.ffffffff.0
Width: 448
GlyphClass: 1
Flags: W
LayerCount: 2
Fore
SplineSet
51.7001953125 413.5 m 0
 35.400390625 406.700195312 27.69921875 388 34.4990234375 371.700195312 c 2
 194.499023438 -12.2998046875 l 2
 199.399414062 -24.2001953125 211.099609375 -32 224 -32 c 0
 236.900390625 -32 248.5 -24.2001953125 253.5 -12.2998046875 c 2
 413.5 371.700195312 l 2
 420.299804688 388 412.599609375 406.700195312 396.299804688 413.5 c 0
 380 420.299804688 361.299804688 412.599609375 354.5 396.299804688 c 2
 224 83.2001953125 l 1
 93.5 396.299804688 l 2
 86.7001953125 412.599609375 68 420.299804688 51.7001953125 413.5 c 0
51.69921875 413.5 m 1024
EndSplineSet
Validated: 524329
EndChar

StartChar: w
Encoding: 87 87 47
AltUni2: 000077.ffffffff.0 000077.ffffffff.0
Width: 576
GlyphClass: 1
Flags: W
LayerCount: 2
Fore
SplineSet
20.7998046875 414 m 0
 4.2001953125 407.799804688 -4.201171875 389.298828125 1.9990234375 372.798828125 c 2
 145.999023438 -11.30078125 l 2
 150.899414062 -24.201171875 163.499023438 -32.5009765625 177.19921875 -32.0009765625 c 0
 190.899414062 -31.5009765625 202.799804688 -22.201171875 206.700195312 -9.0009765625 c 2
 288 269.69921875 l 1
 369.200195312 -9.0009765625 l 2
 373 -22.201171875 384.900390625 -31.4013671875 398.700195312 -32.0009765625 c 0
 412.5 -32.6005859375 425.099609375 -24.2001953125 429.899414062 -11.2998046875 c 2
 573.899414062 372.700195312 l 2
 580.099609375 389.200195312 571.799804688 407.700195312 555.200195312 413.900390625 c 0
 538.600585938 420.100585938 520.200195312 411.700195312 514 395.200195312 c 2
 403.799804688 101.299804688 l 1
 318.700195312 393 l 2
 314.700195312 406.599609375 302.200195312 416 288 416 c 0
 273.799804688 416 261.299804688 406.700195312 257.299804688 393 c 2
 172.200195312 101.299804688 l 1
 62 395.299804688 l 2
 55.7998046875 411.799804688 37.2998046875 420.200195312 20.7998046875 414 c 0
EndSplineSet
Validated: 524329
EndChar

StartChar: x
Encoding: 88 88 48
AltUni2: 000078.ffffffff.0 000078.ffffffff.0
Width: 384
GlyphClass: 1
Flags: W
LayerCount: 2
Fore
SplineSet
376.599609375 363.5 m 2
 233.69921875 192 l 1
 376.599609375 20.5 l 2
 387.899414062 6.900390625 386.099609375 -13.2998046875 372.5 -24.599609375 c 0
 358.900390625 -35.8994140625 338.700195312 -34.099609375 327.400390625 -20.5 c 2
 192 142 l 1
 56.599609375 -20.5 l 2
 45.2998046875 -34.099609375 25.099609375 -35.8994140625 11.5 -24.599609375 c 0
 -2.099609375 -13.2998046875 -3.8994140625 6.900390625 7.400390625 20.5 c 2
 150.30078125 192 l 1
 7.400390625 363.5 l 2
 -3.8994140625 377.099609375 -2.099609375 397.299804688 11.5 408.599609375 c 0
 25.099609375 419.899414062 45.2998046875 418.099609375 56.599609375 404.5 c 2
 192 242 l 1
 327.400390625 404.5 l 2
 338.700195312 418.099609375 358.900390625 419.899414062 372.5 408.599609375 c 0
 386.099609375 397.299804688 387.899414062 377.099609375 376.599609375 363.5 c 2
EndSplineSet
Validated: 524321
EndChar

StartChar: y
Encoding: 89 89 49
AltUni2: 000079.ffffffff.0 000079.ffffffff.0
Width: 384
GlyphClass: 1
Flags: W
LayerCount: 2
Fore
SplineSet
58 402.599609375 m 2
 191.999023438 215.099609375 l 1
 325.999023438 402.599609375 l 2
 336.19921875 417 356.298828125 420.200195312 370.598632812 410 c 0
 384.8984375 399.799804688 388.298828125 379.799804688 377.999023438 365.399414062 c 2
 223.999023438 149.69921875 l 1
 223.999023438 -0.0009765625 l 2
 223.999023438 -17.701171875 209.69921875 -32.0009765625 191.999023438 -32.0009765625 c 0
 174.298828125 -32.0009765625 159.999023438 -17.701171875 159.999023438 -0.0009765625 c 2
 159.999023438 149.69921875 l 1
 5.9990234375 365.399414062 l 2
 -4.30078125 379.799804688 -1.0009765625 399.700195312 13.3994140625 410 c 0
 27.7998046875 420.299804688 47.7998046875 417 58 402.599609375 c 2
EndSplineSet
Validated: 524321
EndChar

StartChar: z
Encoding: 90 90 50
AltUni2: 00007a.ffffffff.0 00007a.ffffffff.0
Width: 384
GlyphClass: 1
Flags: W
LayerCount: 2
Fore
SplineSet
0 384 m 0
 0 366.299804688 14.2998046875 352 32 352 c 2
 283.700195312 352 l 1
 7.400390625 20.5 l 2
 -0.599609375 10.900390625 -2.2998046875 -2.3994140625 3 -13.599609375 c 0
 8.2998046875 -24.7998046875 19.599609375 -32 32 -32 c 2
 352 -32 l 2
 369.700195312 -32 384 -17.7001953125 384 0 c 0
 384 17.7001953125 369.700195312 32 352 32 c 2
 100.299804688 32 l 1
 376.599609375 363.5 l 2
 384.599609375 373.099609375 386.299804688 386.399414062 381 397.599609375 c 0
 375.700195312 408.799804688 364.400390625 416 352 416 c 2
 32 416 l 2
 14.2998046875 416 0 401.700195312 0 384 c 0
EndSplineSet
Validated: 524329
EndChar

StartChar: firefox-browser
Encoding: 57351 57351 51
Width: 512
GlyphClass: 1
Flags: W
LayerCount: 2
Fore
SplineSet
130.219726562 320.452148438 m 1
 130.299804688 320.442382812 130.379882812 320.442382812 130.219726562 320.452148438 c 1
481.639648438 275.102539062 m 0
 481.639648438 274.180664062 507.921875 219.809570312 496.349609375 143.11328125 c 0
 478.938476562 27.720703125 376.559570312 -59.505859375 255.919921875 -59.505859375 c 0
 121.209960938 -59.505859375 12 49.6845703125 12 184.384765625 c 0
 12 192.263671875 14.2236328125 216.301757812 18.759765625 236.684570312 c 0
 30.1279296875 287.760742188 57.96875 321.314453125 74.259765625 337.9140625 c 0
 81.552734375 345.452148438 89.5341796875 352.291992188 98.099609375 358.344726562 c 0
 99.021484375 358.986328125 106.129882812 363.184570312 106.25 362.654296875 c 0
 105.6796875 354.224609375 105.009765625 313.82421875 114.6796875 301.57421875 c 1
 114.799804688 301.57421875 l 1
 128.959960938 317.494140625 148.450195312 335.534179688 173.509765625 346.944335938 c 1
 168.3984375 327.364257812 168.637695312 306.771484375 174.201171875 287.314453125 c 0
 176.392578125 285.844726562 178.5 284.252929688 180.51171875 282.544921875 c 0
 184.229492188 279.391601562 188.434570312 275.197265625 197.28125 266.484375 c 0
 213.8359375 250.180664062 256.28125 233.3046875 256.37109375 231.3046875 c 0
 255.970703125 225.224609375 234.541015625 204.3046875 227.041015625 204.3046875 c 0
 157.670898438 204.3046875 146.420898438 162.354492188 146.420898438 162.354492188 c 1
 149.880859375 122.53515625 187.487304688 74.1640625 246.951171875 71.5537109375 c 0
 368.541015625 66.2177734375 392.081054688 216.893554688 304.340820312 260.75390625 c 1
 326.810546875 264.6640625 350.16015625 255.624023438 363.16015625 246.473632812 c 1
 352.697265625 264.739257812 318.368164062 309.33203125 255.540039062 308.762695312 c 0
 238.407226562 308.607421875 221.509765625 304.745117188 206.009765625 297.442382812 c 2
 205.490234375 297.232421875 l 2
 204.674804688 296.955078125 203.809570312 296.852539062 202.952148438 296.9296875 c 0
 202.09375 297.0078125 201.26171875 297.263671875 200.509765625 297.682617188 c 0
 199.7578125 298.1015625 199.100585938 298.673828125 198.583984375 299.362304688 c 0
 198.06640625 300.05078125 197.698242188 300.83984375 197.50390625 301.678710938 c 0
 197.197265625 303.131835938 197.39453125 304.645507812 198.064453125 305.970703125 c 0
 198.734375 307.295898438 199.8359375 308.352539062 201.1875 308.966796875 c 0
 216.216796875 316.106445312 232.500976562 320.23046875 249.118164062 321.103515625 c 1
 256.36328125 365.47265625 284.98828125 417.890625 331.698242188 443.84375 c 2
 331.818359375 443.9140625 l 2
 333.974609375 444.484375 329.90625 442.944335938 344.8984375 419.25390625 c 0
 383.096679688 358.892578125 429.869140625 331.173828125 457.44921875 262.423828125 c 1
 457.420898438 262.55859375 457.404296875 262.6953125 457.399414062 262.833007812 c 0
 454.369140625 282.953125 446.418945312 309.943359375 432.69921875 336.833007812 c 1
 449.559570312 328.102539062 471.029296875 300.602539062 481.639648438 275.102539062 c 0
EndSplineSet
Validated: 524833
Ligature2: "'liga' Ligaduras est+AOEA-ndar en Latin b+APoA-squeda 0 subtabla" f i r e f o x hyphen b r o w s e r
EndChar

StartChar: ideal
Encoding: 57363 57363 52
Width: 576
GlyphClass: 1
Flags: W
LayerCount: 2
Fore
SplineSet
125.610351562 282.51953125 m 0
 152.701171875 282.508789062 174.66015625 260.55078125 174.670898438 233.459960938 c 0
 174.672851562 224.83984375 172.403320312 216.37109375 168.091796875 208.90625 c 0
 149.198242188 176.197265625 101.98046875 176.20703125 83.099609375 208.923828125 c 0
 64.21875 241.640625 87.8359375 282.52734375 125.610351562 282.51953125 c 0
86.1513671875 22.1591796875 m 1
 86.1513671875 162.678710938 l 1
 165.091796875 162.678710938 l 1
 165.091796875 22.1591796875 l 1
 86.1513671875 22.1591796875 l 1
218.87109375 256.2890625 m 2
 227.611328125 256.2890625 237.611328125 253.758789062 237.611328125 233.758789062 c 0
 237.611328125 213.30859375 228.62109375 210.499023438 218.87109375 210.499023438 c 2
 204.821289062 210.499023438 l 1
 204.821289062 256.2890625 l 1
 218.87109375 256.2890625 l 2
439.301757812 187.758789062 m 1
 237.611328125 233.758789062 496.392578125 187.758789062 496.392578125 187.758789062 c 1
 494.612304688 89.2783203125 444.282226562 22.1181640625 299.671875 22.1181640625 c 2
 204.841796875 22.1181640625 l 1
 204.841796875 187.73828125 l 1
 218.841796875 187.73828125 l 2
 244.822265625 187.73828125 260.341796875 204.928710938 260.341796875 233.73828125 c 0
 260.341796875 261.6484375 244.44140625 278.998046875 218.841796875 278.998046875 c 2
 204.841796875 278.998046875 l 1
 204.841796875 361.807617188 l 1
 299.671875 361.807617188 l 2
 388.612304688 361.807617188 486.501953125 334.91796875 495.7421875 210.498046875 c 1
 462.051757812 210.498046875 l 1
 462.051757812 279.068359375 l 1
 439.301757812 279.068359375 l 1
 439.301757812 279.068359375 237.611328125 233.758789062 439.301757812 187.758789062 c 1
329.552734375 187.758789062 m 1
 439.302734375 187.758789062 329.51171875 210.499023438 329.51171875 210.499023438 c 1
 296.001953125 210.499023438 l 1
 296.001953125 222.999023438 l 1
 326.001953125 222.999023438 l 1
 326.001953125 245.689453125 l 1
 296.001953125 245.689453125 l 1
 296.001953125 256.26953125 l 1
 327.732421875 256.26953125 l 1
 327.732421875 278.999023438 l 1
 273.302734375 278.999023438 l 1
 273.302734375 187.758789062 l 1
 273.302734375 187.758789062 439.302734375 187.758789062 329.552734375 187.758789062 c 1
404.211914062 187.758789062 m 1
 329.551757812 187.758789062 427.881835938 187.739257812 427.881835938 187.739257812 c 1
 400.3515625 279.079101562 l 1
 368.001953125 279.079101562 l 1
 340.471679688 187.758789062 l 1
 364.131835938 187.758789062 l 1
 369.311523438 205.428710938 l 1
 399.051757812 205.428710938 l 1
 399.051757812 205.428710938 329.551757812 187.758789062 404.211914062 187.758789062 c 1
299.65234375 416 m 1
 518.001953125 416 550.622070312 276.000976562 550.65234375 192.520507812 c 0
 550.65234375 47.73046875 461.501953125 -32 299.65234375 -32 c 2
 32.001953125 -32 l 1
 32.001953125 416 l 1
 32.001953125 416 404.211914062 187.759765625 299.65234375 416 c 1
299.65234375 -10.9189453125 m 2
 448.552734375 -10.9189453125 529.551757812 58.4306640625 529.551757812 192.520507812 c 0
 529.551757812 330.3203125 441.751953125 394.930664062 299.65234375 394.930664062 c 2
 53.072265625 394.930664062 l 1
 53.072265625 -10.9189453125 l 1
 299.65234375 -10.9189453125 l 2
383.51171875 253.930664062 m 1
 384.8828125 253.930664062 l 1
 392.40234375 228.12109375 l 1
 376.001953125 228.12109375 l 1
 383.51171875 253.930664062 l 1
383.512695312 253.930664062 m 1024
EndSplineSet
Validated: 524325
Ligature2: "'liga' Ligaduras est+AOEA-ndar en Latin b+APoA-squeda 0 subtabla" i d e a l
EndChar

StartChar: microblog
Encoding: 57370 57370 53
Width: 448
GlyphClass: 1
Flags: W
LayerCount: 2
Fore
SplineSet
399.360351562 85.76953125 m 1
 399.513671875 85.83203125 l 1
 371.924804688 54.583984375 370.376953125 8.158203125 395.823242188 -24.8583984375 c 0
 396.631835938 -25.8779296875 396.943359375 -27.205078125 396.673828125 -28.478515625 c 0
 396.177734375 -30.8662109375 393.841796875 -32.4013671875 391.453125 -31.9091796875 c 0
 359.172851562 -24.7294921875 330.142578125 -7.0791015625 311.5625 18.0107421875 c 0
 309.708007812 20.5498046875 306.416992188 21.5869140625 303.44140625 20.5703125 c 0
 277.911132812 11.6328125 251.05078125 7.0888671875 224.000976562 7.130859375 c 0
 101.140625 7.130859375 1.541015625 98.6103515625 1.541015625 211.560546875 c 0
 1.541015625 324.510742188 101.140625 416.000976562 224.000976562 416.000976562 c 0
 346.861328125 416.000976562 446.4609375 324.510742188 446.4609375 211.560546875 c 0
 446.4609375 164.110351562 428.850585938 120.459960938 399.360351562 85.76953125 c 1
329.5234375 235.602539062 m 0
 330.201171875 236.116210938 330.775390625 236.73046875 331.206054688 237.46484375 c 0
 333.73828125 241.780273438 330.649414062 247.21875 325.645507812 247.25390625 c 2
 253.765625 248.763671875 l 1
 230.10546875 316.68359375 l 2
 229.8359375 317.459960938 229.420898438 318.178710938 228.8828125 318.80078125 c 0
 225.610351562 322.5859375 219.467773438 321.409179688 217.825195312 316.682617188 c 2
 194.165039062 248.762695312 l 1
 122.28515625 247.252929688 l 2
 121.459960938 247.237304688 120.645507812 247.064453125 119.884765625 246.744140625 c 0
 115.2734375 244.80078125 114.495117188 238.594726562 118.483398438 235.573242188 c 2
 175.783203125 192.083007812 l 1
 154.993164062 123.22265625 l 2
 154.7578125 122.439453125 154.671875 121.618164062 154.740234375 120.802734375 c 0
 155.16015625 115.80859375 160.828125 113.141601562 164.943359375 116.001953125 c 2
 224.002929688 157.08203125 l 1
 283.0625 116.032226562 l 2
 283.741210938 115.55859375 284.504882812 115.21875 285.311523438 115.03125 c 0
 290.185546875 113.897460938 294.458984375 118.46484375 293.00390625 123.251953125 c 2
 272.223632812 192.112304688 l 1
 272.223632812 192.112304688 399.36328125 85.7724609375 329.5234375 235.602539062 c 0
329.52734375 235.604492188 m 1024
EndSplineSet
Validated: 524321
Ligature2: "'liga' Ligaduras est+AOEA-ndar en Latin b+APoA-squeda 0 subtabla" m i c r o b l o g
EndChar

StartChar: square-pied-piper
Encoding: 57374 57374 54
Width: 448
GlyphClass: 1
Flags: W
LayerCount: 2
Fore
SplineSet
32 29 m 1
 82.599609375 110 122.700195312 165.999023438 193.299804688 247.399414062 c 0
 257.299804688 321.799804688 354.200195312 387.099609375 447.200195312 416 c 1
 120 416 l 2
 54 416 0.7998046875 362.700195312 0.7998046875 296.799804688 c 2
 0 -31.2001953125 l 1
 32 29 l 1
448.000976562 415.999023438 m 1
 448.000976562 415.999023438 448.000976562 87.2001953125 448.100585938 87.2001953125 c 1
 448.100585938 21.2998046875 394.80078125 -32 328.80078125 -32 c 2
 0.400390625 -32 l 1
 18.900390625 -6.5 62.1005859375 22 85.30078125 34 c 0
 120.80078125 52.099609375 161.701171875 62.5 190.6015625 90.2998046875 c 0
 232.701171875 130.799804688 238.401367188 195.299804688 261.6015625 248.899414062 c 0
 305.201171875 349.19921875 448.000976562 415.999023438 448.000976562 415.999023438 c 1
448.000976562 416 m 1024
EndSplineSet
Validated: 524809
Ligature2: "'liga' Ligaduras est+AOEA-ndar en Latin b+APoA-squeda 0 subtabla" s q u a r e hyphen p i e d hyphen p i p e r
Ligature2: "'liga' Ligaduras est+AOEA-ndar en Latin b+APoA-squeda 0 subtabla" p i e d hyphen p i p e r hyphen s q u a r e
EndChar

StartChar: unity
Encoding: 57417 57417 55
Width: 448
GlyphClass: 1
Flags: MW
VStem: 409.498 25.625<120.499 332.8 120.499 120.499>
LayerCount: 2
Fore
SplineSet
191.897460938 358.400390625 m 2
 188.372070312 358.399414062 185.17578125 356.971679688 182.860351562 354.662109375 c 1
 182.862304688 354.661132812 131.814453125 303.616210938 131.814453125 303.616210938 c 2
 119.245117188 291.533203125 137.830078125 272.947265625 149.9140625 285.516601562 c 2
 197.197265625 332.799804688 l 1
 409.498046875 332.799804688 l 1
 409.498046875 120.499023438 l 1
 340.198242188 51.2001953125 l 1
 128 51.2001953125 l 1
 128.102539062 128.1796875 l 1
 102.501953125 128.23046875 l 1
 102.323242188 38.400390625 l 2
 102.323242188 31.3359375 108.05859375 25.599609375 115.123046875 25.599609375 c 2
 345.5234375 25.599609375 l 2
 349.061523438 25.6005859375 352.268554688 27.0380859375 354.5859375 29.36328125 c 0
 354.583984375 29.365234375 431.385742188 106.163085938 431.385742188 106.163085938 c 2
 433.6953125 108.478515625 435.122070312 111.674804688 435.123046875 115.200195312 c 1
 435.125 115.198242188 435.123046875 345.599609375 435.123046875 345.599609375 c 2
 435.123046875 352.6640625 429.387695312 358.400390625 422.323242188 358.400390625 c 2
 191.897460938 358.400390625 l 2
89.6513671875 256.153320312 m 2
 82.5869140625 256.153320312 76.8515625 250.41796875 76.8515625 243.353515625 c 2
 76.8515625 166.553710938 l 2
 76.8515625 159.489257812 82.5869140625 153.75390625 89.6513671875 153.75390625 c 2
 166.451171875 153.75390625 l 2
 173.515625 153.75390625 179.250976562 159.489257812 179.250976562 166.553710938 c 2
 179.250976562 243.353515625 l 2
 179.250976562 250.41796875 173.515625 256.153320312 166.451171875 256.153320312 c 2
 89.6513671875 256.153320312 l 2
EndSplineSet
Validated: 524329
Ligature2: "'liga' Ligaduras est+AOEA-ndar en Latin b+APoA-squeda 0 subtabla" u n i t y
EndChar

StartChar: dailymotion
Encoding: 57426 57426 56
Width: 448
GlyphClass: 1
Flags: W
LayerCount: 2
Fore
SplineSet
298.9296875 181 m 0
 306.049804688 177.01171875 311.92578125 171.126953125 315.901367188 164 c 0
 319.947265625 156.842773438 322.049804688 148.751953125 322.000976562 140.530273438 c 0
 321.967773438 126.870117188 317.4140625 115.447265625 308.340820312 106.260742188 c 0
 299.267578125 97.07421875 287.897460938 92.48046875 274.23046875 92.48046875 c 0
 260.796875 92.48046875 249.653320312 96.9609375 240.799804688 105.920898438 c 0
 231.946289062 114.880859375 227.51953125 126.4140625 227.51953125 140.520507812 c 0
 227.51953125 153.954101562 232.056640625 165.09375 241.129882812 173.940429688 c 0
 250.203125 182.787109375 261.349609375 187.2109375 274.569335938 187.2109375 c 0
 283.094726562 187.322265625 291.498046875 185.1796875 298.9296875 181 c 0
0.001953125 416 m 1
 448.001953125 416 l 1
 448.001953125 -32 l 1
 0.001953125 -32 l 1
 0.001953125 416 l 1
374.711914062 42.740234375 m 1
 0.001953125 416 374.681640625 307.087890625 374.681640625 307.087890625 c 1
 318.891601562 294.998046875 l 1
 318.891601562 217.078125 l 1
 311.078125 224.938476562 302.745117188 230.60546875 293.891601562 234.079101562 c 0
 284.393554688 237.666992188 274.3046875 239.434570312 264.15234375 239.2890625 c 0
 246.458984375 239.282226562 230.552734375 234.916015625 216.432617188 226.189453125 c 0
 202.377929688 217.514648438 190.984375 205.134765625 183.502929688 190.409179688 c 0
 175.663085938 175.302734375 171.743164062 158.5625 171.743164062 140.189453125 c 0
 171.736328125 121.3828125 175.599609375 104.419921875 183.333007812 89.2998046875 c 0
 190.748046875 74.5283203125 202.161132812 62.134765625 216.272460938 53.529296875 c 0
 230.4921875 44.7958984375 246.7890625 40.4296875 265.162109375 40.4296875 c 0
 291.822265625 40.4296875 310.416015625 49.1630859375 320.942382812 66.6298828125 c 1
 321.612304688 66.6298828125 l 1
 321.612304688 42.740234375 l 1
 321.612304688 42.740234375 0.001953125 416 374.711914062 42.740234375 c 1
374.711914062 42.73828125 m 1024
EndSplineSet
Validated: 524325
Ligature2: "'liga' Ligaduras est+AOEA-ndar en Latin b+APoA-squeda 0 subtabla" d a i l y m o t i o n
EndChar

StartChar: square-instagram
Encoding: 57429 57429 57
Width: 448
GlyphClass: 1
Flags: W
LayerCount: 2
Fore
SplineSet
224 245.33984375 m 0
 253.458007812 245.329101562 277.336914062 221.455078125 277.359375 191.998046875 c 0
 277.359375 182.641601562 274.8984375 173.450195312 270.223632812 165.345703125 c 0
 249.706054688 129.778320312 198.379882812 129.758789062 177.8359375 165.311523438 c 0
 157.291992188 200.864257812 182.938476562 245.32421875 224 245.33984375 c 0
348.708007812 286.336914062 m 0
 357.057617188 265.266601562 355.176757812 215.276367188 355.176757812 191.99609375 c 0
 355.176757812 168.715820312 357.096679688 118.666015625 348.747070312 97.666015625 c 0
 343.2578125 83.755859375 332.247070312 72.7451171875 318.336914062 67.255859375 c 0
 297.27734375 58.8955078125 247.34765625 60.8251953125 224.038085938 60.8251953125 c 0
 200.728515625 60.8251953125 150.728515625 58.96484375 129.728515625 67.2548828125 c 0
 115.818359375 72.744140625 104.807617188 83.7548828125 99.318359375 97.6650390625 c 0
 90.998046875 118.735351562 92.84765625 168.725585938 92.84765625 192.005859375 c 0
 92.84765625 215.286132812 90.998046875 265.3359375 99.2783203125 286.3359375 c 0
 104.767578125 300.24609375 115.778320312 311.256835938 129.688476562 316.74609375 c 0
 150.748046875 325.106445312 200.698242188 323.176757812 223.998046875 323.176757812 c 0
 247.297851562 323.176757812 297.297851562 325.037109375 318.297851562 316.747070312 c 0
 332.208007812 311.2578125 343.21875 300.247070312 348.708007812 286.336914062 c 0
223.997070312 109.997070312 m 0
 269.307617188 109.94140625 306.051757812 146.686523438 305.99609375 191.997070312 c 0
 305.99609375 206.390625 302.20703125 220.53125 295.009765625 232.997070312 c 0
 263.448242188 287.6640625 184.543945312 287.6640625 152.982421875 232.997070312 c 0
 121.420898438 178.330078125 160.873046875 109.997070312 223.997070312 109.997070312 c 0
309.375976562 258.296875 m 0
 319.952148438 258.302734375 328.548828125 266.860351562 328.504882812 277.436523438 c 0
 328.504882812 280.799804688 327.619140625 284.103515625 325.936523438 287.015625 c 0
 318.5625 299.771484375 300.145507812 299.76171875 292.78515625 286.998046875 c 0
 285.424804688 274.234375 294.641601562 258.2890625 309.375976562 258.296875 c 0
399.994140625 415.99609375 m 1
 426.50390625 415.99609375 447.994140625 394.505859375 447.994140625 367.99609375 c 2
 447.994140625 15.99609375 l 2
 447.994140625 -10.513671875 426.50390625 -32.00390625 399.994140625 -32.00390625 c 2
 47.994140625 -32.00390625 l 2
 21.484375 -32.00390625 -0.005859375 -10.513671875 -0.005859375 15.99609375 c 2
 -0.005859375 367.99609375 l 2
 -0.005859375 394.505859375 21.484375 415.99609375 47.994140625 415.99609375 c 2
 47.994140625 415.99609375 309.374023438 258.295898438 399.994140625 415.99609375 c 1
382.874023438 125.99609375 m 0
 384.364257812 152.436523438 384.366210938 231.556640625 382.875976562 257.876953125 c 0
 381.65625 283.506835938 375.696289062 306.2265625 357.026367188 324.926757812 c 0
 338.356445312 343.626953125 315.65625 349.487304688 290.026367188 350.77734375 c 0
 263.616210938 352.267578125 184.436523438 352.267578125 158.026367188 350.77734375 c 0
 132.49609375 349.557617188 109.805664062 343.657226562 91.025390625 324.997070312 c 0
 72.2451171875 306.336914062 66.46484375 283.626953125 65.1748046875 257.997070312 c 0
 63.6845703125 231.607421875 63.6845703125 152.416992188 65.1748046875 125.997070312 c 0
 66.39453125 100.416992188 72.2841796875 77.697265625 91.0244140625 58.9970703125 c 0
 109.764648438 40.296875 132.39453125 34.4365234375 158.024414062 33.146484375 c 0
 184.434570312 31.65625 263.614257812 31.65625 290.024414062 33.146484375 c 0
 315.624023438 34.3662109375 338.314453125 40.3359375 357.024414062 58.99609375 c 0
 375.734375 77.65625 381.583984375 100.366210938 382.874023438 125.99609375 c 0
EndSplineSet
Validated: 524837
Ligature2: "'liga' Ligaduras est+AOEA-ndar en Latin b+APoA-squeda 0 subtabla" s q u a r e hyphen i n s t a g r a m
Ligature2: "'liga' Ligaduras est+AOEA-ndar en Latin b+APoA-squeda 0 subtabla" i n s t a g r a m hyphen s q u a r e
EndChar

StartChar: mixer
Encoding: 57430 57430 58
Width: 512
GlyphClass: 1
Flags: W
LayerCount: 2
Fore
SplineSet
114.5703125 371.9296875 m 2
 242.888671875 199.530273438 l 2
 245.959960938 195.284179688 245.959960938 189.546875 242.888671875 185.30078125 c 2
 113.999023438 12.060546875 l 2
 97.830078125 -9.630859375 66.462890625 -12.609375 46.5 5.6513671875 c 0
 28.650390625 21.8310546875 27.5302734375 49.1708984375 41.7607421875 68.4208984375 c 2
 134.090820312 192.571289062 l 1
 42.310546875 315.571289062 l 2
 28.060546875 334.821289062 29.48046875 362.161132812 47.060546875 378.340820312 c 0
 67.0244140625 396.608398438 98.400390625 393.62890625 114.5703125 371.9296875 c 2
470.23828125 68.4208984375 m 1
 484.46875 49.1708984375 483.348632812 21.828125 465.508789062 5.6484375 c 0
 445.544921875 -12.619140625 414.168945312 -9.6396484375 397.999023438 12.0595703125 c 2
 269.428710938 185.559570312 l 2
 266.357421875 189.805664062 266.357421875 195.54296875 269.428710938 199.7890625 c 2
 397.428710938 371.909179688 l 2
 413.598632812 393.608398438 444.974609375 396.587890625 464.938476562 378.3203125 c 0
 482.518554688 362.140625 483.908203125 334.80078125 469.688476562 315.55078125 c 2
 377.908203125 192.55078125 l 1
 377.908203125 192.55078125 114.568359375 371.930664062 470.23828125 68.4208984375 c 1
EndSplineSet
Validated: 524325
Ligature2: "'liga' Ligaduras est+AOEA-ndar en Latin b+APoA-squeda 0 subtabla" m i x e r
EndChar

StartChar: shopify
Encoding: 57431 57431 59
Width: 448
GlyphClass: 1
Flags: W
LayerCount: 2
Fore
SplineSet
388.3203125 343.900390625 m 0
 388.720703125 341.5 442.760742188 -24 442.760742188 -24 c 1
 317.0703125 -55.2001953125 l 1
 317.0703125 377.530273438 l 1
 325.080078125 369.520507812 346.690429688 348.700195312 346.690429688 348.700195312 c 1
 346.690429688 348.700195312 381.920898438 347.900390625 383.920898438 347.900390625 c 0
 386.158203125 347.797851562 388.005859375 346.118164062 388.3203125 343.900390625 c 0
288.650390625 377.530273438 m 1
 297.860351562 380.330078125 303.45703125 381.927734375 303.45703125 381.927734375 c 2
 304.916015625 382.138671875 306.384765625 382.272460938 307.857421875 382.328125 c 1
 307.857421875 -56.001953125 l 1
 5.27734375 -3.5224609375 l 1
 5.27734375 -3.5224609375 42.0771484375 278.297851562 43.27734375 288.297851562 c 0
 44.8671875 301.498046875 45.27734375 301.8984375 59.27734375 306.298828125 c 0
 59.677734375 306.69921875 78.8876953125 312.708984375 106.5078125 321.109375 c 1
 109.328125 342.329101562 119.717773438 369.548828125 133.328125 391.168945312 c 0
 152.578125 421.999023438 176.578125 439.19921875 200.578125 439.999023438 c 0
 212.998046875 440.369140625 223.3984375 436.369140625 231.3984375 427.599609375 c 0
 231.798828125 426.799804688 232.598632812 426.399414062 232.999023438 425.599609375 c 0
 234.30859375 425.912109375 235.654296875 426.046875 237 426 c 0
 255.419921875 426 271 415.150390625 281.440429688 395.140625 c 0
 284.319335938 389.4765625 286.73046875 383.586914062 288.650390625 377.530273438 c 1
233.407226562 360.30859375 m 1
 233.807617188 373.518554688 232.20703125 393.139648438 225.397460938 407.509765625 c 1
 218.59765625 404.309570312 212.587890625 399.099609375 208.1875 394.69921875 c 0
 196.977539062 382.329101562 187.3671875 363.51953125 182.567382812 344.69921875 c 1
 199.77734375 349.909179688 217.407226562 355.508789062 233.407226562 360.30859375 c 1
200.576171875 423.559570312 m 0
 163.74609375 422.759765625 131.325195312 364.71875 122.565429688 326.329101562 c 1
 135.735351562 330.329101562 150.145507812 334.729492188 164.565429688 339.139648438 c 1
 169.365234375 363.58984375 180.975585938 389.169921875 196.185546875 405.58984375 c 0
 202.185546875 411.58984375 208.595703125 416.799804688 214.99609375 420 c 1
 210.607421875 422.487304688 205.618164062 423.71875 200.576171875 423.559570312 c 0
154.145507812 203.388671875 m 0
 153.745117188 208.198242188 154.146484375 226.999023438 183.766601562 229.008789062 c 0
 204.186523438 230.608398438 221.396484375 222.608398438 221.396484375 222.608398438 c 1
 236.606445312 280.208007812 l 1
 236.606445312 280.208007812 223.375976562 286.618164062 197.375976562 285.018554688 c 0
 130.125976562 280.608398438 99.7060546875 233.778320312 102.90625 187.337890625 c 0
 106.505859375 132.09765625 161.74609375 134.09765625 163.74609375 100.477539062 c 0
 164.15625 92.4677734375 158.936523438 80.857421875 144.936523438 80.0576171875 c 0
 123.31640625 78.4580078125 96.49609375 98.8779296875 96.49609375 98.8779296875 c 1
 86.095703125 54.8779296875 l 1
 86.095703125 54.8779296875 112.916015625 26.0576171875 161.74609375 29.2578125 c 0
 202.17578125 31.66796875 230.1953125 64.087890625 227.395507812 111.727539062 c 0
 223.395507812 172.16796875 155.745117188 177.778320312 154.145507812 203.388671875 c 0
249.416015625 365.120117188 m 1
 258.22265625 367.919921875 266.228515625 370.3203125 273.435546875 372.3203125 c 1
 269.42578125 384.75 260.625976562 405.150390625 242.206054688 408.75 c 1
 247.81640625 394.33984375 249.416015625 377.120117188 249.416015625 365.120117188 c 1
EndSplineSet
Validated: 524321
Ligature2: "'liga' Ligaduras est+AOEA-ndar en Latin b+APoA-squeda 0 subtabla" s h o p i f y
EndChar

StartChar: deezer
Encoding: 57463 57463 60
Width: 576
GlyphClass: 1
Flags: MW
HStem: 0.910156 72.6699<0 124.54 75.2349 75.2349 150.47 275 225.729 225.729 300.999 425.529 376.224 376.224 451.459 575.999> 203.29 72.71<150.479 274.998 451.46 576>
VStem: 451.46 124.54<102.12 174.8 102.12 174.8 203.29 276 102.12 276 102.12 290.235 304.51 377.18>
LayerCount: 2
Fore
SplineSet
451.459960938 203.290039062 m 1
 451.459960938 276 l 1
 576 276 l 1
 576 203.290039062 l 1
 451.459960938 203.290039062 l 1
451.459960938 377.1796875 m 1
 451.459960938 203.290039062 576 377.1796875 576 377.1796875 c 1
 576 304.509765625 l 1
 451.459960938 304.509765625 l 1
 451.459960938 304.509765625 451.459960938 203.290039062 451.459960938 377.1796875 c 1
451.459960938 102.120117188 m 1
 451.459960938 377.1796875 451.459960938 174.799804688 451.459960938 174.799804688 c 1
 576 174.799804688 l 1
 576 102.120117188 l 1
 576 102.120117188 451.459960938 377.1796875 451.459960938 102.120117188 c 1
0 0.91015625 m 1
 451.459960938 102.120117188 0 73.580078125 0 73.580078125 c 1
 124.540039062 73.580078125 l 1
 124.540039062 0.91015625 l 1
 124.540039062 0.91015625 451.459960938 102.120117188 0 0.91015625 c 1
150.469726562 0.91015625 m 1
 0 0.91015625 150.469726562 73.580078125 150.469726562 73.580078125 c 1
 275 73.580078125 l 1
 275 0.91015625 l 1
 275 0.91015625 0 0.91015625 150.469726562 0.91015625 c 1
300.989257812 0.91015625 m 1
 150.469726562 0.91015625 300.999023438 73.580078125 300.999023438 73.580078125 c 1
 425.529296875 73.580078125 l 1
 425.529296875 0.91015625 l 1
 425.529296875 0.91015625 150.469726562 0.91015625 300.989257812 0.91015625 c 1
451.458984375 0.91015625 m 1
 300.989257812 0.91015625 451.458984375 73.580078125 451.458984375 73.580078125 c 1
 575.999023438 73.580078125 l 1
 575.999023438 0.91015625 l 1
 575.999023438 0.91015625 300.989257812 0.91015625 451.458984375 0.91015625 c 1
300.999023438 102.120117188 m 1
 451.458984375 0.91015625 300.999023438 174.799804688 300.999023438 174.799804688 c 1
 425.529296875 174.799804688 l 1
 425.529296875 102.120117188 l 1
 425.529296875 102.120117188 451.458984375 0.91015625 300.999023438 102.120117188 c 1
150.479492188 102.120117188 m 1
 300.999023438 102.120117188 150.46875 174.799804688 150.46875 174.799804688 c 1
 274.999023438 174.799804688 l 1
 274.999023438 102.120117188 l 1
 274.999023438 102.120117188 300.999023438 102.120117188 150.479492188 102.120117188 c 1
150.478515625 203.290039062 m 1
 150.478515625 102.120117188 150.467773438 276 150.467773438 276 c 1
 274.998046875 276 l 1
 274.998046875 203.290039062 l 1
 274.998046875 203.290039062 150.478515625 102.120117188 150.478515625 203.290039062 c 1
150.477539062 203.290039062 m 1024
EndSplineSet
Validated: 524325
Ligature2: "'liga' Ligaduras est+AOEA-ndar en Latin b+APoA-squeda 0 subtabla" d e e z e r
EndChar

StartChar: edge-legacy
Encoding: 57464 57464 61
Width: 512
GlyphClass: 1
Flags: MW
HStem: 0.00488281 32 240.003 16.001 248.89 15.1152
VStem: 63.2188 32.0586 183.999 16 303.609 16.0889
LayerCount: 2
Fore
SplineSet
320.1796875 25.7021484375 m 2x9c
 320.1796875 256.102539062 l 2
 320.1796875 263.166992188 314.443359375 268.90234375 307.37890625 268.90234375 c 2
 256.1796875 268.90234375 l 2
 249.114257812 268.90234375 243.37890625 263.166992188 243.37890625 256.102539062 c 2
 243.37890625 25.7021484375 l 2
 243.37890625 18.6376953125 249.114257812 12.90234375 256.1796875 12.90234375 c 2
 307.37890625 12.90234375 l 2
 314.443359375 12.90234375 320.1796875 18.6376953125 320.1796875 25.7021484375 c 2x9c
422.400390625 127.922851562 m 2
 422.400390625 358.348632812 l 2
 422.400390625 365.413085938 416.6640625 371.1484375 409.599609375 371.1484375 c 2
 409.599609375 371.1484375 179.198242188 371.150390625 179.200195312 371.1484375 c 1
 175.661132812 371.1484375 172.455078125 369.709960938 170.137695312 367.385742188 c 2
 93.337890625 290.5859375 l 2
 91.0283203125 288.270507812 89.6005859375 285.07421875 89.599609375 281.548828125 c 2
 89.599609375 281.548828125 89.5986328125 51.1484375 89.599609375 51.1484375 c 1
 89.599609375 44.083984375 95.3349609375 38.3486328125 102.399414062 38.3486328125 c 2
 102.451171875 38.3486328125 l 1
 217.830078125 38.5283203125 l 1
 217.779296875 64.1279296875 l 1
 115.200195312 63.94921875 l 1
 115.200195312 276.198242188 l 1
 184.499023438 345.5234375 l 1
 396.799804688 345.5234375 l 1
 396.799804688 133.22265625 l 1
 349.541992188 85.96484375 l 2
 336.97265625 73.9072265625 355.583984375 55.2958984375 367.641601562 67.865234375 c 2
 418.63671875 118.860351562 l 2
 420.961914062 121.178710938 422.399414062 124.384765625 422.400390625 127.922851562 c 2
EndSplineSet
Validated: 524841
Ligature2: "'liga' Ligaduras est+AOEA-ndar en Latin b+APoA-squeda 0 subtabla" e d g e hyphen l e g a c y
EndChar

StartChar: google-pay
Encoding: 57465 57465 62
Width: 640
GlyphClass: 1
Flags: MW
HStem: 106.396 42.4736<105.718 112.819 91.8789 119.953> 115.127 21.4102 182.836 19.4004<452.07 456.84> 191.75 41.25<105.72 162.819 105.72 105.72> 194.895 22.8887<302.698 341.698 302.698 302.698> 230.017 21.1191<448.745 455.349> 278.458 42.3789<105 105> 282.993 23.002<302.697 341.738 279.068 342.327 302.697 302.697>
VStem: 105.72 99.6582<232.996 232.996 232.996 233 232.996 233> 279.068 23.6299<119.255 194.895 119.255 305.995> 398.838 24.3916<158.907 161.916 158.416 165.532> 487.568 22.6104<119.297 137.017 137.017 137.017>
LayerCount: 2
Fore
SplineSet
105.719726562 233 m 1x92f0
 205.377929688 232.99609375 l 1
 206.5546875 225.795898438 207.139648438 218.51171875 207.127929688 211.215820312 c 0
 207.127929688 178.456054688 195.717773438 150.916015625 175.717773438 132.305664062 c 0
 158.267578125 115.92578125 134.1875 106.395507812 105.717773438 106.395507812 c 0
 65.5927734375 106.49609375 29.00390625 129.369140625 11.337890625 165.396484375 c 1
 11.337890625 165.546875 l 1
 -3.7822265625 195.82421875 -3.7822265625 231.44921875 11.337890625 261.7265625 c 0
 28.9990234375 297.7734375 65.578125 320.682617188 105.71875 320.836914062 c 0
 132.0234375 321.1015625 157.3984375 311.116210938 176.46875 292.997070312 c 1
 146.188476562 262.376953125 l 1
 135.383789062 272.946289062 120.791015625 278.739257812 105.678710938 278.458007812 c 0
 78.0791015625 278.458007812 54.7490234375 259.547851562 46.37890625 234.087890625 c 0
 41.9990234375 220.772460938 41.9990234375 206.404296875 46.37890625 193.088867188 c 0
 54.7490234375 167.779296875 78.0791015625 148.869140625 105.678710938 148.869140625 c 0
 119.958984375 148.869140625 132.138671875 152.599609375 141.678710938 159.149414062 c 0
 152.860351562 166.694335938 160.4921875 178.462890625 162.819335938 191.75 c 1
 105.719726562 191.75 l 1
 105.719726562 233 l 1x92f0
495.127929688 236.99609375 m 0
 505.2578125 227.65625 510.249023438 214.546875 510.178710938 197.997070312 c 2
 510.178710938 119.296875 l 1
 487.568359375 119.296875 l 1
 487.568359375 137.016601562 l 1
 486.568359375 137.016601562 l 1
 476.778320312 122.426757812 463.858398438 115.126953125 447.568359375 115.126953125 c 0
 433.778320312 115.126953125 422.028320312 119.296875 412.778320312 127.63671875 c 0
 403.649414062 135.421875 398.526367188 146.9140625 398.837890625 158.907226562 c 0
 398.837890625 172.157226562 403.818359375 182.577148438 413.658203125 190.466796875 c 0
 423.498046875 198.356445312 436.708007812 202.236328125 453.1484375 202.236328125 c 0
 467.23828125 202.236328125 478.688476562 199.556640625 487.788085938 194.486328125 c 1
 487.788085938 199.99609375 l 2
 487.783203125 208.141601562 484.249023438 215.885742188 478.098632812 221.2265625 c 0
 471.860351562 226.865234375 463.756835938 229.99609375 455.348632812 230.016601562 c 0
 442.141601562 230.016601562 431.721679688 224.349609375 424.087890625 213.016601562 c 1
 403.23828125 226.276367188 l 1
 414.3984375 242.795898438 431.278320312 251.135742188 453.73828125 251.135742188 c 0x64f0
 471.198242188 251.135742188 484.998046875 246.375976562 495.127929688 236.99609375 c 0
475.8984375 147.697265625 m 0
 483.678710938 155.147460938 487.639648438 163.92578125 487.639648438 174.055664062 c 1
 480.299804688 179.99609375 470 182.99609375 456.83984375 182.8359375 c 0
 447.299804688 182.8359375 439.08984375 180.446289062 432.76953125 175.8359375 c 0
 426.44921875 171.225585938 423.229492188 165.416015625 423.229492188 158.416015625 c 0
 423.198242188 152.26953125 426.080078125 146.471679688 430.999023438 142.786132812 c 0
 436.196289062 138.635742188 442.677734375 136.42578125 449.328125 136.537109375 c 0
 459.322265625 136.549804688 468.893554688 140.5703125 475.8984375 147.697265625 c 0
382.249023438 289.6953125 m 0
 403.744140625 269.241210938 404.903320312 235.381835938 384.857421875 213.504882812 c 0
 383.967773438 212.615234375 383.087890625 211.71484375 382.208007812 210.825195312 c 0
 371.198242188 200.254882812 357.698242188 194.89453125 341.698242188 194.89453125 c 2
 302.698242188 194.89453125 l 1
 302.698242188 119.254882812 l 1
 279.068359375 119.254882812 l 1
 279.068359375 305.995117188 l 1
 341.73828125 305.995117188 l 2x09f0
 356.897460938 306.30078125 371.526367188 300.415039062 382.249023438 289.6953125 c 0
365.666992188 227.463867188 m 0
 377.984375 240.541015625 377.65625 261.0859375 364.926757812 273.762695312 c 0
 358.909179688 279.705078125 350.784179688 283.0234375 342.327148438 282.993164062 c 2
 302.697265625 282.993164062 l 1
 302.697265625 217.783203125 l 1
 342.327148438 217.783203125 l 2
 351.13671875 217.50390625 359.640625 221.03125 365.666992188 227.463867188 c 0
614.306640625 246.993164062 m 1
 365.666992188 227.462890625 639.99609375 246.993164062 639.99609375 246.993164062 c 1
 560.99609375 63.123046875 l 1
 536.646484375 63.123046875 l 1
 565.99609375 127.443359375 l 1
 514.206054688 246.993164062 l 1
 539.896484375 246.993164062 l 1
 577.31640625 155.29296875 l 1
 577.766601562 155.29296875 l 1
 577.766601562 155.29296875 365.666992188 227.462890625 614.306640625 246.993164062 c 1
614.305664062 246.993164062 m 1024
EndSplineSet
Validated: 524837
Ligature2: "'liga' Ligaduras est+AOEA-ndar en Latin b+APoA-squeda 0 subtabla" g o o g l e hyphen p a y
EndChar

StartChar: rust
Encoding: 57466 57466 63
Width: 576
GlyphClass: 1
Flags: MW
HStem: -64.001 16<64.0029 64.0098 64.0098 320.003> 135.405 16<197.799 548.686 200.002 548.686 200.002 548.702> 271.999 16<236.958 361.403 248.003 361.403 248.003 368.003> 431.999 16<63.1035 64.0029 64.0029 208.003>
VStem: 0.00976562 15.9932<-13.2559 -0.000976562 -13.2559 -0.000976562> 208.003 16<311.999 425.369> 368.003 16<-0.000976562 87.999 199.999 271.999 271.999 271.999>
LayerCount: 2
Fore
SplineSet
573.700195312 149.099609375 m 2
 576.799804688 145.899414062 576.802734375 140.8984375 573.642578125 137.724609375 c 2
 466.842773438 30.9248046875 l 2
 463.720703125 27.7998046875 458.657226562 27.802734375 455.532226562 30.9248046875 c 0
 452.407226562 34.046875 452.407226562 39.1103515625 455.532226562 42.2353515625 c 2
 548.702148438 135.405273438 l 1
 200.001953125 135.405273438 l 2
 195.595703125 135.405273438 192.001953125 138.983398438 192.001953125 143.405273438 c 0
 192.001953125 147.827148438 195.595703125 151.405273438 200.001953125 151.405273438 c 2
 548.685546875 151.405273438 l 1
 454.345703125 245.745117188 l 2
 451.220703125 248.8671875 451.220703125 253.930664062 454.345703125 257.055664062 c 0
 455.907226562 258.618164062 457.901367188 259.399414062 460.000976562 259.399414062 c 0
 462.100585938 259.399414062 464.100585938 258.599609375 465.700195312 257.099609375 c 2
 573.700195312 149.099609375 l 2
368.002929688 87.9990234375 m 2
 368.002929688 92.4169921875 371.584960938 95.9990234375 376.002929688 95.9990234375 c 0
 380.403320312 95.9990234375 384.002929688 92.3994140625 384.002929688 87.9990234375 c 2
 384.002929688 -0.0009765625 l 2
 384.002929688 -35.3408203125 355.352539062 -64.0009765625 320.002929688 -64.0009765625 c 2
 64.009765625 -64.0009765625 l 2
 28.669921875 -64.0009765625 0.009765625 -35.3408203125 0.009765625 -0.0009765625 c 2
 0.0029296875 383.999023438 l 2
 0.0029296875 419.348632812 28.6533203125 447.999023438 63.103515625 447.999023438 c 2
 210.703125 447.999023438 l 2
 219.203125 447.999023438 227.403320312 444.627929688 233.403320312 438.624023438 c 2
 374.627929688 297.329101562 l 2
 380.629882812 291.329101562 384.002929688 283.1875 384.002929688 274.69921875 c 2
 384.002929688 199.999023438 l 2
 384.002929688 195.598632812 380.403320312 191.999023438 376.002929688 191.999023438 c 0
 371.602539062 191.999023438 368.002929688 195.598632812 368.002929688 199.999023438 c 2
 368.002929688 271.999023438 l 1
 248.002929688 271.999023438 l 2
 225.913085938 271.999023438 208.002929688 289.909179688 208.002929688 311.999023438 c 2
 208.002929688 431.999023438 l 1
 64.0029296875 431.999023438 l 2
 37.4931640625 431.999023438 16.0029296875 410.508789062 16.0029296875 383.999023438 c 2
 16.0029296875 -0.0009765625 l 2
 16.0029296875 -26.5107421875 37.4931640625 -48.0009765625 64.0029296875 -48.0009765625 c 2
 320.002929688 -48.0009765625 l 2
 346.512695312 -48.0009765625 368.002929688 -26.5107421875 368.002929688 -0.0009765625 c 2
 368.002929688 87.9990234375 l 2
224.002929688 425.369140625 m 1
 224.002929688 311.999023438 l 2
 224.002929688 298.798828125 234.802734375 287.999023438 248.002929688 287.999023438 c 2
 361.403320312 287.999023438 l 1
 224.002929688 425.369140625 l 1
EndSplineSet
Validated: 524289
Ligature2: "'liga' Ligaduras est+AOEA-ndar en Latin b+APoA-squeda 0 subtabla" r u s t
EndChar

StartChar: tiktok
Encoding: 57467 57467 64
Width: 512
GlyphClass: 1
Flags: MW
HStem: -64.001 16<255.949 256.049 255.949 258.789> 47.999 15.999<168.349 248 170.2 248 170.2 341.798> 83.998 16.0029<105.279 107.149 105.279 111.6> 183.998 16.001<128 248 128 248> 283.999 16.001<105.298 107.148 404.399 405.818> 319.999 16.001<168.347 170.199 168.347 170.2 168.347 248> 432.001 15.9932<255.499 256.499>
VStem: 0 15.998<191.95 192.05 191.95 194.849> 111.999 16.001<103.951 106.198 106.198 106.201> 248 15.999<63.999 183.998 183.998 183.998> 383.999 16<106.249 183.999 183.999 183.999> 495.999 16<191.499 192.499>
LayerCount: 2
Fore
SplineSet
505.599609375 207.700195312 m 2
 509.899414062 203.400390625 511.999023438 197.700195312 511.999023438 192 c 0
 511.999023438 186.299804688 509.899414062 180.599609375 504.708984375 176.296875 c 2
 420.37890625 90.546875 l 2
 415.928710938 86.0224609375 410.463867188 83.9990234375 405.098632812 83.9990234375 c 0
 394.798828125 83.9990234375 383.999023438 92.8994140625 383.999023438 106.249023438 c 2
 383.999023438 183.999023438 l 1
 263.999023438 183.999023438 l 1
 263.999023438 63.9990234375 l 1
 341.798828125 63.9990234375 l 2
 361.499023438 63.9990234375 371.399414062 40.4990234375 357.399414062 26.71875 c 2
 271.649414062 -57.6015625 l 2
 267.319335938 -61.8662109375 261.62890625 -64.0009765625 255.94921875 -64.0009765625 c 0
 250.26953125 -64.0009765625 244.587890625 -61.8671875 240.25 -57.6015625 c 2
 154.5 26.71875 l 2
 140.509765625 40.478515625 150.419921875 63.998046875 170.200195312 63.998046875 c 2
 248 63.998046875 l 1
 248 183.998046875 l 1
 128 183.998046875 l 1
 128 106.198242188 l 2
 128 92.8984375 117.200195312 83.998046875 106 83.998046875 c 0
 100.599609375 83.998046875 95.169921875 86.8984375 90.7255859375 90.548828125 c 2
 6.3955078125 176.298828125 l 2
 2.1328125 180.638671875 0 186.298828125 0 191.999023438 c 0
 0 197.69921875 2.1328125 203.399414062 6.3955078125 207.69921875 c 2
 90.7099609375 293.452148438 l 2
 95.16015625 297.9765625 100.6328125 300 106 300 c 0
 117.200195312 300 128 291.099609375 128 277.69921875 c 2
 128 199.999023438 l 1
 248 199.999023438 l 1
 248 319.999023438 l 1
 170.200195312 319.999023438 l 2
 150.5 319.999023438 140.599609375 343.499023438 154.5 357.279296875 c 2
 240.290039062 441.599609375 l 2
 244.629882812 445.865234375 250.299804688 447.994140625 255.990234375 447.994140625 c 0
 261.680664062 447.994140625 267.362304688 445.865234375 271.700195312 441.599609375 c 2
 357.450195312 357.279296875 l 2
 371.440429688 343.51953125 361.530273438 319.999023438 341.75 319.999023438 c 2
 264 319.999023438 l 1
 264 199.999023438 l 1
 384 199.999023438 l 1
 384 277.69921875 l 2
 384 291.099609375 394.799804688 300 405.099609375 300 c 0
 411.399414062 300 416.799804688 298 421.299804688 293.5 c 2
 505.599609375 207.700195312 l 2
170.19921875 336 m 2
 341.798828125 336.000976562 l 2
 345.499023438 336.000976562 346.098632812 338.401367188 347.54296875 339.749023438 c 0
 348.185546875 341.319335938 348.48046875 343.655273438 346.23046875 345.866210938 c 2
 260.48046875 430.196289062 l 2
 258.885742188 431.766601562 256.999023438 432.000976562 255.999023438 432.000976562 c 0
 254.999023438 432.000976562 253.098632812 431.770507812 251.548828125 430.23046875 c 2
 165.798828125 345.900390625 l 2
 163.499023438 343.700195312 163.798828125 341.299804688 164.40625 339.75 c 0
 164.98046875 338.3515625 166.494140625 336 170.19921875 336 c 2
111.999023438 106.201171875 m 2
 111.998046875 277.69921875 l 2
 111.998046875 282.298828125 108.297851562 283.999023438 105.998046875 283.999023438 c 0
 104.59765625 283.999023438 103.297851562 283.399414062 102.1328125 282.233398438 c 2
 17.802734375 196.483398438 l 2
 16.234375 194.8828125 15.998046875 192.099609375 15.998046875 192 c 0
 15.998046875 191.900390625 16.23828125 189.100585938 17.80859375 187.500976562 c 2
 102.122070312 101.766601562 l 2
 103.291992188 100.579101562 104.559570312 100.000976562 105.999023438 100.000976562 c 0
 108.298828125 100.000976562 111.999023438 101.701171875 111.999023438 106.201171875 c 2
341.797851562 47.9990234375 m 2
 170.19921875 47.9990234375 l 2
 166.499023438 47.9990234375 164.999023438 45.5986328125 164.455078125 44.2509765625 c 0
 163.8125 42.6806640625 163.51953125 40.3447265625 165.767578125 38.1337890625 c 2
 251.517578125 -46.1962890625 l 2
 253.114257812 -47.7666015625 255.899414062 -48.0009765625 255.999023438 -48.0009765625 c 0
 256.098632812 -48.0009765625 258.8984375 -47.80078125 260.529296875 -46.1982421875 c 2
 346.279296875 38.1318359375 l 2
 348.528320312 40.3427734375 348.233398438 42.6787109375 347.590820312 44.2490234375 c 0
 347.018554688 45.6474609375 345.502929688 47.9990234375 341.797851562 47.9990234375 c 2
494.19921875 187.499023438 m 2
 495.798828125 189.098632812 495.999023438 190.999023438 495.999023438 191.999023438 c 0
 495.999023438 192.999023438 495.798828125 194.899414062 493.293945312 196.483398438 c 2
 408.973632812 282.233398438 l 2
 407.805664062 283.420898438 406.537109375 283.999023438 405.099609375 283.999023438 c 0
 403.69921875 283.999023438 399.999023438 282.298828125 399.999023438 277.69921875 c 2
 399.999023438 106.19921875 l 2
 399.999023438 101.69921875 403.69921875 99.9990234375 405.099609375 99.9990234375 c 0
 407.399414062 99.9990234375 408.69921875 100.598632812 409.869140625 101.749023438 c 2
 494.19921875 187.499023438 l 2
EndSplineSet
Validated: 524321
Ligature2: "'liga' Ligaduras est+AOEA-ndar en Latin b+APoA-squeda 0 subtabla" t i k t o k
EndChar

StartChar: unsplash
Encoding: 57468 57468 65
Width: 640
GlyphClass: 1
Flags: MW
HStem: 368.898 15.999<38.7148 56.3848>
VStem: -0.000976562 15.1006<89.998 336.898 103.799 336.897> 79.0996 16<182.399 189.898 189.898 189.899 182.399 336.898> 287.101 16<-58.2002 23.2002 -56 23.2002> 335.997 16<-58.2002 23.2002 -56 23.2002> 543.998 16.001<189.898 189.899 189.899 335.998 335.998 335.999> 623.999 16<103.797 103.798 103.798 335.997 335.997 335.998>
LayerCount: 2
Fore
SplineSet
438.599609375 342.599609375 m 2
 342.599609375 438.627929688 l 2
 330.099609375 451.124023438 309.899414062 451.124023438 297.399414062 438.627929688 c 2
 201.399414062 342.599609375 l 2
 188.899414062 330.099609375 188.899414062 309.899414062 201.399414062 297.399414062 c 2
 297.399414062 201.399414062 l 2
 309.899414062 188.899414062 330.099609375 188.899414062 342.599609375 201.399414062 c 2
 438.599609375 297.399414062 l 2
 451.099609375 309.899414062 451.099609375 330.099609375 438.599609375 342.599609375 c 2
212.69921875 331.299804688 m 2
 308.69921875 427.309570312 l 2
 314.899414062 433.559570312 325.099609375 433.559570312 331.299804688 427.309570312 c 2
 427.299804688 331.299804688 l 2
 433.599609375 325.099609375 433.599609375 314.899414062 427.299804688 308.69921875 c 2
 331.299804688 212.69921875 l 2
 325.099609375 206.399414062 314.899414062 206.399414062 308.69921875 212.69921875 c 2
 212.69921875 308.69921875 l 2
 206.399414062 314.899414062 206.399414062 325.099609375 212.69921875 331.299804688 c 2
95.099609375 189.899414062 m 2
 95.9990234375 336.897460938 l 2
 95.9990234375 362.5078125 74.5087890625 384.897460938 47.9990234375 384.897460938 c 0
 21.4892578125 384.897460938 -0.0009765625 362.5078125 -0.0009765625 336.897460938 c 2
 -0.0009765625 103.797851562 l 2
 -0.0009765625 76.1982421875 10.958984375 49.6982421875 30.458984375 30.1982421875 c 2
 122.298828125 -61.7021484375 l 2
 125.499023438 -64.8017578125 130.499023438 -64.8017578125 133.69921875 -61.7021484375 c 0
 136.798828125 -58.501953125 136.798828125 -53.501953125 133.69921875 -50.3017578125 c 2
 41.76953125 41.498046875 l 2
 25.26953125 58.8984375 15.099609375 80.3984375 15.099609375 103.798828125 c 2
 15.099609375 336.8984375 l 2
 15.099609375 353.66796875 30.330078125 368.8984375 47.099609375 368.8984375 c 0
 65.669921875 368.8984375 79.099609375 353.66796875 79.099609375 336.8984375 c 2
 79.099609375 189.8984375 l 2
 79.099609375 168.298828125 88.2294921875 148.499023438 102.899414062 133.798828125 c 2
 186.299804688 50.298828125 l 2
 189.5 47.19921875 194.5 47.19921875 197.700195312 50.298828125 c 0
 200.799804688 53.4990234375 200.799804688 58.4990234375 197.700195312 61.69921875 c 2
 133.700195312 125.599609375 l 2
 123.100585938 136.19921875 122.500976562 153.19921875 132.201171875 164.599609375 c 0
 143.1015625 177.399414062 162.6015625 178.099609375 174.401367188 166.299804688 c 2
 267.201171875 73.5 l 2
 280.500976562 60.2001953125 287.100585938 42.1005859375 287.100585938 23.2001953125 c 2
 287.100585938 -56 l 2
 287.100585938 -60.400390625 291.600585938 -64 295.100585938 -64 c 0
 300.400390625 -64 303.100585938 -60.400390625 303.100585938 -56 c 2
 303.100585938 23.2001953125 l 2
 303.100585938 46.2998046875 294.80078125 68.5 278.500976562 84.7998046875 c 2
 185.701171875 177.599609375 l 2
 167.30078125 196.899414062 137.100585938 194.899414062 120.100585938 175.099609375 c 0
 113.900390625 167.799804688 110.400390625 159.200195312 109.5 150.299804688 c 1
 100.799804688 161.299804688 95.099609375 174.899414062 95.099609375 189.899414062 c 2
639.999023438 335.997070312 m 2
 639.999023438 362.506835938 618.498046875 383.999023438 591.998046875 383.999023438 c 0
 565.498046875 383.999023438 543.998046875 362.508789062 543.998046875 335.999023438 c 2
 543.998046875 189.899414062 l 2
 543.998046875 174.899414062 539.198242188 161.299804688 530.498046875 150.299804688 c 1
 529.59765625 159.200195312 526.09765625 167.799804688 519.897460938 175.099609375 c 0
 502.897460938 194.899414062 472.697265625 196.899414062 454.296875 177.599609375 c 2
 361.497070312 84.7998046875 l 2
 345.197265625 68.5 335.997070312 46.2998046875 335.997070312 23.2001953125 c 2
 335.997070312 -56 l 2
 335.997070312 -60.400390625 339.596679688 -64 343.997070312 -64 c 0
 348.397460938 -64 351.997070312 -60.400390625 351.997070312 -56 c 2
 351.997070312 23.2001953125 l 2
 351.997070312 42.1005859375 359.497070312 60.2001953125 372.796875 73.5 c 2
 465.596679688 166.299804688 l 2
 477.396484375 178.099609375 496.896484375 177.399414062 507.796875 164.599609375 c 0
 517.497070312 153.19921875 516.897460938 136.19921875 506.297851562 125.599609375 c 2
 442.297851562 61.69921875 l 2
 439.198242188 58.4990234375 439.198242188 53.4990234375 442.297851562 50.298828125 c 0
 445.498046875 47.19921875 450.498046875 47.19921875 453.698242188 50.298828125 c 2
 537.098632812 133.798828125 l 2
 551.798828125 148.499023438 559.999023438 168.298828125 559.999023438 189.8984375 c 2
 559.999023438 335.998046875 l 2
 559.999023438 353.66796875 574.298828125 367.998046875 591.999023438 367.998046875 c 0
 609.69921875 367.998046875 623.999023438 353.66796875 623.999023438 335.998046875 c 2
 623.999023438 103.797851562 l 2
 623.999023438 80.3974609375 614.69921875 58.8974609375 598.19921875 41.4970703125 c 2
 506.298828125 -50.302734375 l 2
 503.19921875 -53.5029296875 503.19921875 -58.5029296875 506.298828125 -61.703125 c 0
 509.499023438 -64.802734375 514.499023438 -64.802734375 517.69921875 -61.703125 c 2
 609.499023438 30.197265625 l 2
 628.999023438 49.697265625 639.999023438 76.197265625 639.999023438 103.796875 c 2
 639.999023438 335.997070312 l 2
EndSplineSet
Validated: 524329
Ligature2: "'liga' Ligaduras est+AOEA-ndar en Latin b+APoA-squeda 0 subtabla" u n s p l a s h
EndChar

StartChar: cloudflare
Encoding: 57469 57469 66
Width: 448
GlyphClass: 1
Flags: MW
HStem: 184.001 16<24 216>
VStem: 216 16<-8 -7.99902 -7.99902 184 -8 184.001 200.001 392.001>
LayerCount: 2
Fore
SplineSet
424 184 m 2
 428.400390625 184 432 187.599609375 432 192 c 0
 432 196.400390625 428.400390625 200.000976562 424 200.000976562 c 2
 232 200.000976562 l 1
 232 392.000976562 l 2
 232 396.420898438 228.421875 399.995117188 224 399.995117188 c 0
 219.578125 399.995117188 216 396.422851562 216 392.000976562 c 2
 216 200.000976562 l 1
 24 200.000976562 l 2
 19.580078125 200.000976562 16 196.401367188 16 191.995117188 c 0
 16 187.573242188 19.578125 184.000976562 24 184.000976562 c 2
 216 184.000976562 l 1
 216 -7.9990234375 l 2
 216 -12.3994140625 219.578125 -16.005859375 224 -16.005859375 c 0
 228.421875 -16.005859375 232 -12.421875 232 -8 c 2
 232 184 l 1
 424 184 l 2
EndSplineSet
Validated: 524297
Ligature2: "'liga' Ligaduras est+AOEA-ndar en Latin b+APoA-squeda 0 subtabla" c l o u d f l a r e
EndChar

StartChar: guilded
Encoding: 57470 57470 67
Width: 512
GlyphClass: 1
Flags: MW
HStem: 24 16.001<123.9 134.649 121.349 139.05> 88.001 15.999<121.349 134.649> 432.001 16<423.351 450.051>
VStem: 88 15.999<59.8999 70.6509 57.3511 75.0498> 151.999 16.001<57.3511 70.6509> 496.001 15.999<359.356 386.056>
LayerCount: 2
Fore
SplineSet
512 368.530273438 m 0
 512 412.419921875 476.400390625 448.000976562 432.5 448.000976562 c 0
 409.599609375 448.000976562 387.69921875 438.053710938 372.599609375 420.720703125 c 2
 179.5 199.900390625 l 1
 94.4599609375 174.700195312 l 2
 76.490234375 169.600585938 62.259765625 155.80078125 56.5400390625 138.900390625 c 2
 2.306640625 -30.69921875 l 2
 -3.78125 -49.599609375 14.4892578125 -67.2998046875 33.2294921875 -60.599609375 c 2
 203.999023438 0.400390625 l 2
 220.69921875 6.30078125 233.499023438 19.80078125 238.69921875 36.6005859375 c 2
 262.099609375 115.500976562 l 1
 484.69921875 308.600585938 l 2
 502.099609375 323.700195312 512 345.5 512 368.530273438 c 0
194.900390625 192.401367188 m 1
 384.701171875 410.220703125 l 2
 396.701171875 424.060546875 414.201171875 432.000976562 432.500976562 432.000976562 c 0
 467.600585938 432.000976562 496.000976562 403.581054688 496.000976562 368.53125 c 0
 496.000976562 350.181640625 488.100585938 332.701171875 474.200195312 320.701171875 c 2
 256.400390625 130.901367188 l 1
 194.900390625 192.401367188 l 1
246.901367188 117.80078125 m 1
 223.399414062 41.30078125 l 2
 219.69921875 29.30078125 210.499023438 19.701171875 198.69921875 15.4013671875 c 2
 30.8095703125 -44.4990234375 l 1
 105.899414062 30.6005859375 l 1
 112.299804688 26.400390625 119.799804688 24 128 24 c 0
 150.099609375 24 168 41.900390625 168 64 c 0
 168 86.099609375 150.099609375 104 128 104 c 0
 105.900390625 104 88 86.099609375 88 64 c 0
 88 55.7998046875 90.4404296875 48.2998046875 94.630859375 41.8994140625 c 1
 17.7412109375 -34.900390625 l 1
 71.771484375 133.099609375 l 2
 75.861328125 145.799804688 86.021484375 155.700195312 98.861328125 159.400390625 c 2
 181.701171875 183.900390625 l 1
 246.901367188 117.80078125 l 1
127.999023438 88.0009765625 m 0
 141.298828125 88.0009765625 151.999023438 77.30078125 151.999023438 64.0009765625 c 0
 151.999023438 50.701171875 141.298828125 40.0009765625 127.999023438 40.0009765625 c 0
 114.69921875 40.0009765625 103.999023438 50.701171875 103.999023438 64.0009765625 c 0
 103.999023438 77.30078125 114.69921875 88.0009765625 127.999023438 88.0009765625 c 0
EndSplineSet
Validated: 524329
Ligature2: "'liga' Ligaduras est+AOEA-ndar en Latin b+APoA-squeda 0 subtabla" g u i l d e d
EndChar

StartChar: hive
Encoding: 57471 57471 68
Width: 576
GlyphClass: 1
Flags: MW
HStem: -31.999 15.999<250.199 325.799 250.199 328.4> 80 16<261.05 314.5 261.05 318.95> 288 16<261.05 314.5> 400 16<250.199 325.799>
VStem: 176 16<165.5 218.95 165.5 222.95> 384 16<165.5 218.95>
LayerCount: 2
Fore
SplineSet
400 192 m 0
 400 253.900390625 349.900390625 304 288 304 c 0
 226.099609375 304 176 253.900390625 176 192 c 0
 176 130.099609375 226.099609375 80 288 80 c 0
 349.900390625 80 400 130.099609375 400 192 c 0
288 288 m 0
 341 288 384 245.900390625 384 192 c 0
 384 139 341 96 288 96 c 0
 234.099609375 96 192 139 192 192 c 0
 192 245.900390625 234.099609375 288 288 288 c 0
480.599609375 335.400390625 m 0
 433.5 379.16015625 368.799804688 416 288 416 c 0
 207.200195312 416 142.5 379.16015625 95.419921875 335.400390625 c 0
 48.6201171875 292 17.33984375 240.900390625 2.4609375 204.30078125 c 0
 -0.8203125 196.400390625 -0.8203125 187.600585938 2.4609375 179.700195312 c 0
 17.33984375 144 48.6201171875 92.900390625 95.419921875 48.6005859375 c 0
 142.5 4.80078125 207.200195312 -31.9990234375 288 -31.9990234375 c 0
 368.799804688 -31.9990234375 433.5 4.80078125 480.599609375 48.6005859375 c 0
 527.399414062 92.900390625 558.69921875 144 573.499023438 179.700195312 c 0
 576.798828125 187.600585938 576.798828125 196.400390625 573.499023438 204.30078125 c 0
 558.69921875 240.900390625 527.399414062 292 480.599609375 335.400390625 c 0
17.2294921875 198.200195312 m 0
 31.33984375 232.900390625 61.3798828125 282 106.299804688 323.700195312 c 0
 151.399414062 365.58984375 212.399414062 400 287.999023438 400 c 0
 363.598632812 400 424.598632812 365.58984375 469.698242188 323.700195312 c 0
 514.598632812 282 544.698242188 232.900390625 558.797851562 198.200195312 c 0
 560.397460938 194.200195312 560.397460938 189.799804688 558.797851562 185.799804688 c 0
 544.698242188 152 514.598632812 102.900390625 469.698242188 60.30078125 c 0
 424.598632812 18.400390625 363.598632812 -16 287.999023438 -16 c 0
 212.399414062 -16 151.399414062 18.400390625 106.299804688 60.30078125 c 0
 61.3798828125 102.900390625 31.33984375 152 17.2294921875 185.799804688 c 0
 15.58984375 189.799804688 15.58984375 194.200195312 17.2294921875 198.200195312 c 0
EndSplineSet
Validated: 524329
Ligature2: "'liga' Ligaduras est+AOEA-ndar en Latin b+APoA-squeda 0 subtabla" h i v e
EndChar

StartChar: 42-group
Encoding: 57472 57472 69
Width: 448
GlyphClass: 1
Flags: MW
HStem: -32 16<5.79688 152 16 152 16 152 296 432> 400 16<16 152 16 16 296 432>
VStem: 0 16<-16 120 -16 120 -16 122.2 264 400> 432 16<-16 120 264 400 400 400>
LayerCount: 2
Fore
SplineSet
152 416 m 2
 156.400390625 416 160 412.41015625 160 408 c 0
 160 403.58984375 156.400390625 400 152 400 c 2
 16 400 l 1
 16 264 l 2
 16 259.599609375 12.40625 256 8 256 c 0
 3.59375 256 0 259.599609375 0 264 c 2
 0 408 l 2
 0 412.41015625 3.59375 416 8 416 c 2
 152 416 l 2
440 416 m 2
 444.400390625 416 448 412.41015625 448 408 c 2
 448 264 l 2
 448 259.599609375 444.400390625 256 440 256 c 0
 435.599609375 256 432 259.599609375 432 264 c 2
 432 400 l 1
 296 400 l 2
 291.59375 400 288 403.58984375 288 408 c 0
 288 412.41015625 291.599609375 416 296 416 c 2
 440 416 l 2
432 120 m 2
 432 124.40625 435.59375 128 440 128 c 0
 444.400390625 128 448 124.400390625 448 120 c 2
 448 -24 l 2
 448 -28.40625 444.40625 -32 440 -32 c 2
 296 -32 l 2
 291.599609375 -32 288 -28.40625 288 -24 c 0
 288 -19.59375 291.59375 -16 296 -16 c 2
 432 -16 l 1
 432 120 l 2
152 -16 m 2
 156.400390625 -16 160 -19.599609375 160 -24 c 0
 160 -28.400390625 156.400390625 -32 152 -32 c 2
 8 -32 l 2
 3.59375 -32 0 -28.400390625 0 -24 c 2
 0 120 l 2
 0 124.400390625 3.58984375 128 8 128 c 0
 12.41015625 128 16 124.400390625 16 120 c 2
 16 -16 l 1
 152 -16 l 2
EndSplineSet
Validated: 524801
Ligature2: "'liga' Ligaduras est+AOEA-ndar en Latin b+APoA-squeda 0 subtabla" i n n o s o f t
Ligature2: "'liga' Ligaduras est+AOEA-ndar en Latin b+APoA-squeda 0 subtabla" 4 2 hyphen g r o u p
EndChar

StartChar: instalod
Encoding: 57473 57473 70
Width: 512
GlyphClass: 1
Flags: MW
HStem: -64 16<242.101 255.101 255.101 256 242.101 326.7> 96 15.998<35.9697 134.398 377.6 475.999 475.999 475.999> 272 15.998<35.9688 134.398 134.398 134.398 377.6 377.6> 431.999 16.001<242.55 269>
VStem: 0 15.999<177.948 206.048 177.948 262.7> 127.998 16.0029<178.049 205.949> 137.3 16.3008<96 96> 358.4 16.2988<96 96> 368 16<178.049 205.949 178.049 206.05> 496 16<177.948 206.048>
LayerCount: 2
Fore
SplineSet
256 448 m 0xf840
 114.599609375 448 0 333.400390625 0 192 c 0
 0 50.599609375 114.599609375 -64 256 -64 c 0
 397.400390625 -64 512 50.599609375 512 192 c 0
 512 333.400390625 397.400390625 448 256 448 c 0xf840
256 -48 m 2
 255.100585938 -48 l 2
 229.100585938 -48 202.100585938 -26.5 179.80078125 18.099609375 c 0
 168.80078125 40.099609375 159.900390625 66.5 153.600585938 96 c 1
 358.400390625 96 l 1xfb40
 352.100585938 66.5 343.200195312 40.099609375 332.200195312 18.099609375 c 0
 309.900390625 -26.5 282 -48 256 -48 c 2
150.600585938 112 m 1
 146.30078125 137 144.000976562 163.900390625 144.000976562 192 c 0
 144.000976562 220.099609375 146.30078125 247.899414062 150.600585938 271.999023438 c 1
 361.400390625 271.999023438 l 1
 365.700195312 247.899414062 368 220.099609375 368 192 c 0
 368 163.900390625 365.700195312 137 361.400390625 112 c 1
 150.600585938 112 l 1
358.400390625 288 m 1xf940
 153.599609375 288 l 1
 159.899414062 317.599609375 168.799804688 343.899414062 179.799804688 365.859375 c 0
 202.099609375 410.489257812 229.099609375 431.999023438 256 431.999023438 c 0
 282 431.999023438 309.900390625 410.489257812 332.200195312 365.859375 c 0
 343.200195312 343.899414062 352.100585938 317.599609375 358.400390625 288 c 1xf940
377.599609375 272 m 1
 482.299804688 271.998046875 l 1
 491.200195312 246.998046875 496 220.09765625 496 191.998046875 c 0
 496 163.8984375 491.200195312 137.8984375 482.299804688 111.998046875 c 1
 377.599609375 111.998046875 l 1
 381.799804688 137.198242188 384 164.098632812 384 191.999023438 c 0
 384 219.899414062 381.799804688 246.799804688 377.599609375 272 c 1
307.5 426.467773438 m 1
 383.200195312 409.908203125 445.599609375 357.547851562 476 287.998046875 c 1
 374.700195312 287.998046875 l 1
 362.200195312 349.84765625 337.900390625 399.6875 307.5 426.467773438 c 1
204.499023438 426.467773438 m 1
 174.098632812 399.6875 149.798828125 349.84765625 137.298828125 287.998046875 c 1
 35.96875 287.998046875 l 1
 66.3583984375 357.547851562 128.798828125 409.908203125 204.499023438 426.467773438 c 1
29.658203125 111.998046875 m 1
 20.80859375 137.8984375 15.9990234375 163.8984375 15.9990234375 191.998046875 c 0
 15.9990234375 220.09765625 20.80859375 247 29.658203125 272 c 1
 134.3984375 272 l 1
 130.198242188 246.799804688 127.998046875 219.899414062 127.998046875 191.999023438 c 0
 127.998046875 164.098632812 130.198242188 137.198242188 134.3984375 111.998046875 c 1
 29.658203125 111.998046875 l 1
475.999023438 96 m 1
 445.598632812 26.5 383.19921875 -25.900390625 307.499023438 -42.5 c 1
 337.899414062 -15.7001953125 362.19921875 34.2001953125 374.69921875 96 c 1
 475.999023438 96 l 1
137.299804688 96 m 1xfa40
 149.799804688 34.2001953125 174.099609375 -15.7001953125 204.5 -42.5 c 1
 128.799804688 -25.900390625 66.359375 26.5 35.9697265625 96 c 1
 137.299804688 96 l 1xfa40
EndSplineSet
Validated: 524297
Ligature2: "'liga' Ligaduras est+AOEA-ndar en Latin b+APoA-squeda 0 subtabla" i n s t a l o d
EndChar

StartChar: octopus-deploy
Encoding: 57474 57474 71
Width: 512
GlyphClass: 1
Flags: MW
HStem: -64 16<189.75 314.6 189.75 326.7> -16 16.001<248.701 260.5 248.701 264.251> 176.9 15.0996<251.301 251.302 251.302 300.101 300.101 300.102> 432 16<254.149 299.599>
VStem: 0 16.001<125.7 203.65 125.7 262.7> 184.002 15.999<106.899 125.2 113.9 125.199> 216.002 15.999<12.2998 62.1006 23.1006 62.0996> 344.001 16.001<123.898 123.9 123.9 132.099 132.099 132.101> 496 16<187.103 211.853>
LayerCount: 2
Fore
SplineSet
0 192 m 0
 0 50.599609375 114.599609375 -64 256 -64 c 0
 397.400390625 -64 512 50.599609375 512 192 c 0
 512 333.400390625 397.400390625 448 256 448 c 0
 114.599609375 448 0 333.400390625 0 192 c 0
256 -48 m 0
 123.5 -48 16.0009765625 59.400390625 16.0009765625 192 c 0
 16.0009765625 215.299804688 19.3212890625 237.799804688 25.51171875 259.099609375 c 1
 44.671875 220.799804688 l 2
 53.421875 203.299804688 68.921875 190.099609375 87.6015625 184.19921875 c 2
 156.401367188 162.69921875 l 2
 172.801757812 157.599609375 184.001953125 142.399414062 184.001953125 125.19921875 c 2
 184.001953125 113.899414062 l 2
 184.001953125 99.8994140625 191.90234375 87.099609375 204.40234375 80.7998046875 c 0
 211.501953125 77.2998046875 216.001953125 70.8994140625 216.001953125 62.099609375 c 2
 216.001953125 23.099609375 l 2
 216.001953125 1.5 233.501953125 -16 255.1015625 -16 c 0
 273.401367188 -16 289.201171875 -3.2998046875 293.201171875 14.6005859375 c 2
 298.1015625 36.7001953125 l 2
 301.301757812 50.7998046875 310.202148438 62.8994140625 322.702148438 70.099609375 c 2
 331.801757812 75.19921875 l 2
 349.202148438 85.19921875 360.001953125 103.798828125 360.001953125 123.8984375 c 2
 360.001953125 132.098632812 l 2
 360.001953125 146.999023438 354.1015625 161.19921875 343.6015625 171.69921875 c 2
 339.701171875 175.599609375 l 2
 329.201171875 186.099609375 314.1015625 192 300.1015625 192 c 2
 251.301757812 192 l 2
 245.1015625 192 238.1015625 193.400390625 233.401367188 196.200195312 c 2
 187.6015625 219.200195312 l 2
 183.901367188 221 180.1015625 223.900390625 179.201171875 227.600585938 c 2
 178.500976562 229.000976562 l 2
 174.201171875 237.500976562 177.701171875 247.901367188 186.201171875 252.201171875 c 0
 190.30078125 254.201171875 195.100585938 254.500976562 199.400390625 253.100585938 c 2
 223.600585938 245.900390625 l 2
 235.200195312 241.200195312 247.100585938 245.5 254.700195312 255.700195312 c 0
 261.400390625 265.700195312 260.700195312 278.900390625 253 288.100585938 c 2
 235.099609375 309.500976562 l 2
 230.099609375 315.500976562 230.19921875 324.30078125 235.298828125 330.201171875 c 2
 256.19921875 354.661132812 l 2
 266.69921875 366.880859375 268.899414062 384.190429688 261.69921875 398.580078125 c 2
 245.099609375 431.759765625 l 1
 248.69921875 431.919921875 252.298828125 432 255.999023438 432 c 0
 343.19921875 432 419.499023438 385.530273438 461.499023438 316.900390625 c 1
 406.899414062 291.200195312 l 2
 388.299804688 282.700195312 379 261.600585938 385.5 242.100585938 c 2
 402.099609375 189.700195312 l 2
 407.19921875 177.900390625 417.499023438 167.30078125 430.399414062 163.80078125 c 2
 491.799804688 147.900390625 l 1
 470.700195312 36 373.200195312 -48 256 -48 c 0
32.78125 280.299804688 m 1
 64.6611328125 360.830078125 138.799804688 419.97265625 227.899414062 430.373046875 c 1
 247.299804688 391.432617188 l 2
 251.700195312 382.79296875 250.400390625 372.413085938 244.100585938 365.073242188 c 2
 223.100585938 340.603515625 l 2
 212.100585938 328.803710938 212.80078125 311.303710938 222.80078125 299.303710938 c 2
 240.701171875 277.803710938 l 2
 243.901367188 274.103515625 244.201171875 268.703125 241.401367188 264.603515625 c 0
 238.701171875 260.403320312 233.401367188 258.603515625 228.701171875 260.203125 c 2
 204.500976562 268.302734375 l 2
 196.100585938 271.102539062 186.900390625 270.40234375 179.100585938 266.501953125 c 0
 162.600585938 258.202148438 155.900390625 238.202148438 164.200195312 221.801757812 c 2
 164.799804688 220.401367188 l 2
 168.200195312 213.701171875 173.700195312 208.201171875 180.400390625 204.80078125 c 2
 226.30078125 181.900390625 l 2
 234.100585938 178.900390625 242.600585938 176.900390625 251.30078125 176.900390625 c 2
 300.100585938 176.900390625 l 2
 310.700195312 176.900390625 320.900390625 171.80078125 328.400390625 164.30078125 c 2
 332.30078125 160.400390625 l 2
 339.80078125 152.900390625 344.000976562 142.700195312 344.000976562 132.100585938 c 2
 344.000976562 123.900390625 l 2
 344.000976562 109.5 336.30078125 96.2001953125 323.80078125 89.1005859375 c 2
 314.80078125 84.0009765625 l 2
 298.30078125 74.6005859375 286.600585938 58.6005859375 282.500976562 40.1005859375 c 2
 277.600585938 18.1005859375 l 2
 275.30078125 7.5009765625 265.900390625 0.0009765625 255.100585938 0.0009765625 c 0
 242.30078125 0.0009765625 232.000976562 10.30078125 232.000976562 23.1005859375 c 2
 232.000976562 62.1005859375 l 2
 232.000976562 76.1005859375 224.100585938 88.900390625 211.600585938 95.2001953125 c 0
 204.500976562 98.7001953125 200.000976562 106 200.000976562 113.900390625 c 2
 200.000976562 125.200195312 l 2
 200.000976562 149.400390625 184.30078125 170.80078125 161.201171875 178.900390625 c 2
 92.37109375 199.5 l 2
 77.8408203125 204.099609375 65.791015625 214.299804688 58.9814453125 227.899414062 c 2
 32.78125 280.299804688 l 1
434.600585938 179.203125 m 2
 426.900390625 181.302734375 420.701171875 187.203125 418.201171875 194.802734375 c 2
 400.701171875 247.203125 l 2
 396.80078125 258.903320312 402.400390625 271.603515625 413.5 276.603515625 c 2
 469.400390625 302.903320312 l 1
 486.400390625 269.103515625 496 231.703125 496 192.002929688 c 0
 496 182.203125 495.400390625 172.502929688 494.30078125 162.903320312 c 1
 434.600585938 179.203125 l 2
EndSplineSet
Validated: 524841
Ligature2: "'liga' Ligaduras est+AOEA-ndar en Latin b+APoA-squeda 0 subtabla" o c t o p u s hyphen d e p l o y
EndChar

StartChar: perbyte
Encoding: 57475 57475 72
Width: 448
GlyphClass: 1
Flags: MW
HStem: -32 16<32 64 384 416> 48 16<32 40 56 64 384 392 408 416> 320 16<32 40 40 40 56 64 384 392 392 392 408 416> 400 16<32 64 384 416>
VStem: 0 16<-8.8501 32 0 32 352 384> 80 16<-4.3999 8 0 8 24 32 352 360 376 384> 352 16<-8.8501 32 0 8 24 24 24 32 352 360 376 384 376 376> 432 16<-4.3999 32 0 32 352 384>
LayerCount: 2
Fore
SplineSet
416 416 m 2
 384 416 l 2
 366.299804688 416 352 401.669921875 352 384 c 2
 352 376 l 1
 96 376 l 1
 96 384 l 2
 96 401.669921875 81.669921875 416 64 416 c 2
 32 416 l 2
 14.330078125 416 0 401.669921875 0 384 c 2
 0 352 l 2
 0 334.299804688 14.330078125 320 32 320 c 2
 40 320 l 1
 40 64 l 1
 32 64 l 2
 14.330078125 64 0 49.7001953125 0 32 c 2
 0 0 l 2
 0 -17.7001953125 14.330078125 -32 32 -32 c 2
 64 -32 l 2
 81.669921875 -32 96 -17.7001953125 96 0 c 2
 96 8 l 1
 352 8 l 1
 352 0 l 2
 352 -17.7001953125 366.299804688 -32 384 -32 c 2
 416 -32 l 2
 433.700195312 -32 448 -17.7001953125 448 0 c 2
 448 32 l 2
 448 49.7001953125 433.700195312 64 416 64 c 2
 408 64 l 1
 408 320 l 1
 416 320 l 2
 433.700195312 320 448 334.299804688 448 352 c 2
 448 384 l 2
 448 401.669921875 433.700195312 416 416 416 c 2
416 400 m 2
 424.799804688 400 432 392.83984375 432 384 c 2
 432 352 l 2
 432 343.200195312 424.799804688 336 416 336 c 2
 384 336 l 2
 375.200195312 336 368 343.200195312 368 352 c 2
 368 384 l 2
 368 392.83984375 375.200195312 400 384 400 c 2
 416 400 l 2
56 64 m 1
 56 320 l 1
 64 320 l 2
 81.669921875 320 96 334.299804688 96 352 c 2
 96 360 l 1
 352 360 l 1
 352 352 l 2
 352 334.299804688 366.299804688 320 384 320 c 2
 392 320 l 1
 392 64 l 1
 384 64 l 2
 366.299804688 64 352 49.7001953125 352 32 c 2
 352 24 l 1
 96 24 l 1
 96 32 l 2
 96 49.7001953125 81.669921875 64 64 64 c 2
 56 64 l 1
16 32 m 2
 16 40.7998046875 23.16015625 48 32 48 c 2
 64 48 l 2
 72.83984375 48 80 40.7998046875 80 32 c 2
 80 0 l 2
 80 -8.7998046875 72.83984375 -16 64 -16 c 2
 32 -16 l 2
 23.16015625 -16 16 -8.7998046875 16 0 c 2
 16 32 l 2
368 32 m 2
 368 40.7998046875 375.200195312 48 384 48 c 2
 416 48 l 2
 424.799804688 48 432 40.7998046875 432 32 c 2
 432 0 l 2
 432 -8.7998046875 424.799804688 -16 416 -16 c 2
 384 -16 l 2
 375.200195312 -16 368 -8.7998046875 368 0 c 2
 368 32 l 2
16 384 m 2
 16 392.83984375 23.16015625 400 32 400 c 2
 64 400 l 2
 72.83984375 400 80 392.83984375 80 384 c 2
 80 352 l 2
 80 343.200195312 72.83984375 336 64 336 c 2
 32 336 l 2
 23.16015625 336 16 343.200195312 16 352 c 2
 16 384 l 2
EndSplineSet
Validated: 524297
Ligature2: "'liga' Ligaduras est+AOEA-ndar en Latin b+APoA-squeda 0 subtabla" p e r b y t e
EndChar

StartChar: uncharted
Encoding: 57476 57476 73
Width: 640
GlyphClass: 1
Flags: MW
HStem: -31.999 16<282.198 341.048 282.198 343.448> 80.001 15.999<296.397 320.897 296.397 323.898> 288.9 16<318.647 343.147> 400.901 16<298.5 357.351>
VStem: 414.497 17.4004<195.4 209.2>
LayerCount: 2
Fore
SplineSet
636.099609375 -49.7001953125 m 2
 12.9794921875 446.262695312 l 2
 9.51953125 449.012695312 4.486328125 448.4375 1.7373046875 444.979492188 c 0
 -1.0126953125 441.520507812 -0.4375 436.491210938 3.021484375 433.741210938 c 2
 626.999023438 -62.298828125 l 2
 630.499023438 -64.9990234375 635.499023438 -64.3994140625 638.298828125 -60.099609375 c 0
 640.999023438 -57.5 640.399414062 -52.5 636.099609375 -49.7001953125 c 2
605.5 179.701171875 m 0
 608.799804688 187.6015625 608.798828125 196.401367188 605.499023438 204.301757812 c 0
 590.69921875 240.901367188 559.399414062 292.000976562 512.599609375 335.401367188 c 0
 465.5 379.161132812 400.799804688 416.901367188 320 416.901367188 c 0
 272.200195312 416.901367188 229.900390625 403.081054688 193.700195312 383.451171875 c 1
 207.400390625 372.6015625 l 1
 240.30078125 389.311523438 277.900390625 400.901367188 319.100585938 400.901367188 c 0
 395.600585938 400.901367188 456.600585938 365.591796875 501.700195312 323.702148438 c 0
 546.600585938 282.001953125 576.700195312 232.90234375 590.799804688 198.202148438 c 0
 592.399414062 194.202148438 592.399414062 189.801757812 590.799804688 185.801757812 c 0
 581.700195312 164.901367188 566 135.6015625 543.099609375 106.901367188 c 1
 556.5 97.0009765625 l 1
 579.5 126.901367188 595.900390625 156.701171875 605.5 179.701171875 c 0
83.458984375 287.901367188 m 1
 60.458984375 257.1015625 44.056640625 227.30078125 34.45703125 204.30078125 c 0
 31.1767578125 196.400390625 31.1767578125 187.600585938 34.45703125 179.700195312 c 0
 49.3369140625 144 80.6171875 92.900390625 127.397460938 48.6005859375 c 0
 174.497070312 4.80078125 239.197265625 -31.9990234375 319.09765625 -31.9990234375 c 0
 367.797851562 -31.9990234375 410.09765625 -19.0986328125 446.297851562 0.5009765625 c 1
 432.59765625 11.4013671875 l 1
 399.697265625 -5.298828125 362.09765625 -15.9990234375 319.998046875 -15.9990234375 c 0
 244.3984375 -15.9990234375 183.3984375 18.4013671875 138.298828125 60.3017578125 c 0
 93.37890625 102.901367188 63.3388671875 152.000976562 49.228515625 185.80078125 c 0
 47.5888671875 189.80078125 47.5888671875 194.201171875 49.228515625 198.201171875 c 0
 58.30859375 220.000976562 73.9990234375 248.401367188 96.0185546875 277.1015625 c 1
 83.458984375 287.901367188 l 1
207.997070312 188.600585938 m 1
 209.796875 128.30078125 259.297851562 80.0009765625 319.998046875 80.0009765625 c 0
 327.797851562 80.0009765625 335.397460938 80.80078125 342.697265625 82.30078125 c 1
 325.197265625 96.1005859375 l 2
 323.497070312 96.900390625 321.796875 96 319.997070312 96 c 0
 272.796875 96 233.596679688 130.900390625 225.497070312 174.900390625 c 1
 207.997070312 188.600585938 l 1
319.09765625 304.900390625 m 0
 312.197265625 304.900390625 304.596679688 303.200195312 297.296875 301.700195312 c 1
 314.796875 287.900390625 l 2
 316.497070312 288 318.197265625 288.900390625 319.09765625 288.900390625 c 0
 367.197265625 288.900390625 406.397460938 254 414.497070312 209.200195312 c 1
 431.897460938 195.400390625 l 1
 430.197265625 255.700195312 380.697265625 304.900390625 319.09765625 304.900390625 c 0
EndSplineSet
Validated: 524329
Ligature2: "'liga' Ligaduras est+AOEA-ndar en Latin b+APoA-squeda 0 subtabla" u n c h a r t e d
EndChar

StartChar: watchman-monitoring
Encoding: 57479 57479 74
Width: 512
GlyphClass: 1
Flags: MW
HStem: -64 16<189.75 322.25 189.75 326.7> 24 16<214.05 297.95 214.05 302.4> 120 16<240.55 271.45 240.55 275.9> 248 16<240.55 271.45> 344 16<214.05 297.95> 432 16<189.75 322.25>
VStem: 0 16<125.75 258.25 125.75 262.7> 88 16<150.05 233.95 150.05 238.4> 184 16<176.55 207.45 176.55 211.9> 312 16<176.55 207.45> 408 16<150.05 233.95> 496 16<125.75 258.25>
LayerCount: 2
Fore
SplineSet
328 192 m 0
 328 231.799804688 295.799804688 264 256 264 c 0
 216.200195312 264 184 231.799804688 184 192 c 0
 184 152.200195312 216.200195312 120 256 120 c 0
 295.799804688 120 328 152.200195312 328 192 c 0
256 248 m 0
 286.900390625 248 312 222.900390625 312 192 c 0
 312 161.099609375 286.900390625 136 256 136 c 0
 225.099609375 136 200 161.099609375 200 192 c 0
 200 222.900390625 225.099609375 248 256 248 c 0
88 192 m 0
 88 99.2001953125 163.200195312 24 256 24 c 0
 348.799804688 24 424 99.2001953125 424 192 c 0
 424 284.799804688 348.799804688 360 256 360 c 0
 163.200195312 360 88 284.799804688 88 192 c 0
256 40 m 0
 172.099609375 40 104 108.099609375 104 192 c 0
 104 275.900390625 172.099609375 344 256 344 c 0
 339.900390625 344 408 275.900390625 408 192 c 0
 408 108.099609375 339.900390625 40 256 40 c 0
0 192 m 0
 0 50.599609375 114.599609375 -64 256 -64 c 0
 397.400390625 -64 512 50.599609375 512 192 c 0
 512 333.400390625 397.400390625 448 256 448 c 0
 114.599609375 448 0 333.400390625 0 192 c 0
256 -48 m 0
 123.5 -48 16 59.5 16 192 c 0
 16 324.5 123.5 432 256 432 c 0
 388.5 432 496 324.5 496 192 c 0
 496 59.5 388.5 -48 256 -48 c 0
EndSplineSet
Validated: 524809
Ligature2: "'liga' Ligaduras est+AOEA-ndar en Latin b+APoA-squeda 0 subtabla" w a t c h m a n hyphen m o n i t o r i n g
EndChar

StartChar: wodu
Encoding: 57480 57480 75
Width: 512
GlyphClass: 1
Flags: MW
HStem: -32 16<64.001 448.001> 48 16<229.05 282.5 229.05 286.95> 256 16<229.05 282.5> 336 16<64.001 138.701 373.301 448.001> 400 15.999<194.601 194.602 194.602 317.4 317.4 317.401>
VStem: 0.000976562 16<14.3501 288 32 288> 144 16<133.5 186.95 133.5 190.95> 352 16<133.5 186.95> 496.001 16<18.75 288 32 288>
LayerCount: 2
Fore
SplineSet
144 160 m 0
 144 98.099609375 194.099609375 48 256 48 c 0
 317.900390625 48 368 98.099609375 368 160 c 0
 368 221.900390625 317.900390625 272 256 272 c 0
 194.099609375 272 144 221.900390625 144 160 c 0
256 256 m 0
 309 256 352 213.900390625 352 160 c 0
 352 107 309 64 256 64 c 0
 202.099609375 64 160 107 160 160 c 0
 160 213.900390625 202.099609375 256 256 256 c 0
362.900390625 383.1796875 m 2
 356.400390625 402.779296875 338.1015625 415.999023438 317.401367188 415.999023438 c 2
 194.6015625 415.999023438 l 2
 173.901367188 415.999023438 155.6015625 402.779296875 149.1015625 383.1796875 c 2
 138.701171875 352 l 1
 64.0009765625 352 l 2
 28.6513671875 352 0.0009765625 323.299804688 0.0009765625 288 c 2
 0.0009765625 32 l 2
 0.0009765625 -3.2998046875 28.6513671875 -32 64.0009765625 -32 c 2
 448.000976562 -32 l 2
 483.30078125 -32 512.000976562 -3.2998046875 512.000976562 32 c 2
 512.000976562 288 l 2
 512.000976562 323.299804688 483.30078125 352 448.000976562 352 c 2
 373.30078125 352 l 1
 362.900390625 383.1796875 l 2
64.0009765625 336 m 2
 150.200195312 336 l 1
 164.200195312 378.120117188 l 2
 168.600585938 391.190429688 180.80078125 400 194.600585938 400 c 2
 317.400390625 400 l 2
 331.200195312 400 343.400390625 391.190429688 347.80078125 378.120117188 c 2
 361.80078125 336 l 1
 448.000976562 336 l 2
 474.500976562 336 496.000976562 314.5 496.000976562 288 c 2
 496.000976562 32 l 2
 496.000976562 5.5 474.500976562 -16 448.000976562 -16 c 2
 64.0009765625 -16 l 2
 37.4912109375 -16 16.0009765625 5.5 16.0009765625 32 c 2
 16.0009765625 288 l 2
 16.0009765625 314.5 37.4912109375 336 64.0009765625 336 c 2
EndSplineSet
Validated: 524297
Ligature2: "'liga' Ligaduras est+AOEA-ndar en Latin b+APoA-squeda 0 subtabla" w o d u
EndChar

StartChar: wirsindhandwerk
Encoding: 58064 58064 76
Width: 512
GlyphClass: 1
Flags: MW
VStem: 128.103 25.6768 409.498 25.625
LayerCount: 2
Fore
SplineSet
89.7021484375 268.90234375 m 2
 82.6376953125 268.90234375 76.90234375 263.166992188 76.90234375 256.102539062 c 2
 76.90234375 25.7021484375 l 2
 76.90234375 18.6376953125 82.6376953125 12.90234375 89.7021484375 12.90234375 c 2
 320.102539062 12.90234375 l 2
 327.166992188 12.90234375 332.90234375 18.6376953125 332.90234375 25.7021484375 c 2
 332.90234375 256.102539062 l 2
 332.90234375 263.166992188 327.166992188 268.90234375 320.102539062 268.90234375 c 2
 89.7021484375 268.90234375 l 2
191.897460938 371.09765625 m 2
 188.372070312 371.096679688 185.17578125 369.669921875 182.860351562 367.360351562 c 2
 131.83984375 316.338867188 l 2
 129.533203125 314.2578125 128.08203125 311.24609375 128.08203125 307.897460938 c 0
 128.08203125 307.694335938 128.091796875 307.502929688 128.102539062 307.302734375 c 0
 128.09765625 307.29296875 128.102539062 294.501953125 128.102539062 294.501953125 c 1
 153.702148438 294.501953125 l 1
 153.779296875 302.080078125 l 1
 197.197265625 345.498046875 l 1
 409.498046875 345.498046875 l 1
 409.498046875 133.197265625 l 1
 366.080078125 89.75390625 l 1
 358.528320312 89.7021484375 l 1
 358.528320312 64.1025390625 l 1
 371.328125 64.1025390625 l 2
 371.513671875 64.09375 371.700195312 64.0888671875 371.887695312 64.0888671875 c 0
 375.157226562 64.0888671875 378.099609375 65.4599609375 380.185546875 67.6611328125 c 0
 380.193359375 67.6640625 431.385742188 118.860351562 431.385742188 118.860351562 c 2
 433.6953125 121.17578125 435.122070312 124.372070312 435.123046875 127.897460938 c 1
 435.125 127.895507812 435.123046875 358.297851562 435.123046875 358.297851562 c 2
 435.123046875 365.362304688 429.387695312 371.09765625 422.323242188 371.09765625 c 2
 191.897460938 371.09765625 l 2
EndSplineSet
Validated: 524329
Ligature2: "'liga' Ligaduras est+AOEA-ndar en Latin b+APoA-squeda 0 subtabla" w s h
Ligature2: "'liga' Ligaduras est+AOEA-ndar en Latin b+APoA-squeda 0 subtabla" w i r s i n d h a n d w e r k
EndChar

StartChar: bots
Encoding: 58176 58176 77
Width: 640
GlyphClass: 1
Flags: MW
HStem: 15.7998 25.6006 348.601 25.5996
VStem: 145.6 25.6006 478.349 25.6514
LayerCount: 2
Fore
SplineSet
324.799804688 374.200195312 m 0
 225.983398438 374.200195312 145.599609375 293.81640625 145.599609375 195 c 0
 145.599609375 96.18359375 225.983398438 15.7998046875 324.799804688 15.7998046875 c 0
 423.616210938 15.7998046875 504 96.18359375 504 195 c 0
 504 293.81640625 423.616210938 374.200195312 324.799804688 374.200195312 c 0
324.799804688 348.599609375 m 1
 324.861328125 348.599609375 324.922851562 348.600585938 324.984375 348.600585938 c 0
 409.353515625 348.600585938 477.8984375 280.313476562 478.348632812 196.049804688 c 1
 449.907226562 171.8828125 401.471679688 143.799804688 324.799804688 143.799804688 c 1
 324.799804688 41.400390625 l 1
 239.807617188 41.400390625 171.200195312 110.0078125 171.200195312 195 c 2
 171.250976562 196.100585938 l 1
 199.692382812 171.934570312 248.076171875 143.799804688 324.799804688 143.799804688 c 1
 324.799804688 348.599609375 l 1
EndSplineSet
Validated: 524293
Ligature2: "'liga' Ligaduras est+AOEA-ndar en Latin b+APoA-squeda 0 subtabla" b o t s
EndChar

StartChar: cmplid
Encoding: 58208 58208 78
Width: 640
GlyphClass: 1
Flags: W
LayerCount: 2
Fore
SplineSet
176.200195312 345 m 1
 176.200195312 268.200195312 l 1
 253 268.200195312 l 1
 253 345 l 1
 176.200195312 345 l 1
253 268.200195312 m 1
 253 191.400390625 l 1
 329.799804688 191.400390625 l 1
 329.799804688 268.200195312 l 1
 253 268.200195312 l 1
329.799804688 268.200195312 m 1
 406.599609375 268.200195312 l 1
 406.599609375 345 l 1
 329.799804688 345 l 1
 329.799804688 268.200195312 l 1
406.599609375 268.200195312 m 1
 406.599609375 191.400390625 l 1
 483.399414062 191.400390625 l 1
 483.399414062 268.200195312 l 1
 406.599609375 268.200195312 l 1
406.599609375 191.400390625 m 1
 329.799804688 191.400390625 l 1
 329.799804688 114.600585938 l 1
 406.599609375 114.600585938 l 1
 406.599609375 191.400390625 l 1
406.599609375 114.600585938 m 1
 406.599609375 37.80078125 l 1
 483.399414062 37.80078125 l 1
 483.399414062 114.600585938 l 1
 406.599609375 114.600585938 l 1
329.799804688 114.600585938 m 1
 253 114.600585938 l 1
 253 37.80078125 l 1
 329.799804688 37.80078125 l 1
 329.799804688 114.600585938 l 1
253 114.600585938 m 1
 253 191.400390625 l 1
 176.200195312 191.400390625 l 1
 176.200195312 114.600585938 l 1
 253 114.600585938 l 1
163.399414062 370.600585938 m 2
 156.334960938 370.600585938 150.599609375 364.865234375 150.599609375 357.80078125 c 2
 150.599609375 25 l 2
 150.599609375 17.935546875 156.334960938 12.2001953125 163.399414062 12.2001953125 c 2
 496.200195312 12.2001953125 l 2
 503.264648438 12.2001953125 509 17.935546875 509 25 c 2
 509 357.80078125 l 2
 509 364.865234375 503.264648438 370.600585938 496.200195312 370.600585938 c 2
 163.399414062 370.600585938 l 2
176.200195312 345 m 1
 483.399414062 345 l 1
 483.399414062 37.80078125 l 1
 176.200195312 37.80078125 l 1
 176.200195312 345 l 1
EndSplineSet
Validated: 524293
Ligature2: "'liga' Ligaduras est+AOEA-ndar en Latin b+APoA-squeda 0 subtabla" c m p l i d
EndChar

StartChar: bilibili
Encoding: 58329 58329 79
Width: 512
GlyphClass: 1
Flags: MW
HStem: 115.076 76.7705
VStem: 179.276 76.6211
LayerCount: 2
Fore
SplineSet
319.461914062 370.662109375 m 2
 294.65625 370.252929688 l 2
 294.16015625 370.241210938 293.680664062 370.20703125 293.197265625 370.150390625 c 0
 227.09765625 361.702148438 175.94921875 303.590820312 179.276367188 236.646484375 c 0
 179.993164062 221.669921875 185.190429688 208.538085938 190.541015625 195.7890625 c 1
 93.64453125 98.892578125 l 2
 85.017578125 91.033203125 78.28515625 80.23046875 77.2607421875 67.4052734375 c 0
 76.236328125 54.5791015625 81.6640625 40.78125 93.2607421875 29.2099609375 c 0
 104.857421875 17.5869140625 118.758789062 12.3388671875 131.456054688 13.4912109375 c 0
 144.153320312 14.6435546875 154.649414062 21.2734375 162.559570312 29.2099609375 c 2
 260.01953125 126.643554688 l 1
 273.510742188 120.8828125 287.385742188 115.55859375 303.360351562 115.123046875 c 0
 304.528320312 115.091796875 305.700195312 115.076171875 306.875 115.076171875 c 0
 373.225585938 115.076171875 427.810546875 165.749023438 434.303710938 230.400390625 c 1
 434.357421875 230.26953125 434.8671875 255.155273438 434.8671875 255.155273438 c 2
 434.870117188 255.259765625 434.87109375 255.364257812 434.87109375 255.46875 c 0
 434.87109375 262.533203125 429.135742188 268.268554688 422.071289062 268.268554688 c 0
 418.53125 268.268554688 415.323242188 266.825195312 413.004882812 264.499023438 c 1
 413.006835938 264.502929688 340.198242188 191.846679688 340.198242188 191.846679688 c 1
 299.596679688 191.846679688 l 1
 255.897460938 235.545898438 l 1
 255.897460938 276.147460938 l 1
 328.704101562 348.799804688 l 2
 331.028320312 351.118164062 332.467773438 354.323242188 332.467773438 357.862304688 c 0
 332.467773438 364.926757812 326.732421875 370.662109375 319.66796875 370.662109375 c 0
 319.598632812 370.662109375 319.53125 370.663085938 319.461914062 370.662109375 c 2
EndSplineSet
Validated: 524329
Ligature2: "'liga' Ligaduras est+AOEA-ndar en Latin b+APoA-squeda 0 subtabla" b i l i b i l i
EndChar

StartChar: golang
Encoding: 58383 58383 80
Width: 640
GlyphClass: 1
Flags: MW
HStem: 219.199 76.8008
VStem: 346.399 76.8008
LayerCount: 2
Fore
SplineSet
257.388671875 219.19921875 m 0
 257.194335938 219.208007812 257.015625 219.2265625 256.819335938 219.2265625 c 0
 252.053710938 219.2265625 247.892578125 216.616210938 245.689453125 212.748046875 c 2
 245.689453125 212.748046875 143.28125 33.53515625 143.2890625 33.548828125 c 1
 142.221679688 31.6796875 141.604492188 29.50390625 141.604492188 27.19921875 c 0
 141.604492188 20.13671875 147.336914062 14.40234375 154.399414062 14.3994140625 c 2
 154.399414062 14.3994140625 359.192382812 14.4130859375 359.200195312 14.3994140625 c 0
 366.25 14.416015625 371.961914062 20.1591796875 371.961914062 27.212890625 c 0
 371.961914062 29.517578125 371.3515625 31.6796875 370.284179688 33.548828125 c 2
 267.884765625 212.748046875 l 2
 265.780273438 216.444335938 261.887695312 218.978515625 257.388671875 219.19921875 c 0
384.799804688 296 m 0
 363.731445312 296 346.399414062 278.66796875 346.399414062 257.599609375 c 0
 346.399414062 236.53125 363.731445312 219.19921875 384.799804688 219.19921875 c 0
 405.868164062 219.19921875 423.200195312 236.53125 423.200195312 257.599609375 c 0
 423.200195312 278.66796875 405.868164062 296 384.799804688 296 c 0
154.399414062 372.799804688 m 2
 147.334960938 372.799804688 141.599609375 367.064453125 141.599609375 360 c 2
 141.599609375 82.1884765625 l 1
 167.200195312 126.98828125 l 1
 167.200195312 347.19921875 l 1
 474.399414062 347.19921875 l 1
 474.399414062 40 l 1
 395.040039062 40 l 1
 398.188476562 31.2958984375 398.03515625 22.412109375 395.142578125 14.3994140625 c 1
 487.200195312 14.3994140625 l 2
 494.264648438 14.3994140625 500 20.134765625 500 27.19921875 c 2
 500 360 l 2
 500 367.064453125 494.264648438 372.799804688 487.200195312 372.799804688 c 2
 154.399414062 372.799804688 l 2
EndSplineSet
Validated: 524329
Ligature2: "'liga' Ligaduras est+AOEA-ndar en Latin b+APoA-squeda 0 subtabla" g o l a n g
EndChar

StartChar: pix
Encoding: 58426 58426 81
Width: 512
GlyphClass: 1
Flags: MW
HStem: 51.2002 25.5996
LayerCount: 2
Fore
SplineSet
140.799804688 281.599609375 m 1
 140.799804688 153.599609375 l 1
 371.200195312 153.599609375 l 1
 371.200195312 281.599609375 l 1
 140.799804688 281.599609375 l 1
102.400390625 332.799804688 m 2
 95.3359375 332.799804688 89.599609375 327.064453125 89.599609375 320 c 2
 89.599609375 115.200195312 l 2
 89.599609375 108.135742188 95.3359375 102.400390625 102.400390625 102.400390625 c 2
 243.200195312 102.400390625 l 1
 243.200195312 76.7998046875 l 1
 179.200195312 76.7998046875 l 2
 161.89453125 77.0556640625 161.89453125 50.9443359375 179.200195312 51.2001953125 c 2
 332.799804688 51.2001953125 l 2
 349.619140625 51.4306640625 349.619140625 76.5439453125 332.799804688 76.7998046875 c 2
 268.799804688 76.7998046875 l 1
 268.799804688 102.400390625 l 1
 409.599609375 102.400390625 l 2
 416.6640625 102.400390625 422.400390625 108.135742188 422.400390625 115.200195312 c 2
 422.400390625 320 l 2
 422.400390625 327.064453125 416.6640625 332.799804688 409.599609375 332.799804688 c 2
 102.400390625 332.799804688 l 2
115.200195312 307.200195312 m 1
 396.799804688 307.200195312 l 1
 396.799804688 128 l 1
 115.200195312 128 l 1
 115.200195312 307.200195312 l 1
EndSplineSet
Validated: 524329
Ligature2: "'liga' Ligaduras est+AOEA-ndar en Latin b+APoA-squeda 0 subtabla" p i x
EndChar

StartChar: sitrox
Encoding: 58442 58442 82
Width: 448
GlyphClass: 1
Flags: MW
HStem: 12.7998 25.6006
VStem: 76.7998 25.6006
LayerCount: 2
Fore
SplineSet
191.794921875 371.200195312 m 0
 188.341796875 371.150390625 185.212890625 369.732421875 182.9375 367.461914062 c 1
 182.942382812 367.4609375 131.737304688 316.262695312 131.737304688 316.262695312 c 2
 129.41796875 313.942382812 127.982421875 310.73828125 127.982421875 307.202148438 c 0
 127.982421875 300.127929688 133.724609375 294.385742188 140.797851562 294.385742188 c 0
 144.334960938 294.385742188 147.54296875 295.817382812 149.862304688 298.137695312 c 0
 149.858398438 298.141601562 179.200195312 327.500976562 179.200195312 327.500976562 c 1
 179.200195312 133.298828125 l 1
 102.400390625 56.4990234375 l 1
 102.400390625 102.400390625 l 2
 102.401367188 102.469726562 102.401367188 102.540039062 102.401367188 102.610351562 c 0
 102.401367188 109.674804688 96.666015625 115.41015625 89.6015625 115.41015625 c 0
 89.53125 115.41015625 89.46484375 115.40625 89.3955078125 115.405273438 c 0
 82.42578125 115.293945312 76.8017578125 109.6015625 76.8017578125 102.606445312 c 0
 76.8017578125 102.536132812 76.798828125 102.469726562 76.7998046875 102.400390625 c 0
 76.8037109375 102.396484375 76.7998046875 25.599609375 76.7998046875 25.599609375 c 2
 76.7998046875 18.53515625 82.53515625 12.7998046875 89.599609375 12.7998046875 c 2
 166.400390625 12.7998046875 l 2
 173.46484375 12.7998046875 179.200195312 18.53515625 179.200195312 25.599609375 c 0
 179.200195312 32.6640625 173.46484375 38.400390625 166.400390625 38.400390625 c 2
 120.499023438 38.400390625 l 1
 197.298828125 115.200195312 l 1
 391.500976562 115.200195312 l 1
 362.137695312 85.8623046875 l 2
 359.817382812 83.54296875 358.381835938 80.3388671875 358.381835938 76.8017578125 c 0
 358.381835938 69.728515625 364.125 63.9853515625 371.198242188 63.9853515625 c 0
 374.735351562 63.9853515625 377.942382812 65.41796875 380.262695312 67.7373046875 c 2
 431.461914062 118.9375 l 2
 433.786132812 121.255859375 435.224609375 124.459960938 435.224609375 127.998046875 c 0
 435.224609375 131.536132812 433.786132812 134.744140625 431.461914062 137.0625 c 1
 431.461914062 137.05859375 380.262695312 188.262695312 380.262695312 188.262695312 c 2
 377.935546875 190.663085938 374.676757812 192.15625 371.072265625 192.15625 c 2
 371.046875 192.153320312 l 1
 371.01953125 192.153320312 l 2
 363.955078125 192.153320312 358.219726562 186.41796875 358.219726562 179.353515625 c 0
 358.219726562 175.736328125 359.721679688 172.466796875 362.137695312 170.137695312 c 2
 391.500976562 140.799804688 l 1
 204.799804688 140.799804688 l 1
 204.799804688 327.500976562 l 1
 234.137695312 298.137695312 l 2
 236.45703125 295.817382812 239.661132812 294.381835938 243.198242188 294.381835938 c 0
 250.271484375 294.381835938 256.014648438 300.125 256.014648438 307.198242188 c 0
 256.014648438 310.735351562 254.58203125 313.942382812 252.262695312 316.262695312 c 2
 201.0625 367.461914062 l 2
 198.74609375 369.7734375 195.549804688 371.204101562 192.022460938 371.204101562 c 0
 191.946289062 371.204101562 191.872070312 371.201171875 191.794921875 371.200195312 c 0
EndSplineSet
Validated: 524329
Ligature2: "'liga' Ligaduras est+AOEA-ndar en Latin b+APoA-squeda 0 subtabla" s i t r o x
EndChar

StartChar: hashnode
Encoding: 58521 58521 83
Width: 512
GlyphClass: 1
Flags: MW
VStem: 76.7998 25.6006 409.6 25.6006
LayerCount: 2
Fore
SplineSet
153.599609375 281.599609375 m 1
 153.599609375 243.200195312 l 1
 179.200195312 243.200195312 l 1
 179.200195312 281.599609375 l 1
 153.599609375 281.599609375 l 1
153.599609375 217.599609375 m 1
 153.599609375 166.400390625 l 1
 179.200195312 166.400390625 l 1
 179.200195312 217.599609375 l 1
 153.599609375 217.599609375 l 1
153.599609375 140.799804688 m 1
 153.599609375 108.032226562 l 1
 87.3984375 47.8720703125 l 1
 104.6015625 28.927734375 l 1
 171.23828125 89.548828125 l 1
 204.799804688 89.599609375 l 1
 204.799804688 115.200195312 l 1
 179.200195312 115.200195312 l 1
 179.200195312 140.799804688 l 1
 153.599609375 140.799804688 l 1
230.604492188 115.200195312 m 1
 230.604492188 89.599609375 l 1
 281.8046875 89.599609375 l 1
 281.8046875 115.200195312 l 1
 230.604492188 115.200195312 l 1
307.200195312 115.200195312 m 1
 307.200195312 89.599609375 l 1
 345.599609375 89.599609375 l 1
 345.599609375 115.200195312 l 1
 307.200195312 115.200195312 l 1
166.400390625 371.200195312 m 2
 162.874023438 371.200195312 159.653320312 369.772460938 157.337890625 367.461914062 c 1
 157.338867188 367.4609375 80.5380859375 290.662109375 80.5380859375 290.662109375 c 2
 78.2275390625 288.346679688 76.7978515625 285.151367188 76.7978515625 281.625 c 2
 76.7998046875 281.599609375 l 1
 76.7978515625 281.6015625 76.7998046875 25.599609375 76.7998046875 25.599609375 c 2
 76.7998046875 18.53515625 82.53515625 12.7998046875 89.599609375 12.7998046875 c 2
 345.599609375 12.7998046875 l 1
 345.623046875 12.7998046875 l 2
 349.149414062 12.7998046875 352.346679688 14.2275390625 354.662109375 16.5380859375 c 2
 431.461914062 93.337890625 l 2
 433.772460938 95.6533203125 435.202148438 98.8486328125 435.202148438 102.375 c 2
 435.200195312 102.400390625 l 1
 435.202148438 102.3984375 435.200195312 358.400390625 435.200195312 358.400390625 c 2
 435.200195312 365.46484375 429.46484375 371.200195312 422.400390625 371.200195312 c 2
 166.400390625 371.200195312 l 2
171.69921875 345.599609375 m 1
 391.500976562 345.599609375 l 1
 340.30078125 294.400390625 l 1
 120.499023438 294.400390625 l 1
 171.69921875 345.599609375 l 1
409.599609375 327.500976562 m 1
 409.599609375 107.69921875 l 1
 358.400390625 56.4990234375 l 1
 358.400390625 276.30078125 l 1
 409.599609375 327.500976562 l 1
102.400390625 268.799804688 m 1
 332.799804688 268.799804688 l 1
 332.799804688 38.400390625 l 1
 102.400390625 38.400390625 l 1
 102.400390625 268.799804688 l 1
EndSplineSet
Validated: 524325
Ligature2: "'liga' Ligaduras est+AOEA-ndar en Latin b+APoA-squeda 0 subtabla" h a s h n o d e
EndChar

StartChar: meta
Encoding: 58523 58523 84
Width: 640
GlyphClass: 1
Flags: MW
HStem: 28.3994 25.6006 284.399 25.6006
VStem: 201.2 25.5996 278 25.6006 354.8 25.6006 431.601 25.5996
LayerCount: 2
Fore
SplineSet
201.200195312 258.799804688 m 1
 201.200195312 73.2001953125 l 2
 201.200195312 60.7578125 205.551757812 49.1357421875 213.744140625 40.943359375 c 0
 221.936523438 32.751953125 233.55859375 28.3994140625 246 28.3994140625 c 2
 412.400390625 28.3994140625 l 2
 424.841796875 28.3994140625 436.463867188 32.751953125 444.65625 40.943359375 c 0
 452.848632812 49.1357421875 457.200195312 60.7578125 457.200195312 73.2001953125 c 2
 457.200195312 258.799804688 l 1
 431.600585938 258.799804688 l 1
 431.600585938 73.2001953125 l 2
 431.600585938 66.44140625 429.551757812 62.0634765625 426.556640625 59.04296875 c 0
 423.536132812 56.0478515625 419.1328125 54 412.400390625 54 c 2
 246 54 l 2
 239.2421875 54 234.864257812 56.0478515625 231.84375 59.04296875 c 0
 228.848632812 62.0634765625 226.799804688 66.466796875 226.799804688 73.2001953125 c 2
 226.799804688 258.799804688 l 1
 201.200195312 258.799804688 l 1
290.799804688 361.200195312 m 2
 283.735351562 361.200195312 278 355.463867188 278 348.399414062 c 2
 278 310 l 1
 188.400390625 310 l 2
 171.094726562 310.255859375 171.094726562 284.143554688 188.400390625 284.399414062 c 2
 470 284.399414062 l 2
 487.305664062 284.143554688 487.305664062 310.255859375 470 310 c 2
 380.400390625 310 l 1
 380.400390625 348.399414062 l 2
 380.400390625 355.463867188 374.665039062 361.200195312 367.600585938 361.200195312 c 2
 290.799804688 361.200195312 l 2
303.600585938 335.599609375 m 1
 354.799804688 335.599609375 l 1
 354.799804688 310 l 1
 303.600585938 310 l 1
 303.600585938 335.599609375 l 1
290.595703125 233.404296875 m 0
 283.631835938 233.3359375 277.999023438 227.662109375 277.999023438 220.681640625 c 0
 277.999023438 220.5859375 277.998046875 220.495117188 278 220.399414062 c 0
 278.002929688 220.39453125 278 118 278 118 c 2
 277.744140625 100.694335938 303.856445312 100.694335938 303.600585938 118 c 2
 303.600585938 220.399414062 l 2
 303.6015625 220.469726562 303.6015625 220.540039062 303.6015625 220.610351562 c 0
 303.6015625 227.674804688 297.866210938 233.41015625 290.801757812 233.41015625 c 0
 290.731445312 233.41015625 290.665039062 233.405273438 290.595703125 233.404296875 c 0
367.395507812 233.404296875 m 0
 360.431640625 233.3359375 354.799804688 227.662109375 354.799804688 220.681640625 c 0
 354.799804688 220.5859375 354.797851562 220.495117188 354.799804688 220.399414062 c 0
 354.802734375 220.39453125 354.799804688 118 354.799804688 118 c 2
 354.543945312 100.694335938 380.65625 100.694335938 380.400390625 118 c 2
 380.400390625 220.399414062 l 2
 380.401367188 220.469726562 380.40234375 220.540039062 380.40234375 220.610351562 c 0
 380.40234375 227.674804688 374.666015625 233.41015625 367.6015625 233.41015625 c 0
 367.53125 233.41015625 367.46484375 233.405273438 367.395507812 233.404296875 c 0
EndSplineSet
Validated: 524329
Ligature2: "'liga' Ligaduras est+AOEA-ndar en Latin b+APoA-squeda 0 subtabla" m e t a
EndChar

StartChar: padlet
Encoding: 58528 58528 85
Width: 640
GlyphClass: 1
Flags: MW
HStem: 179.4 25.5996
VStem: 313.955 25.5996
LayerCount: 2
Fore
SplineSet
326.934570312 307.579101562 m 0
 326.881835938 307.580078125 326.829101562 307.580078125 326.776367188 307.580078125 c 0
 319.711914062 307.580078125 313.9765625 301.844726562 313.9765625 294.780273438 c 0
 313.9765625 294.727539062 313.979492188 294.677734375 313.98046875 294.625976562 c 0
 313.977539062 294.623046875 313.98046875 204.974609375 313.98046875 204.974609375 c 1
 224.329101562 204.974609375 l 2
 224.05859375 204.991210938 223.78515625 205 223.509765625 205 c 0
 216.4453125 205 210.708984375 199.264648438 210.708984375 192.200195312 c 0
 210.708984375 185.135742188 216.4453125 179.400390625 223.509765625 179.400390625 c 0
 223.78515625 179.400390625 224.05859375 179.408203125 224.329101562 179.42578125 c 2
 313.98046875 179.42578125 l 1
 313.98046875 89.7744140625 l 2
 313.962890625 89.5029296875 313.955078125 89.2294921875 313.955078125 88.9541015625 c 0
 313.955078125 81.8896484375 319.690429688 76.154296875 326.754882812 76.154296875 c 0
 333.819335938 76.154296875 339.5546875 81.8896484375 339.5546875 88.9541015625 c 0
 339.5546875 89.2294921875 339.546875 89.5029296875 339.529296875 89.7744140625 c 0
 339.528320312 89.7744140625 339.529296875 179.42578125 339.529296875 179.42578125 c 1
 429.180664062 179.42578125 l 2
 429.451171875 179.408203125 429.724609375 179.399414062 430 179.399414062 c 0
 437.064453125 179.399414062 442.80078125 185.134765625 442.80078125 192.19921875 c 0
 442.80078125 199.264648438 437.064453125 205 430 205 c 0
 429.724609375 205 429.451171875 204.991210938 429.180664062 204.974609375 c 0
 429.180664062 204.973632812 339.529296875 204.974609375 339.529296875 204.974609375 c 1
 339.529296875 294.625976562 l 2
 339.530273438 294.677734375 339.530273438 294.73046875 339.530273438 294.783203125 c 0
 339.530273438 301.779296875 333.903320312 307.467773438 326.934570312 307.579101562 c 0
EndSplineSet
Validated: 524329
Ligature2: "'liga' Ligaduras est+AOEA-ndar en Latin b+APoA-squeda 0 subtabla" p a d l e t
EndChar

StartChar: nfc-directional
Encoding: 58672 58672 86
Width: 512
GlyphClass: 1
Flags: W
LayerCount: 2
Fore
SplineSet
216.545898438 309.328125 m 1
 209.481445312 309.328125 203.74609375 303.592773438 203.74609375 296.528320312 c 0
 203.74609375 292.923828125 205.236328125 289.665039062 207.63671875 287.337890625 c 2
 301 194 l 1
 207.63671875 100.63671875 l 2
 205.2265625 98.30859375 203.7265625 95.0439453125 203.7265625 91.4306640625 c 0
 203.7265625 84.3662109375 209.461914062 78.630859375 216.526367188 78.630859375 c 0
 220.138671875 78.630859375 223.408203125 80.126953125 225.736328125 82.5380859375 c 1
 225.732421875 82.541015625 328.135742188 184.9375 328.135742188 184.9375 c 2
 330.452148438 187.254882812 331.885742188 190.454101562 331.885742188 193.985351562 c 0
 331.885742188 197.517578125 330.452148438 200.719726562 328.135742188 203.037109375 c 2
 225.736328125 305.436523438 l 2
 223.409179688 307.837890625 220.150390625 309.331054688 216.545898438 309.331054688 c 2
 216.520507812 309.328125 l 1
 216.520507812 309.331054688 216.545898438 309.328125 216.545898438 309.328125 c 1
EndSplineSet
Validated: 524837
Ligature2: "'liga' Ligaduras est+AOEA-ndar en Latin b+APoA-squeda 0 subtabla" n f c hyphen d i r e c t i o n a l
EndChar

StartChar: nfc-symbol
Encoding: 58673 58673 87
Width: 576
GlyphClass: 1
Flags: W
LayerCount: 2
Fore
SplineSet
184.083007812 255.147460938 m 0
 184.056640625 255.1484375 184.03125 255.1484375 184.004882812 255.1484375 c 0
 176.940429688 255.1484375 171.204101562 249.413085938 171.204101562 242.34765625 c 0
 171.204101562 238.73046875 172.70703125 235.4609375 175.123046875 233.131835938 c 2
 277.5234375 130.731445312 l 2
 279.840820312 128.408203125 283.045898438 126.969726562 286.583984375 126.969726562 c 0
 290.122070312 126.969726562 293.330078125 128.408203125 295.6484375 130.731445312 c 2
 398.047851562 233.131835938 l 2
 400.370117188 235.450195312 401.807617188 238.655273438 401.807617188 242.192382812 c 0
 401.807617188 249.260742188 396.068359375 255 389 255 c 0
 385.469726562 255 382.266601562 253.571289062 379.94921875 251.256835938 c 0
 379.952148438 251.252929688 286.5859375 157.893554688 286.5859375 157.893554688 c 1
 193.248046875 251.256835938 l 2
 190.926757812 253.651367188 187.676757812 255.140625 184.083007812 255.147460938 c 0
EndSplineSet
Validated: 524841
Ligature2: "'liga' Ligaduras est+AOEA-ndar en Latin b+APoA-squeda 0 subtabla" n f c hyphen s y m b o l
EndChar

StartChar: screenpal
Encoding: 58736 58736 88
Width: 512
GlyphClass: 1
Flags: MW
HStem: 166.579 25.6006<89.7021 108.902 108.902 108.902 172.902 192.103 89.7021 192.103>
VStem: 128.103 25.5996<217.779 358.579 217.779 358.579> 256.103 51.2002<294.579 307.379> 307.303 25.5996<51.3789 64.1797 38.5791 226.867 51.3789 51.3789> 358.502 25.6006<51.3789 64.1797 38.5791 226.816> 384.103 51.2002<294.579 294.579 294.579 319.91 288.179 371.379>
LayerCount: 2
Fore
SplineSet
283.23828125 371.37890625 m 1xd0
 266.514648438 355.171875 256.126953125 332.478515625 256.102539062 307.37890625 c 0xe0
 256.102539062 268.979492188 275.302734375 243.37890625 307.302734375 226.8671875 c 1
 307.302734375 51.37890625 l 2
 306.559570312 -0.5634765625 384.844726562 -0.5634765625 384.102539062 51.37890625 c 2xd8
 384.102539062 226.81640625 l 1
 417.125976562 243.865234375 435.302734375 268.979492188 435.302734375 307.37890625 c 0
 435.302734375 332.44140625 424.857421875 355.09765625 408.166015625 371.37890625 c 1
 384.102539062 371.37890625 l 1
 384.102539062 294.579101562 l 1xc4
 358.501953125 268.979492188 l 1
 332.90234375 268.979492188 l 1xd8
 307.302734375 294.579101562 l 1xe0
 307.302734375 371.37890625 l 1
 283.23828125 371.37890625 l 1xd0
332.90234375 64.1796875 m 1xd8
 358.501953125 64.1796875 l 1
 358.501953125 38.5791015625 l 1
 332.90234375 38.5791015625 l 1
 332.90234375 64.1796875 l 1xd8
153.702148438 217.779296875 m 1
 153.702148438 358.579101562 l 2
 153.702148438 365.643554688 147.966796875 371.37890625 140.90234375 371.37890625 c 0
 133.837890625 371.37890625 128.102539062 365.643554688 128.102539062 358.579101562 c 2
 128.102539062 217.779296875 l 1
 153.702148438 217.779296875 l 1
172.90234375 166.579101562 m 1
 192.102539062 166.579101562 l 2
 209.408203125 166.323242188 209.408203125 192.435546875 192.102539062 192.1796875 c 2
 89.7021484375 192.1796875 l 2
 72.396484375 192.435546875 72.396484375 166.323242188 89.7021484375 166.579101562 c 2
 108.90234375 166.579101562 l 1
 108.90234375 140.979492188 l 1
 89.7021484375 140.979492188 76.90234375 128.1796875 76.90234375 108.979492188 c 2
 76.90234375 76.9794921875 l 2
 76.90234375 56.8828125 84.8896484375 40.115234375 96.998046875 29.18359375 c 0
 108.41015625 19.1064453125 123.399414062 12.9873046875 139.806640625 12.9873046875 c 0
 140.01171875 12.9873046875 140.236328125 12.9775390625 140.44140625 12.9794921875 c 0
 156.057617188 12.9794921875 171.9296875 18.201171875 184.243164062 29.08203125 c 0
 196.58203125 39.935546875 204.90234375 56.7548828125 204.90234375 76.9794921875 c 2
 204.90234375 108.979492188 l 2
 204.90234375 128.1796875 192.102539062 140.979492188 172.90234375 140.979492188 c 1
 172.90234375 166.579101562 l 1
EndSplineSet
Validated: 524329
Ligature2: "'liga' Ligaduras est+AOEA-ndar en Latin b+APoA-squeda 0 subtabla" s c r e e n p a l
EndChar

StartChar: space-awesome
Encoding: 58796 58796 89
Width: 512
GlyphClass: 1
Flags: MW
HStem: 13.1582 25.6006<122.112 230.912 122.112 243.712>
VStem: 256.512 25.6006<55.8462 153.958 64.3584 153.958>
LayerCount: 2
Fore
SplineSet
362.470703125 370.713867188 m 0
 349.772460938 371.865234375 335.872070312 366.6171875 324.25 355.020507812 c 2
 279.44921875 310.220703125 l 2
 277.125976562 307.903320312 275.6875 304.698242188 275.6875 301.16015625 c 0
 275.6875 297.622070312 277.125976562 294.4140625 279.44921875 292.095703125 c 2
 356.25 215.295898438 l 2
 358.567382812 212.97265625 361.772460938 211.533203125 365.310546875 211.533203125 c 0
 368.848632812 211.533203125 372.056640625 212.97265625 374.374023438 215.295898438 c 1
 374.37109375 215.295898438 419.174804688 260.095703125 419.174804688 260.095703125 c 2
 430.771484375 271.71875 436.01953125 285.619140625 434.8671875 298.31640625 c 0
 433.71484375 311.014648438 427.059570312 321.510742188 419.174804688 329.420898438 c 2
 393.57421875 355.020507812 l 2
 385.638671875 362.905273438 375.142578125 369.561523438 362.470703125 370.713867188 c 0
249.907226562 275.55859375 m 0
 246.454101562 275.508789062 243.325195312 274.090820312 241.049804688 271.8203125 c 1
 241.0546875 271.819335938 234.649414062 265.420898438 234.649414062 265.420898438 c 2
 232.326171875 263.102539062 230.887695312 259.8984375 230.887695312 256.360351562 c 0
 230.887695312 252.822265625 232.326171875 249.614257812 234.649414062 247.295898438 c 2
 311.44921875 170.49609375 l 2
 313.767578125 168.171875 316.97265625 166.733398438 320.510742188 166.733398438 c 0
 324.048828125 166.733398438 327.256835938 168.171875 329.57421875 170.49609375 c 1
 329.571289062 170.49609375 335.974609375 176.896484375 335.974609375 176.896484375 c 2
 338.297851562 179.213867188 339.736328125 182.418945312 339.736328125 185.95703125 c 0
 339.736328125 189.495117188 338.297851562 192.703125 335.974609375 195.020507812 c 2
 259.174804688 271.8203125 l 2
 256.858398438 274.131835938 253.662109375 275.5625 250.134765625 275.5625 c 0
 250.057617188 275.5625 249.983398438 275.559570312 249.907226562 275.55859375 c 0
217.856445312 218.060546875 m 0
 214.412109375 217.969726562 211.298828125 216.517578125 209.049804688 214.220703125 c 1
 209.056640625 214.21875 100.25 105.420898438 100.25 105.420898438 c 2
 78.796875 83.9423828125 72.9091796875 60.416015625 79.71875 42.265625 c 0
 86.5283203125 24.08984375 103.987304688 13.158203125 122.112304688 13.158203125 c 2
 230.912109375 13.158203125 l 2
 256.51171875 13.158203125 282.112304688 33.5869140625 282.112304688 64.3583984375 c 2
 282.112304688 153.958007812 l 2
 282.112304688 161.022460938 276.376953125 166.758789062 269.311523438 166.758789062 c 0
 262.247070312 166.758789062 256.51171875 161.022460938 256.51171875 153.958007812 c 2
 256.51171875 64.3583984375 l 2
 256.51171875 47.333984375 243.609375 38.7587890625 230.912109375 38.7587890625 c 2
 122.112304688 38.7587890625 l 2
 113.827148438 38.9287109375 106.749023438 44.02734375 103.706054688 51.2509765625 c 0
 100.915039062 58.6748046875 101.401367188 70.3740234375 118.374023438 87.2958984375 c 2
 227.174804688 196.095703125 l 2
 229.563476562 198.421875 231.047851562 201.671875 231.047851562 205.265625 c 0
 231.047851562 212.330078125 225.311523438 218.065429688 218.247070312 218.065429688 c 0
 218.115234375 218.065429688 217.987304688 218.064453125 217.856445312 218.060546875 c 0
EndSplineSet
Validated: 524841
Ligature2: "'liga' Ligaduras est+AOEA-ndar en Latin b+APoA-squeda 0 subtabla" s p a c e hyphen a w e s o m e
EndChar

StartChar: square-font-awesome
Encoding: 58797 58797 90
Width: 448
GlyphClass: 1
Flags: MW
HStem: 230.323 25.5996<335.975 379.392>
VStem: 294.195 25.5996<167.169 210.125 170.701 210.125 170.701 243.123> 395.376 25.4365
LayerCount: 2
Fore
SplineSet
140.979492188 358.348632812 m 0
 139.606445312 358.43359375 138.223632812 358.477539062 136.830078125 358.477539062 c 0
 131.520507812 358.477539062 126.4453125 357.84375 121.498046875 356.659179688 c 0
 109.030273438 353.651367188 98.765625 345.006835938 93.59375 333.541992188 c 0
 88.55078125 321.9453125 88.37109375 308.30078125 91.6484375 292.8125 c 0
 104.704101562 230.860351562 169.446289062 147.737304688 246.24609375 87.2451171875 c 0
 284.646484375 57.0107421875 320.435546875 37.1201171875 350.38671875 29.2099609375 c 0
 365.36328125 25.2412109375 379.059570312 24.115234375 391.3984375 27.494140625 c 0
 404.08203125 30.9296875 414.334960938 40.271484375 418.995117188 52.4033203125 c 0
 428.262695312 77.2353515625 418.611328125 107.724609375 400.23046875 142.002929688 c 0
 385.254882812 169.958007812 363.110351562 200.37109375 335.974609375 230.323242188 c 1
 379.391601562 230.323242188 l 2
 386.456054688 230.323242188 392.192382812 236.05859375 392.192382812 243.123046875 c 0
 392.192382812 250.1875 386.456054688 255.922851562 379.391601562 255.922851562 c 2
 306.995117188 255.922851562 l 2
 299.930664062 255.922851562 294.1953125 250.1875 294.1953125 243.123046875 c 2
 294.1953125 170.701171875 l 2
 294.1953125 163.63671875 299.930664062 157.900390625 306.995117188 157.900390625 c 0
 314.059570312 157.900390625 319.794921875 163.63671875 319.794921875 170.701171875 c 2
 319.794921875 210.125 l 1
 344.448242188 182.451171875 364.390625 154.598632812 377.651367188 129.89453125 c 0
 394.470703125 98.5087890625 399.103515625 72.2177734375 395.059570312 61.36328125 c 0
 393.010742188 55.935546875 390.528320312 53.8115234375 384.639648438 52.1982421875 c 0
 378.751953125 50.5859375 369.203125 50.7392578125 356.9921875 53.96484375 c 0
 332.594726562 60.416015625 298.573242188 78.56640625 262.041992188 107.340820312 c 0
 188.979492188 164.889648438 127.001953125 249.318359375 116.736328125 298.060546875 c 0
 114.17578125 310.24609375 115.046875 318.6171875 117.094726562 323.353515625 c 0
 119.142578125 328.064453125 121.651367188 330.265625 127.692382812 331.75 c 0
 139.776367188 334.771484375 166.579101562 329.369140625 200.704101562 309.9140625 c 0
 202.572265625 308.846679688 204.735351562 308.237304688 207.0390625 308.237304688 c 0
 214.107421875 308.237304688 219.846679688 313.9765625 219.846679688 321.044921875 c 0
 219.846679688 325.809570312 217.266601562 329.954101562 213.401367188 332.16015625 c 0
 185.702148438 347.955078125 161.638671875 357.248046875 140.979492188 358.348632812 c 0
215.295898438 53.197265625 m 0
 217.642578125 55.517578125 219.081054688 58.7314453125 219.081054688 62.2890625 c 0
 219.081054688 69.353515625 213.345703125 75.08984375 206.28125 75.08984375 c 0
 203.983398438 75.08984375 201.826171875 74.482421875 199.961914062 73.4208984375 c 0
 163.302734375 52.736328125 135.833984375 48.998046875 125.260742188 53.22265625 c 0
 119.961914062 55.34765625 117.657226562 57.9326171875 116.122070312 64.716796875 c 0
 114.5859375 71.5009765625 115.225585938 82.7646484375 120.038085938 97.71484375 c 0
 139.23828125 157.491210938 216.140625 248.83203125 292.787109375 299.084960938 c 0
 331.135742188 324.223632812 363.059570312 334.208007812 379.391601562 332.697265625 c 0
 387.55859375 331.9296875 391.090820312 329.599609375 393.625976562 325.426757812 c 0
 396.185546875 321.280273438 397.82421875 313.369140625 395.571289062 300.723632812 c 0
 395.443359375 299.99609375 395.375976562 299.271484375 395.375976562 298.5078125 c 0
 395.375976562 291.434570312 401.119140625 285.69140625 408.192382812 285.69140625 c 0
 414.501953125 285.69140625 419.752929688 290.26171875 420.8125 296.268554688 c 0
 423.731445312 312.729492188 422.501953125 327.321289062 415.436523438 338.841796875 c 0
 408.37109375 350.361328125 395.545898438 356.940429688 381.721679688 358.220703125 c 0
 354.073242188 360.78125 319.616210938 347.263671875 278.758789062 320.486328125 c 0
 197.068359375 266.931640625 118.374023438 176.307617188 95.6416015625 105.57421875 c 0
 89.9580078125 87.884765625 88.08984375 72.5244140625 91.1103515625 59.0849609375 c 0
 94.015625 45.6650390625 103.370117188 34.638671875 115.7890625 29.4658203125 c 0
 140.594726562 19.533203125 172.825195312 28.7236328125 212.53125 51.1484375 c 0
 213.548828125 51.7080078125 214.470703125 52.392578125 215.295898438 53.197265625 c 0
EndSplineSet
Validated: 524837
Ligature2: "'liga' Ligaduras est+AOEA-ndar en Latin b+APoA-squeda 0 subtabla" s q u a r e hyphen f o n t hyphen a w e s o m e
EndChar

StartChar: square-gitlab
Encoding: 58798 58798 91
Width: 448
GlyphClass: 1
Flags: MW
HStem: 51.2002 25.7021
VStem: -31718.2 25.5996 -31513.1 25.5996
LayerCount: 2
Fore
SplineSet
-6322.76464844 -9689.21582031 m 0
 -6322.95898438 -9675.25390625 -6334.35449219 -9663.97851562 -6348.36230469 -9663.97851562 c 0
 -6348.48535156 -9663.97851562 -6348.60058594 -9663.97265625 -6348.72363281 -9663.97460938 c 0
 -6348.72949219 -9663.98046875 -6553.5234375 -9663.97460938 -6553.5234375 -9663.97460938 c 2
 -6588.13476562 -9663.46191406 -6588.13476562 -9715.68652344 -6553.5234375 -9715.17480469 c 2
 -6348.72363281 -9715.17480469 l 2
 -6348.60058594 -9715.17578125 -6348.47851562 -9715.17675781 -6348.35546875 -9715.17675781 c 0
 -6334.2265625 -9715.17675781 -6322.75585938 -9703.70605469 -6322.75585938 -9689.57714844 c 0
 -6322.75585938 -9689.45410156 -6322.76269531 -9689.33789062 -6322.76464844 -9689.21582031 c 0
EndSplineSet
Validated: 524841
Ligature2: "'liga' Ligaduras est+AOEA-ndar en Latin b+APoA-squeda 0 subtabla" s q u a r e hyphen g i t l a b
Ligature2: "'liga' Ligaduras est+AOEA-ndar en Latin b+APoA-squeda 0 subtabla" g i t l a b hyphen s q u a r e
EndChar

StartChar: square-twitter
Encoding: 61569 61569 92
Width: 448
GlyphClass: 1
Flags: MW
HStem: 27.498 333.004<177.55 269.446>
VStem: 56.9961 333.004<148.052 239.948>
LayerCount: 2
Fore
SplineSet
390 194 m 0
 390 285.895507812 315.393554688 360.501953125 223.498046875 360.501953125 c 0
 131.602539062 360.501953125 56.99609375 285.895507812 56.99609375 194 c 0
 56.99609375 102.104492188 131.602539062 27.498046875 223.498046875 27.498046875 c 0
 315.393554688 27.498046875 390 102.104492188 390 194 c 0
EndSplineSet
Validated: 524809
Ligature2: "'liga' Ligaduras est+AOEA-ndar en Latin b+APoA-squeda 0 subtabla" t w i t t e r hyphen s q u a r e
Ligature2: "'liga' Ligaduras est+AOEA-ndar en Latin b+APoA-squeda 0 subtabla" s q u a r e hyphen t w i t t e r
EndChar

StartChar: square-facebook
Encoding: 61570 61570 93
Width: 448
GlyphClass: 1
Flags: MW
HStem: 51.2002 25.4971<102.4 268.928 267.699 268.928 268.926 409.6> 102.4 25.5996<254.541 282.957 254.541 289.869> 230.4 25.5996<268.749 282.957> 281.655 51.1445<240.354 268.596>
VStem: 89.5996 76.7236<179.2 179.409 179.409 207.625 179.2 268.8> 192 25.5996<164.992 179.2> 319.949 25.5996<164.992 193.408> 371.204 51.1963<179.37 207.621>
LayerCount: 2
Fore
SplineSet
230.400390625 332.799804688 m 2
 226.874023438 332.799804688 223.653320312 331.373046875 221.337890625 329.0625 c 2
 173.900390625 281.599609375 l 1
 102.400390625 281.599609375 l 2
 95.3359375 281.599609375 89.599609375 275.864257812 89.599609375 268.799804688 c 2
 89.599609375 64 l 2
 89.599609375 56.935546875 95.3359375 51.2001953125 102.400390625 51.2001953125 c 2
 267.69921875 51.2001953125 l 2
 268.134765625 51.2099609375 268.557617188 51.244140625 268.979492188 51.302734375 c 0
 269.352539062 51.2548828125 269.724609375 51.220703125 270.10546875 51.2001953125 c 0
 270.109375 51.19921875 409.599609375 51.2001953125 409.599609375 51.2001953125 c 2
 416.6640625 51.2001953125 422.400390625 56.935546875 422.400390625 64 c 2
 422.400390625 268.799804688 l 2
 422.400390625 275.864257812 416.6640625 281.599609375 409.599609375 281.599609375 c 2
 363.69921875 281.599609375 l 1
 316.262695312 329.0625 l 2
 313.946289062 331.373046875 310.750976562 332.801757812 307.224609375 332.801757812 c 2
 307.200195312 332.799804688 l 1
 307.201171875 332.801757812 230.400390625 332.799804688 230.400390625 332.799804688 c 2
268.749023438 281.651367188 m 1
 268.958007812 281.651367188 l 2
 325.388671875 281.651367188 371.204101562 235.8359375 371.204101562 179.405273438 c 0
 371.204101562 179.334960938 371.200195312 179.26953125 371.200195312 179.200195312 c 2
 371.200195312 179.038085938 l 2
 371.200195312 122.946289062 325.916015625 77.3466796875 269.952148438 76.7998046875 c 0
 269.60546875 76.78125 269.265625 76.7470703125 268.927734375 76.697265625 c 0
 268.924804688 76.697265625 267.801757812 76.7998046875 267.801757812 76.7998046875 c 1
 267.69921875 76.7998046875 l 2
 211.67578125 77.27734375 166.33984375 122.907226562 166.33984375 179.04296875 c 0
 166.33984375 179.095703125 166.323242188 179.146484375 166.323242188 179.200195312 c 2
 166.323242188 179.409179688 l 2
 166.323242188 235.83984375 212.137695312 281.655273438 268.569335938 281.655273438 c 0
 268.622070312 281.655273438 268.670898438 281.651367188 268.723632812 281.651367188 c 0
 268.7265625 281.655273438 268.749023438 281.651367188 268.749023438 281.651367188 c 1
268.749023438 256 m 0
 226.424804688 255.887695312 192.083984375 221.530273438 192 179.200195312 c 0
 192 136.959960938 226.483398438 102.400390625 268.749023438 102.400390625 c 0
 310.989257812 102.400390625 345.548828125 136.959960938 345.548828125 179.200195312 c 0
 345.548828125 221.440429688 310.989257812 256 268.749023438 256 c 0
268.749023438 230.400390625 m 0
 297.165039062 230.400390625 319.94921875 207.616210938 319.94921875 179.200195312 c 0
 319.94921875 150.784179688 297.165039062 128 268.749023438 128 c 0
 240.333007812 128 217.599609375 150.784179688 217.599609375 179.200195312 c 0
 217.599609375 207.616210938 240.333007812 230.400390625 268.749023438 230.400390625 c 0
EndSplineSet
Validated: 524841
Ligature2: "'liga' Ligaduras est+AOEA-ndar en Latin b+APoA-squeda 0 subtabla" s q u a r e hyphen f a c e b o o k
Ligature2: "'liga' Ligaduras est+AOEA-ndar en Latin b+APoA-squeda 0 subtabla" f a c e b o o k hyphen s q u a r e
EndChar

StartChar: linkedin
Encoding: 61580 61580 94
Width: 448
GlyphClass: 1
Flags: MW
HStem: 21.5518 16.6484<235.502 239.624> 345.399 25.6006<181.504 266.496>
VStem: 44.7998 25.6006<149.304 234.296 149.304 241.208> 377.6 23.041<176.168 180.412 176.168 234.296>
LayerCount: 2
Fore
SplineSet
224 371 m 0
 125.18359375 371 44.7998046875 290.616210938 44.7998046875 191.799804688 c 0
 44.7998046875 92.9833984375 125.18359375 12.599609375 224 12.599609375 c 0
 322.81640625 12.599609375 403.200195312 92.9833984375 403.200195312 191.799804688 c 0
 403.200195312 290.616210938 322.81640625 371 224 371 c 0
224 345.399414062 m 0
 308.9921875 345.399414062 377.599609375 276.791992188 377.599609375 191.799804688 c 0
 377.599609375 106.807617188 308.9921875 38.2001953125 224 38.2001953125 c 0
 139.0078125 38.2001953125 70.400390625 106.807617188 70.400390625 191.799804688 c 0
 70.400390625 276.791992188 139.0078125 345.399414062 224 345.399414062 c 0
201.702148438 320.64453125 m 0
 200.233398438 320.569335938 198.794921875 320.369140625 197.401367188 320.055664062 c 0
 146.307617188 309.432617188 105.977539062 268.938476562 95.5908203125 217.7578125 c 0
 95.2568359375 216.109375 95.0810546875 214.403320312 95.0810546875 212.657226562 c 0
 95.0810546875 198.522460938 106.556640625 187.046875 120.69140625 187.046875 c 0
 133.079101562 187.046875 143.424804688 195.900390625 145.791992188 207.594726562 c 0
 152.055664062 238.798828125 176.645507812 263.4921875 207.794921875 269.905273438 c 0
 219.71875 272.0859375 228.768554688 282.538085938 228.768554688 295.087890625 c 0
 228.768554688 309.216796875 217.297851562 320.6875 203.168945312 320.6875 c 0
 202.662109375 320.6875 202.201171875 320.673828125 201.702148438 320.64453125 c 0
339.09765625 240.541992188 m 2
 333.446289062 240.541992188 328.821289062 235.954101562 328.821289062 230.302734375 c 0
 328.821289062 227.421875 330.01171875 224.81640625 331.9296875 222.955078125 c 2
 383.129882812 171.754882812 l 2
 384.986328125 169.89453125 387.552734375 168.743164062 390.385742188 168.743164062 c 0
 396.045898438 168.743164062 400.640625 173.338867188 400.640625 178.998046875 c 0
 400.640625 181.825195312 399.497070312 184.388671875 397.64453125 186.244140625 c 2
 346.444335938 237.444335938 l 2
 344.583984375 239.356445312 341.983398438 240.543945312 339.107421875 240.543945312 c 2
 339.09765625 240.541992188 l 2
319.897460938 182.942382812 m 2
 314.24609375 182.942382812 309.622070312 178.353515625 309.622070312 172.702148438 c 0
 309.622070312 169.821289062 310.8125 167.216796875 312.729492188 165.35546875 c 2
 363.9296875 114.155273438 l 2
 365.786132812 112.294921875 368.352539062 111.143554688 371.185546875 111.143554688 c 0
 376.845703125 111.143554688 381.440429688 115.73828125 381.440429688 121.3984375 c 0
 381.440429688 124.224609375 380.296875 126.7890625 378.444335938 128.64453125 c 1
 378.442382812 128.641601562 327.245117188 179.844726562 327.245117188 179.844726562 c 2
 325.383789062 181.755859375 322.783203125 182.944335938 319.907226562 182.944335938 c 2
 319.897460938 182.942382812 l 2
287.897460938 138.142578125 m 2
 282.24609375 138.142578125 277.622070312 133.553710938 277.622070312 127.90234375 c 0
 277.622070312 125.021484375 278.8125 122.416015625 280.729492188 120.5546875 c 2
 331.9296875 69.35546875 l 2
 333.786132812 67.4951171875 336.352539062 66.34375 339.185546875 66.34375 c 0
 344.845703125 66.34375 349.440429688 70.9384765625 349.440429688 76.5986328125 c 0
 349.440429688 79.4248046875 348.296875 81.9892578125 346.444335938 83.8447265625 c 1
 346.442382812 83.841796875 295.245117188 135.044921875 295.245117188 135.044921875 c 2
 293.383789062 136.956054688 290.783203125 138.14453125 287.907226562 138.14453125 c 2
 287.897460938 138.142578125 l 2
243.09765625 106.142578125 m 2
 237.446289062 106.142578125 232.821289062 101.553710938 232.821289062 95.90234375 c 0
 232.821289062 93.021484375 234.01171875 90.416015625 235.9296875 88.5546875 c 2
 287.129882812 37.35546875 l 2
 288.986328125 35.4951171875 291.552734375 34.34375 294.385742188 34.34375 c 0
 300.045898438 34.34375 304.640625 38.9384765625 304.640625 44.5986328125 c 0
 304.640625 47.4248046875 303.497070312 49.9892578125 301.64453125 51.8447265625 c 2
 250.444335938 103.044921875 l 2
 248.583984375 104.956054688 245.983398438 106.14453125 243.107421875 106.14453125 c 2
 243.09765625 106.142578125 l 2
185.856445312 86.9423828125 m 0
 185.721679688 86.947265625 185.586914062 86.9501953125 185.451171875 86.9501953125 c 0
 179.799804688 86.9501953125 175.2109375 82.361328125 175.2109375 76.7099609375 c 0
 175.2109375 73.5771484375 176.622070312 70.7734375 178.841796875 68.89453125 c 0
 178.840820312 68.8916015625 230.041992188 24.09375 230.041992188 24.09375 c 2
 231.845703125 22.51171875 234.208984375 21.5517578125 236.794921875 21.5517578125 c 0
 242.452148438 21.5517578125 247.044921875 26.14453125 247.044921875 31.8017578125 c 0
 247.044921875 34.873046875 245.701171875 37.6259765625 243.55859375 39.505859375 c 0
 243.548828125 39.5087890625 192.358398438 84.3056640625 192.358398438 84.3056640625 c 2
 190.626953125 85.8701171875 188.349609375 86.853515625 185.856445312 86.9423828125 c 0
EndSplineSet
Validated: 524325
Ligature2: "'liga' Ligaduras est+AOEA-ndar en Latin b+APoA-squeda 0 subtabla" l i n k e d i n
EndChar

StartChar: square-github
Encoding: 61586 61586 95
Width: 448
GlyphClass: 1
Flags: MW
HStem: 12.7998 102.4<379.29 398.067 379.29 398.067> 248 128<120.4 138 120.4 155.6> 268.8 76.7998<388.531 407.334 388.531 407.334> 294.4 25.5996<243.2 360.807 243.2 360.807>
VStem: 74 128<294.4 312 294.4 329.6> 102.4 76.7998<40.6655 59.4688 40.6655 59.4819> 128 25.5996<87.1934 204.8 87.1934 204.8> 332.8 102.4<49.9326 68.7231>
LayerCount: 2
Fore
SplineSet
202 312 m 0xc9
 201.887695312 347.270507812 173.270507812 375.887695312 138 376 c 0
 102.799804688 376 74 347.19921875 74 312 c 0
 74 276.799804688 102.799804688 248 138 248 c 0
 173.200195312 248 202 276.799804688 202 312 c 0xc9
140.799804688 12.7998046875 m 0
 161.869140625 12.7998046875 179.200195312 30.130859375 179.200195312 51.2001953125 c 0x85
 179.200195312 67.7373046875 168.422851562 81.869140625 153.599609375 87.193359375 c 1
 153.599609375 204.799804688 l 2
 153.856445312 222.10546875 127.744140625 222.10546875 128 204.799804688 c 2
 128 87.193359375 l 1x83
 113.177734375 81.869140625 102.400390625 67.763671875 102.400390625 51.2001953125 c 0x85
 102.400390625 30.130859375 119.731445312 12.7998046875 140.799804688 12.7998046875 c 0
384 12.7998046875 m 0
 412.134765625 12.7998046875 435.200195312 35.865234375 435.200195312 64 c 0
 435.200195312 92.134765625 412.134765625 115.200195312 384 115.200195312 c 0
 374.579101562 115.200195312 365.82421875 112.409179688 358.1953125 107.877929688 c 1
 226.662109375 239.461914062 l 2
 214.579101562 252.006835938 195.993164062 233.420898438 208.538085938 221.337890625 c 2
 340.095703125 89.8046875 l 1
 335.590820312 82.17578125 332.799804688 73.4462890625 332.799804688 64 c 0
 332.799804688 35.865234375 355.865234375 12.7998046875 384 12.7998046875 c 0
396.799804688 268.799804688 m 0xa1
 417.869140625 268.799804688 435.200195312 286.130859375 435.200195312 307.200195312 c 0
 435.200195312 328.268554688 417.869140625 345.599609375 396.799804688 345.599609375 c 0xa1
 380.262695312 345.599609375 366.130859375 334.822265625 360.806640625 320 c 1
 243.200195312 320 l 2
 225.89453125 320.255859375 225.89453125 294.143554688 243.200195312 294.400390625 c 2
 360.806640625 294.400390625 l 1x91
 366.130859375 279.577148438 380.236328125 268.799804688 396.799804688 268.799804688 c 0xa1
EndSplineSet
Validated: 524841
Ligature2: "'liga' Ligaduras est+AOEA-ndar en Latin b+APoA-squeda 0 subtabla" s q u a r e hyphen g i t h u b
Ligature2: "'liga' Ligaduras est+AOEA-ndar en Latin b+APoA-squeda 0 subtabla" g i t h u b hyphen s q u a r e
EndChar

StartChar: twitter
Encoding: 61593 61593 96
Width: 512
GlyphClass: 1
Flags: MW
HStem: 74.5996 25.6006<233.68 282.32 233.68 300.24> 151.4 76.7998<247.396 268.604> 279.4 25.5996<233.68 282.32>
VStem: 219.601 76.7998<179.196 200.404>
LayerCount: 2
Fore
SplineSet
421.83984375 197.48046875 m 0
 424.400390625 192.360351562 424.400390625 187.240234375 421.83984375 182.120117188 c 0
 386 143.719726562 342.48046875 74.599609375 258 74.599609375 c 0
 173.520507812 74.599609375 127.440429688 146.280273438 94.16015625 182.120117188 c 0
 91.6005859375 187.240234375 91.6005859375 192.360351562 94.16015625 197.48046875 c 0
 130 235.879882812 173.520507812 305 258 305 c 0
 342.48046875 305 386 235.879882812 421.83984375 197.48046875 c 0
258 100.200195312 m 0
 306.640625 100.200195312 347.600585938 141.16015625 347.600585938 189.799804688 c 0
 347.600585938 238.440429688 306.640625 279.400390625 258 279.400390625 c 0
 209.360351562 279.400390625 168.400390625 238.440429688 168.400390625 189.799804688 c 0
 168.400390625 141.16015625 209.360351562 100.200195312 258 100.200195312 c 0
219.600585938 189.799804688 m 0
 219.600585938 211.0078125 236.791992188 228.200195312 258 228.200195312 c 0
 279.208007812 228.200195312 296.400390625 211.0078125 296.400390625 189.799804688 c 0
 296.400390625 168.591796875 279.208007812 151.400390625 258 151.400390625 c 0
 236.791992188 151.400390625 219.600585938 168.591796875 219.600585938 189.799804688 c 0
EndSplineSet
Validated: 524289
Ligature2: "'liga' Ligaduras est+AOEA-ndar en Latin b+APoA-squeda 0 subtabla" t w i t t e r
EndChar

StartChar: facebook
Encoding: 61594 61594 97
AltUni2: 00f230.ffffffff.0 00f230.ffffffff.0
Width: 512
GlyphClass: 1
Flags: MW
HStem: 89.5596 25.6006<232.48 290.08 232.48 295.2>
LayerCount: 2
Fore
SplineSet
260.639648438 89.5595703125 m 0
 329.759765625 89.5595703125 378.399414062 145.879882812 406.559570312 181.719726562 c 1
 421.919921875 197.080078125 l 2
 427.040039062 202.200195312 427.040039062 209.879882812 421.919921875 215 c 0
 416.799804688 220.120117188 409.120117188 220.120117188 404 215 c 0
 398.879882812 209.879882812 393.759765625 204.759765625 388.639648438 197.080078125 c 0
 360.479492188 163.799804688 319.51953125 115.16015625 260.639648438 115.16015625 c 0
 204.3203125 115.16015625 160.799804688 163.799804688 132.639648438 197.080078125 c 0
 124.959960938 202.200195312 119.83984375 209.879882812 114.719726562 215 c 0
 109.599609375 220.120117188 99.359375 220.120117188 96.7998046875 215 c 0
 94.240234375 209.879882812 94.240234375 199.639648438 96.7998046875 194.51953125 c 0
 101.919921875 191.959960938 107.040039062 186.83984375 112.16015625 179.16015625 c 0
 142.879882812 145.879882812 191.51953125 89.5595703125 260.639648438 89.5595703125 c 0
EndSplineSet
Validated: 524329
Ligature2: "'liga' Ligaduras est+AOEA-ndar en Latin b+APoA-squeda 0 subtabla" f a c e b o o k
EndChar

StartChar: github
Encoding: 61595 61595 98
Width: 496
GlyphClass: 1
Flags: W
LayerCount: 2
Fore
SplineSet
165.900390625 50.599609375 m 0
 165.900390625 52.8994140625 163.30078125 54.4990234375 160.30078125 54.19921875 c 0
 157.400390625 54.19921875 155.100585938 52.599609375 155.100585938 50.599609375 c 0
 155.100585938 48.2998046875 157.400390625 46.7001953125 160.700195312 47 c 0
 163.600585938 47 165.900390625 48.599609375 165.900390625 50.599609375 c 0
134.80078125 55.099609375 m 0
 135.500976562 57.099609375 138.399414062 58.1005859375 140.999023438 57.400390625 c 0
 143.999023438 56.5 145.899414062 54.2001953125 145.299804688 52.2001953125 c 0
 144.700195312 50.2001953125 141.700195312 49.2001953125 139.100585938 50.2001953125 c 0
 136.100585938 50.7998046875 134.100585938 53.099609375 134.80078125 55.099609375 c 0
178.999023438 56.80078125 m 0
 181.899414062 57.1005859375 184.598632812 55.8017578125 184.8984375 53.9013671875 c 0
 185.198242188 51.9013671875 183.198242188 50.0009765625 180.297851562 49.30078125 c 0
 177.297851562 48.6005859375 174.698242188 49.900390625 174.3984375 51.900390625 c 0
 174.098632812 54.2001953125 176.098632812 56.1005859375 178.999023438 56.80078125 c 0
244.797851562 440.001953125 m 0
 383.498046875 440.001953125 495.99609375 334.698242188 495.99609375 195.998046875 c 0
 495.99609375 85.09765625 428.196289062 -9.802734375 328.196289062 -43.0029296875 c 0
 315.49609375 -45.302734375 310.896484375 -37.40234375 310.896484375 -30.90234375 c 0
 310.896484375 -22.7021484375 311.196289062 18.998046875 311.196289062 52.6982421875 c 0
 311.196289062 76.1982421875 303.396484375 91.1982421875 294.196289062 99.0986328125 c 1
 350.096679688 105.3984375 408.997070312 113.098632812 408.997070312 209.598632812 c 0
 408.997070312 236.999023438 399.197265625 250.798828125 383.197265625 268.499023438 c 1
 385.796875 274.999023438 394.296875 301.69921875 380.596679688 336.399414062 c 1
 359.696289062 342.999023438 311.596679688 309.399414062 311.596679688 309.399414062 c 1
 291.596679688 314.999023438 270.096679688 317.899414062 248.796875 317.899414062 c 0
 227.497070312 317.899414062 205.997070312 314.999023438 185.997070312 309.399414062 c 1
 185.997070312 309.399414062 137.897460938 342.899414062 116.997070312 336.399414062 c 1
 103.296875 301.799804688 111.796875 275 114.396484375 268.5 c 1
 98.396484375 250.900390625 90.796875 237.100585938 90.796875 209.600585938 c 0
 90.796875 113.400390625 147.197265625 105.30078125 203.09765625 99.1005859375 c 1
 195.897460938 92.5009765625 189.397460938 81.4013671875 187.09765625 65.4013671875 c 1
 172.797851562 58.8017578125 136.09765625 47.7021484375 114.197265625 86.3017578125 c 0
 100.497070312 110.1015625 75.5966796875 112.1015625 75.5966796875 112.1015625 c 1
 51.0966796875 112.401367188 73.9970703125 96.701171875 73.9970703125 96.701171875 c 1
 90.3974609375 89.201171875 101.797851562 60.1015625 101.797851562 60.1015625 c 1
 116.498046875 15.3017578125 186.498046875 30.3017578125 186.498046875 30.3017578125 c 1
 186.498046875 9.3017578125 186.797851562 -24.8984375 186.797851562 -31.0986328125 c 0
 186.797851562 -37.5986328125 182.297851562 -45.4990234375 169.498046875 -43.19921875 c 0
 69.7978515625 -9.798828125 -0.001953125 85.1015625 -0.001953125 196.001953125 c 0
 -0.001953125 334.702148438 106.09765625 440.001953125 244.797851562 440.001953125 c 0
97.1962890625 95.09765625 m 0
 98.49609375 96.3974609375 100.795898438 95.697265625 102.395507812 94.09765625 c 0
 104.095703125 92.197265625 104.395507812 89.8974609375 103.095703125 88.8974609375 c 0
 101.795898438 87.59765625 99.49609375 88.2978515625 97.896484375 89.8974609375 c 0
 96.1962890625 91.7978515625 95.896484375 94.09765625 97.1962890625 95.09765625 c 0
86.396484375 103.197265625 m 0
 87.0966796875 104.197265625 88.6962890625 104.497070312 90.6962890625 103.897460938 c 0
 92.6962890625 102.897460938 93.6962890625 101.297851562 92.99609375 99.998046875 c 0
 92.2958984375 98.59765625 90.2958984375 98.2978515625 88.6962890625 99.2978515625 c 0
 86.6962890625 100.297851562 85.6962890625 101.897460938 86.396484375 103.197265625 c 0
118.796875 67.59765625 m 0
 120.096679688 69.197265625 123.096679688 68.8974609375 125.296875 66.59765625 c 0
 127.296875 64.697265625 127.896484375 61.697265625 126.596679688 60.3974609375 c 0
 125.296875 58.7978515625 122.396484375 59.09765625 120.096679688 61.3974609375 c 0
 117.796875 63.2978515625 117.197265625 66.2978515625 118.796875 67.59765625 c 0
107.396484375 82.2978515625 m 0
 108.99609375 83.59765625 111.595703125 82.59765625 112.99609375 80.2978515625 c 0
 114.595703125 77.998046875 114.595703125 75.3984375 112.99609375 74.0986328125 c 0
 111.696289062 73.0986328125 108.99609375 74.0986328125 107.396484375 76.3984375 c 0
 105.796875 78.6982421875 105.796875 81.2978515625 107.396484375 82.2978515625 c 0
107.396484375 82.2978515625 m 1024
EndSplineSet
Validated: 524329
Ligature2: "'liga' Ligaduras est+AOEA-ndar en Latin b+APoA-squeda 0 subtabla" g i t h u b
EndChar

StartChar: pinterest
Encoding: 61650 61650 99
Width: 496
GlyphClass: 1
Flags: MW
HStem: -12.7998 153.6<192 320> 166.4 51.1992<140.8 151.334 130.266 320> 166.4 76.7998<140.8 144.41 309.466 320 320 330.534> 243.2 25.5996<137.19 144.41 316.391 323.609> 268.8 25.6006<137.19 144.41 316.391 323.609> 294.4 51.1992<140.8 151.334> 320 76.7998<309.466 330.534>
VStem: 51.2002 51.2002<245.479 256> 102.4 25.5996<51.2002 64 89.5996 102.4 51.2002 64 252.391 259.609> 128 25.5996<51.2002 64 89.5996 102.4 102.4 105.933 252.391 259.609> 307.2 25.5996<277.99 285.209> 358.4 76.7998<271.078 292.134>
LayerCount: 2
Fore
SplineSet
320 396.799804688 m 0xa330
 265.215820312 396.799804688 222.541015625 359.1171875 209.15234375 313.75390625 c 1
 192.51171875 332.90234375 170.49609375 345.599609375 140.799804688 345.599609375 c 0
 91.400390625 345.487304688 51.3125 305.399414062 51.2001953125 256 c 0
 51.2001953125 206.668945312 91.46875 166.400390625 140.799804688 166.400390625 c 2xc530
 320 166.400390625 l 2
 383.48828125 166.400390625 435.200195312 218.112304688 435.200195312 281.599609375 c 0
 435.200195312 345.087890625 383.48828125 396.799804688 320 396.799804688 c 0xa330
320 320 m 0xa230
 341.068359375 320 358.400390625 302.668945312 358.400390625 281.599609375 c 0
 358.400390625 260.556640625 341.068359375 243.200195312 320 243.200195312 c 0
 298.931640625 243.200195312 281.599609375 260.556640625 281.599609375 281.599609375 c 0
 281.599609375 302.668945312 298.931640625 320 320 320 c 0xa230
140.799804688 294.400390625 m 0xc530
 161.869140625 294.400390625 179.200195312 277.068359375 179.200195312 256 c 0
 179.200195312 234.95703125 161.869140625 217.599609375 140.799804688 217.599609375 c 0
 119.731445312 217.599609375 102.400390625 234.95703125 102.400390625 256 c 0
 102.400390625 277.068359375 119.731445312 294.400390625 140.799804688 294.400390625 c 0xc530
320 294.400390625 m 0x8830
 312.78125 294.400390625 307.200195312 288.819335938 307.200195312 281.599609375 c 0
 307.200195312 274.380859375 312.78125 268.799804688 320 268.799804688 c 0
 327.21875 268.799804688 332.799804688 274.380859375 332.799804688 281.599609375 c 0
 332.799804688 288.819335938 327.21875 294.400390625 320 294.400390625 c 0x8830
140.799804688 268.799804688 m 0x9070
 133.581054688 268.799804688 128 263.21875 128 256 c 0
 128 248.78125 133.581054688 243.200195312 140.799804688 243.200195312 c 0
 148.01953125 243.200195312 153.599609375 248.78125 153.599609375 256 c 0
 153.599609375 263.21875 148.01953125 268.799804688 140.799804688 268.799804688 c 0x9070
166.400390625 140.799804688 m 2
 159.3359375 140.799804688 153.599609375 135.064453125 153.599609375 128 c 2
 153.599609375 89.599609375 l 1
 128 89.599609375 l 1x8070
 128 102.400390625 l 2
 128 109.46484375 122.264648438 115.200195312 115.200195312 115.200195312 c 0
 108.135742188 115.200195312 102.400390625 109.46484375 102.400390625 102.400390625 c 2
 102.400390625 51.2001953125 l 2
 102.630859375 34.380859375 127.744140625 34.380859375 128 51.2001953125 c 2x80b0
 128 64 l 1
 153.599609375 64 l 1
 153.599609375 25.599609375 l 2
 153.599609375 22.220703125 154.95703125 18.9443359375 157.337890625 16.5634765625 c 2
 182.9375 -9.037109375 l 2
 185.254882812 -11.361328125 188.461914062 -12.798828125 192 -12.7998046875 c 1
 191.998046875 -12.8017578125 320 -12.7998046875 320 -12.7998046875 c 2
 327.064453125 -12.7998046875 332.799804688 -7.064453125 332.799804688 0 c 2
 332.799804688 128 l 2
 332.799804688 135.064453125 327.064453125 140.799804688 320 140.799804688 c 2
 166.400390625 140.799804688 l 2
447.590820312 115.200195312 m 0
 445.28125 115.1640625 443.112304688 114.469726562 441.29296875 113.305664062 c 1
 441.30859375 113.313476562 358.092773438 62.10546875 358.092773438 62.10546875 c 2
 354.438476562 59.8505859375 352.000976562 55.810546875 352.000976562 51.205078125 c 0
 352.000976562 46.599609375 354.438476562 42.5751953125 358.092773438 40.3203125 c 0
 358.092773438 40.3037109375 441.29296875 -10.8798828125 441.29296875 -10.8798828125 c 2
 443.241210938 -12.078125 445.533203125 -12.76953125 447.986328125 -12.76953125 c 0
 455.04296875 -12.76953125 460.788085938 -7.0546875 460.799804688 0 c 0
 460.786132812 0.0078125 460.799804688 102.400390625 460.799804688 102.400390625 c 1
 460.799804688 102.40625 l 2
 460.799804688 109.471679688 455.064453125 115.20703125 448 115.20703125 c 0
 447.860351562 115.20703125 447.728515625 115.204101562 447.590820312 115.200195312 c 0
EndSplineSet
Validated: 524329
Ligature2: "'liga' Ligaduras est+AOEA-ndar en Latin b+APoA-squeda 0 subtabla" p i n t e r e s t
EndChar

StartChar: square-pinterest
Encoding: 61651 61651 100
Width: 448
GlyphClass: 1
Flags: MW
VStem: 102.4 102.399<22.0674 25.5996 25.5996 153.6 153.6 157.132 12.7998 166.4> 307.2 102.399<25.5996 153.6 12.7998 166.4>
LayerCount: 2
Fore
SplineSet
255.590820312 371.200195312 m 0
 248.69140625 371.086914062 242.44140625 368.243164062 237.900390625 363.69921875 c 1
 237.912109375 363.6953125 84.30078125 210.099609375 84.30078125 210.099609375 c 2
 79.6689453125 205.55859375 76.7939453125 199.233398438 76.7939453125 192.241210938 c 0
 76.7939453125 192.16015625 76.798828125 192.081054688 76.7998046875 192 c 0
 76.794921875 191.998046875 76.7998046875 179.200195312 76.7998046875 179.200195312 c 2
 76.7998046875 172.135742188 82.53515625 166.400390625 89.599609375 166.400390625 c 2
 102.400390625 166.400390625 l 1
 102.400390625 25.599609375 l 2
 102.400390625 18.53515625 108.135742188 12.7998046875 115.200195312 12.7998046875 c 2
 204.799804688 12.7998046875 l 1
 204.799804688 153.599609375 l 2
 204.799804688 160.6640625 210.53515625 166.400390625 217.599609375 166.400390625 c 2
 294.400390625 166.400390625 l 2
 301.46484375 166.400390625 307.200195312 160.6640625 307.200195312 153.599609375 c 2
 307.200195312 12.7998046875 l 1
 396.799804688 12.7998046875 l 2
 403.864257812 12.7998046875 409.599609375 18.53515625 409.599609375 25.599609375 c 2
 409.599609375 166.400390625 l 1
 422.400390625 166.400390625 l 2
 429.46484375 166.400390625 435.200195312 172.135742188 435.200195312 179.200195312 c 2
 435.200195312 192 l 2
 435.202148438 192.142578125 435.204101562 192.28515625 435.204101562 192.427734375 c 0
 435.204101562 199.365234375 432.328125 205.62890625 427.69921875 210.099609375 c 2
 274.099609375 363.69921875 l 2
 269.46484375 368.336914062 263.0625 371.20703125 255.995117188 371.20703125 c 0
 255.858398438 371.20703125 255.7265625 371.202148438 255.590820312 371.200195312 c 0
EndSplineSet
Validated: 524841
Ligature2: "'liga' Ligaduras est+AOEA-ndar en Latin b+APoA-squeda 0 subtabla" s q u a r e hyphen p i n t e r e s t
Ligature2: "'liga' Ligaduras est+AOEA-ndar en Latin b+APoA-squeda 0 subtabla" p i n t e r e s t hyphen s q u a r e
EndChar

